<svg width="512" height="512" viewBox="0 0 512 512" fill="none" xmlns="http://www.w3.org/2000/svg">
<path fill-rule="evenodd" clip-rule="evenodd" d="M316.531 164.385C328.392 164.385 339.341 166.541 349.377 170.854C359.414 175.168 367.542 181.347 373.763 189.393C376.815 193.339 379.158 197.695 380.792 202.46C386.27 192.117 393.386 183.994 402.139 178.091C412.921 170.791 425.778 167.142 440.708 167.142C462.938 167.142 480.356 175.229 492.964 191.403C505.654 207.495 512 230.346 512 259.958C512 289.403 505.737 312.172 493.213 328.263C480.771 344.272 463.228 352.276 440.584 352.276C417.94 352.276 400.314 344.272 387.706 328.263C384.648 324.36 381.96 320.066 379.644 315.381C378.906 316.747 378.107 318.09 377.247 319.41C371.192 328.699 362.814 336.04 352.115 341.432C341.415 346.823 329.139 349.519 315.287 349.519C299.361 349.519 285.634 345.828 274.104 338.446C263.694 331.656 255.479 322.431 249.46 310.771C248.482 313.694 247.205 316.449 245.627 319.036C241.563 325.838 235.923 331.52 228.706 336.082C221.573 340.561 213.32 343.92 203.947 346.159C194.657 348.399 184.787 349.519 174.336 349.519C158.991 349.519 146.051 347.113 135.517 342.303C125.066 337.492 117.103 330.607 111.629 321.649C106.155 312.691 103.921 302.897 102.481 289.3H144.025C145.362 299.267 149.162 306.055 154.802 309.954C160.525 313.852 167.119 315.801 174.584 315.801C181.303 315.801 187.068 314.848 191.879 312.94C196.689 311.032 200.339 308.419 202.827 305.102C205.399 301.784 206.684 297.927 206.684 293.531C206.684 289.383 205.44 285.734 202.952 282.582C200.546 279.347 197.104 276.817 192.625 274.992C188.146 273.168 182.921 272.131 176.948 271.882L159.405 271.011V237.916L174.958 236.92C180.764 236.589 185.741 235.51 189.888 233.686C194.118 231.861 197.353 229.414 199.593 226.345C201.832 223.276 202.952 219.626 202.952 215.396C202.952 211.415 201.625 208.014 198.97 205.194C196.399 202.374 192.957 200.259 188.644 198.848C184.331 197.355 179.52 196.609 174.211 196.609C168.82 196.609 163.926 197.438 159.53 199.097C155.217 200.756 151.692 203.535 148.954 207.433C147.544 209.521 146.805 213.792 145.532 221.147C145.403 221.894 145.268 222.672 145.126 223.483H103.437C103.758 221.66 104.056 219.892 104.345 218.177C106.252 206.852 107.772 197.827 113.246 190.264C119.55 181.471 128.094 174.96 138.876 170.73C149.742 166.5 161.852 164.385 175.207 164.385C189.058 164.385 201.459 166.085 212.408 169.486C223.356 172.887 231.983 178.237 238.287 185.536C243.997 191.988 247.154 200.13 247.759 209.963C247.872 209.7 247.986 209.437 248.101 209.175C254.405 194.743 263.363 183.669 274.975 175.956C286.671 168.242 300.522 164.385 316.531 164.385ZM240.343 236.751C235.442 243.349 227.209 248.59 215.642 252.473C221.78 254.132 227.587 256.744 233.061 260.311C235.076 261.624 236.956 263.082 238.701 264.687C238.664 263.325 238.645 261.949 238.645 260.56C238.645 252.125 239.211 244.188 240.343 236.751ZM345.147 218.631H374.206C371.504 227.59 369.813 237.591 369.135 248.633C365.548 245.493 361.45 242.791 356.842 240.529C347.553 235.967 336.728 233.686 324.369 233.686C319.393 233.686 314.54 234.225 309.812 235.303C305.084 236.298 300.647 237.791 296.5 239.782C292.435 241.773 288.91 244.261 285.924 247.247C284.763 237.957 285.219 229.538 287.293 221.99C289.449 214.442 293.099 208.47 298.241 204.074C303.384 199.595 309.812 197.355 317.526 197.355C324.66 197.355 330.507 199.097 335.069 202.581C339.631 206.065 342.991 211.415 345.147 218.631ZM313.794 264.666C309.398 264.666 305.084 265.661 300.854 267.652C296.624 269.559 293.14 271.923 290.403 274.743C287.666 277.481 286.297 280.176 286.297 282.831C286.297 290.296 287.417 296.641 289.657 301.867C291.979 307.009 295.214 310.949 299.361 313.686C303.509 316.341 308.278 317.668 313.669 317.668C318.646 317.668 323.25 316.507 327.48 314.184C331.793 311.779 335.235 308.502 337.806 304.355C340.378 300.125 341.663 295.355 341.663 290.047C341.663 284.158 340.336 279.347 337.682 275.614C335.111 271.882 331.71 269.145 327.48 267.403C323.25 265.578 318.688 264.666 313.794 264.666ZM440.459 318.185C450.33 318.185 457.38 313.789 461.61 304.997C465.841 296.205 467.956 281.275 467.956 260.207C467.956 238.475 465.799 223.006 461.486 213.799C457.173 204.592 450.164 199.988 440.459 199.988C430.755 199.988 423.704 204.633 419.308 213.923C414.912 223.213 412.714 238.641 412.714 260.207C412.714 281.109 414.871 295.997 419.184 304.873C423.58 313.748 430.672 318.185 440.459 318.185Z" fill="url(#paint0_linear_589_304159)"/>
<path d="M451.324 378.018C409.324 449.868 331.366 498.135 242.135 498.135C187.63 498.135 137.331 480.126 96.8641 449.733L15.9179 470.73L38.9004 387.677C14.2925 349.775 -0.000244141 304.556 -0.000244141 256C-0.000244141 122.272 108.407 13.8647 242.135 13.8647C333.596 13.8647 413.213 64.5743 454.405 139.412C451.135 139.036 447.797 138.848 444.391 138.848C426.684 138.848 411.362 143.838 398.426 153.818C391.477 159.218 385.387 165.89 380.156 173.834C352.132 126.86 300.807 95.3975 242.135 95.3975C153.436 95.3975 81.5322 167.302 81.5322 256C81.5322 344.698 153.436 416.603 242.135 416.603C272.273 416.603 300.472 408.301 324.57 393.86L382.409 408.863L367.789 356.031C371.308 351.616 374.599 347.012 377.644 342.237C383.168 350.912 389.774 358.183 397.463 364.048C410.215 373.599 425.399 378.375 443.015 378.375C445.844 378.375 448.614 378.256 451.324 378.018Z" fill="url(#paint1_linear_589_304159)"/>
<defs>
<linearGradient id="paint0_linear_589_304159" x1="-158.862" y1="872.989" x2="950.408" y2="534.214" gradientUnits="userSpaceOnUse">
<stop/>
<stop offset="0.00572486" stop-color="#1B1A1A"/>
<stop offset="0.0117374" stop-color="#212121"/>
<stop offset="0.017747" stop-color="#1F1F1F"/>
<stop offset="0.023642" stop-color="#1A1C1C"/>
<stop offset="0.0293871" stop-color="#171A1A"/>
<stop offset="0.0349186" stop-color="#141818"/>
<stop offset="0.04" stop-color="#131818"/>
<stop offset="0.0448018" stop-color="#151B1C"/>
<stop offset="0.0777307" stop-color="#1A2B31"/>
<stop offset="0.1107" stop-color="#193640"/>
<stop offset="0.1433" stop-color="#143E4B"/>
<stop offset="0.1754" stop-color="#0E4252"/>
<stop offset="0.2063" stop-color="#0B4454"/>
<stop offset="0.5" stop-color="#00ADD5"/>
<stop offset="0.8514" stop-color="#0B4454"/>
<stop offset="0.8711" stop-color="#0E4252"/>
<stop offset="0.8916" stop-color="#143E4B"/>
<stop offset="0.9125" stop-color="#193640"/>
<stop offset="0.9335" stop-color="#1A2B31"/>
<stop offset="0.9546" stop-color="#151B1C"/>
<stop offset="0.9577" stop-color="#131818"/>
<stop offset="0.9613" stop-color="#1B1C1D"/>
<stop offset="0.9656" stop-color="#202020"/>
<stop offset="0.9702" stop-color="#212020"/>
<stop offset="0.975" stop-color="#1B1B1B"/>
<stop offset="0.9799" stop-color="#131313"/>
<stop offset="0.9852" stop-color="#0A0A09"/>
<stop offset="0.9909" stop-color="#020202"/>
<stop offset="0.998"/>
</linearGradient>
<linearGradient id="paint1_linear_589_304159" x1="-158.862" y1="872.989" x2="950.408" y2="534.214" gradientUnits="userSpaceOnUse">
<stop/>
<stop offset="0.00572486" stop-color="#1B1A1A"/>
<stop offset="0.0117374" stop-color="#212121"/>
<stop offset="0.017747" stop-color="#1F1F1F"/>
<stop offset="0.023642" stop-color="#1A1C1C"/>
<stop offset="0.0293871" stop-color="#171A1A"/>
<stop offset="0.0349186" stop-color="#141818"/>
<stop offset="0.04" stop-color="#131818"/>
<stop offset="0.0448018" stop-color="#151B1C"/>
<stop offset="0.0777307" stop-color="#1A2B31"/>
<stop offset="0.1107" stop-color="#193640"/>
<stop offset="0.1433" stop-color="#143E4B"/>
<stop offset="0.1754" stop-color="#0E4252"/>
<stop offset="0.2063" stop-color="#0B4454"/>
<stop offset="0.5" stop-color="#00ADD5"/>
<stop offset="0.8514" stop-color="#0B4454"/>
<stop offset="0.8711" stop-color="#0E4252"/>
<stop offset="0.8916" stop-color="#143E4B"/>
<stop offset="0.9125" stop-color="#193640"/>
<stop offset="0.9335" stop-color="#1A2B31"/>
<stop offset="0.9546" stop-color="#151B1C"/>
<stop offset="0.9577" stop-color="#131818"/>
<stop offset="0.9613" stop-color="#1B1C1D"/>
<stop offset="0.9656" stop-color="#202020"/>
<stop offset="0.9702" stop-color="#212020"/>
<stop offset="0.975" stop-color="#1B1B1B"/>
<stop offset="0.9799" stop-color="#131313"/>
<stop offset="0.9852" stop-color="#0A0A09"/>
<stop offset="0.9909" stop-color="#020202"/>
<stop offset="0.998"/>
</linearGradient>
</defs>
</svg>
