
<svg width="40" height="40" viewBox="0 0 40 40" fill="none" xmlns="http://www.w3.org/2000/svg">
<path d="M4.52373 14.0497V14.0988C4.52197 14.4055 4.41121 14.7017 4.21123 14.9343V14.9381C3.80944 15.4128 3.33325 16.2625 3.33325 17.6211C3.33325 18.8525 3.7276 19.7215 4.2023 20.293C4.41057 20.5464 4.52421 20.8644 4.52373 21.1925C4.52373 21.824 4.77458 22.4296 5.22109 22.8761C5.66761 23.3226 6.27321 23.5735 6.90468 23.5735H7.49992C7.65779 23.5735 7.80919 23.5108 7.92082 23.3991C8.03244 23.2875 8.09516 23.1361 8.09516 22.9782V12.2639C8.09516 12.1061 8.03244 11.9547 7.92082 11.843C7.80919 11.7314 7.65779 11.6687 7.49992 11.6687H6.90468C6.27321 11.6687 5.66761 11.9196 5.22109 12.3661C4.77458 12.8126 4.52373 13.4182 4.52373 14.0497ZM34.5966 14.8346L34.5274 14.822C34.4594 14.809 34.398 14.7727 34.3539 14.7193C34.3098 14.6659 34.2856 14.5988 34.2856 14.5296V5.56751C34.2856 4.62704 33.6614 3.7818 32.7313 3.46037C31.8444 3.15457 30.9203 3.40382 30.3742 4.09504C29.2123 5.48241 27.9352 6.769 26.5565 7.94103C24.7983 9.42912 23.116 10.4894 21.5713 11.0891C21.4587 11.132 21.3618 11.2082 21.2933 11.3074C21.2249 11.4067 21.1882 11.5243 21.1882 11.6449V23.2014C21.1884 23.4342 21.2567 23.6617 21.3849 23.856C21.513 24.0502 21.6953 24.2027 21.9091 24.2944C23.3481 24.9113 24.9032 25.9187 26.5222 27.2915C27.9114 28.4741 29.1977 29.7724 30.3675 31.1724C30.5549 31.4075 30.7941 31.5961 31.0664 31.7235C31.3387 31.8509 31.6368 31.9136 31.9374 31.9068C32.2016 31.9056 32.4639 31.8619 32.7142 31.7773C33.6688 31.4604 34.2856 30.6456 34.2856 29.7044V20.7111C34.2857 20.6409 34.3106 20.5729 34.3559 20.5193C34.4013 20.4656 34.4641 20.4297 34.5334 20.418L34.5966 20.4075C35.3124 20.2133 36.6666 19.3822 36.6666 17.6211C36.6666 15.8599 35.3124 15.0288 34.5966 14.8346Z" fill="#3A9CC4"/>
<path d="M36.6662 17.5968C36.6662 19.2189 35.3814 20.5339 34.3033 20.5339C34.3033 18.9118 34.3144 14.7167 34.3144 14.7167C35.4369 14.8166 36.6662 15.9747 36.6662 17.5968Z" fill="#1C6292"/>
<path d="M18.8101 24.7637V12.2637C18.8101 12.1058 18.7474 11.9544 18.6358 11.8428C18.5242 11.7312 18.3728 11.6685 18.2149 11.6685H11.072C10.9142 11.6685 10.7628 11.7312 10.6511 11.8428C10.5395 11.9544 10.4768 12.1058 10.4768 12.2637V34.8827C10.4768 35.3563 10.6649 35.8105 10.9998 36.1454C11.3347 36.4803 11.7889 36.6685 12.2625 36.6685H16.1651C16.536 36.6716 16.9028 36.5897 17.2372 36.4291C17.5716 36.2685 17.8648 36.0335 18.0944 35.7421C18.3297 35.4404 18.488 35.086 18.5556 34.7093C18.6231 34.3327 18.5979 33.9453 18.482 33.5807C18.3615 33.1952 18.2119 32.7622 18.0527 32.3016C17.4642 30.5978 16.6881 29.5435 16.4813 27.1439C17.1035 27.1303 17.6957 26.8735 18.131 26.4287C18.5663 25.9838 18.8101 25.3861 18.8101 24.7637Z" fill="#1C6292"/>
<path d="M14.4656 34.2898C14.4508 34.2454 14.4286 34.2084 14.4138 34.1639C14.3842 34.0973 14.3546 34.0306 14.3176 33.9714C14.2583 33.8381 14.1991 33.6975 14.125 33.5716L13.8807 33.0459C13.8363 33.0385 13.8585 33.0681 13.8585 33.0829C13.8585 33.4235 13.8585 33.7715 13.8585 34.1121C13.8585 34.1417 13.8659 34.1639 13.8511 34.1861C13.8215 34.1195 13.7844 34.0529 13.7548 33.9862C13.7326 33.9344 13.7104 33.89 13.6882 33.8381C13.6363 33.7271 13.5771 33.6086 13.5253 33.4975L13.3328 33.1051C13.2661 32.9792 13.1773 32.8756 13.0366 32.8311C12.9848 32.8015 12.9255 32.7941 12.8663 32.7793C12.77 32.7719 12.6664 32.7571 12.5701 32.7793C12.4813 32.7719 12.3998 32.8015 12.3184 32.8311C12.2814 32.8459 12.2369 32.8608 12.1999 32.8904C12.1703 32.9052 12.1407 32.9274 12.1185 32.957C12.0592 33.0088 12.0296 33.0755 12.037 33.1569C12.037 33.194 12.037 33.231 12.037 33.2606V33.4309C12.037 33.4975 12.037 33.5642 12.037 33.6308C12.037 33.6678 12.037 33.7049 12.037 33.7345V33.9122C12.037 33.964 12.037 34.0084 12.037 34.0603C12.037 34.1121 12.037 34.1565 12.037 34.2084C12.037 34.2898 12.037 34.3787 12.037 34.4601C12.037 34.5415 12.037 34.623 12.037 34.7044C12.037 34.7415 12.0518 34.7415 12.0814 34.7415C12.1777 34.7415 12.2665 34.7415 12.3554 34.7193C12.3998 34.7118 12.4442 34.7044 12.4813 34.6748C12.5109 34.6674 12.5405 34.6526 12.5627 34.6304C12.5849 34.6156 12.622 34.6082 12.6294 34.5712C12.6886 34.5415 12.7108 34.4897 12.733 34.4305C12.7478 34.4083 12.7404 34.3712 12.7552 34.349C12.7626 34.3342 12.7626 34.312 12.7626 34.2898C12.7626 33.9936 12.7626 33.7049 12.7626 33.4087C12.7626 33.3865 12.7626 33.3643 12.7552 33.3494C12.7774 33.3346 12.7774 33.3569 12.7848 33.3717C12.8219 33.4531 12.8589 33.5272 12.9033 33.6086C12.97 33.7493 13.0366 33.89 13.1032 34.0306C13.1625 34.1565 13.2217 34.275 13.2735 34.4009C13.3772 34.6378 13.5697 34.7341 13.8141 34.7489C13.8289 34.7563 13.8511 34.7563 13.8733 34.7563C13.9399 34.7563 14.0066 34.7563 14.0732 34.7563C14.0806 34.7563 14.0806 34.7563 14.088 34.7563C14.1621 34.7489 14.2287 34.7341 14.2953 34.7118C14.3398 34.6896 14.3842 34.6674 14.4212 34.6526C14.473 34.623 14.5027 34.5786 14.5175 34.5267C14.5619 34.4379 14.5101 34.3638 14.4656 34.2898ZM16.7906 32.8089C16.7092 32.8089 16.6203 32.8015 16.5389 32.8237C16.4648 32.8311 16.3982 32.8534 16.3315 32.8904H16.3389C16.3389 32.8904 16.3389 32.8904 16.3315 32.8904C16.3315 32.8904 16.3315 32.8904 16.3241 32.8904C16.2649 32.9126 16.2131 32.9496 16.176 32.994C16.1464 33.0162 16.1242 33.0533 16.1094 33.0903C16.0502 33.1791 16.065 33.2828 16.0724 33.3791C16.0724 33.4605 16.0724 33.542 16.0724 33.6234C16.0724 33.6826 16.0724 33.7345 16.0724 33.7937C16.0724 33.8307 16.0724 33.8678 16.0724 33.8974C16.0724 33.964 16.0724 34.0232 16.0724 34.0899C16.0724 34.1269 16.0724 34.1713 16.0724 34.2084C16.0502 34.2158 16.0502 34.1935 16.0428 34.1861C15.9983 34.1047 15.9613 34.0232 15.9243 33.9418C15.9095 33.9122 15.9021 33.8752 15.8799 33.8529C15.8354 33.7493 15.791 33.6456 15.7318 33.542C15.6726 33.4161 15.6133 33.2976 15.5615 33.1717C15.4504 32.9126 15.2431 32.8237 14.9839 32.8163C14.9173 32.7941 14.8507 32.8089 14.784 32.8089C14.71 32.8163 14.6359 32.8237 14.5693 32.8459C14.5545 32.8534 14.5397 32.8534 14.5175 32.8608C14.4656 32.8904 14.4064 32.9052 14.362 32.957C14.3472 32.9644 14.3398 32.9792 14.3472 33.0014C14.2953 33.0829 14.2731 33.1643 14.325 33.2532C14.3398 33.2828 14.3546 33.3124 14.3694 33.342C14.4212 33.4457 14.4656 33.5568 14.5249 33.6604C14.5915 33.8159 14.6656 33.964 14.7396 34.1121C14.7988 34.2454 14.8655 34.3787 14.9321 34.5119C14.9321 34.5341 14.9395 34.549 14.9617 34.5638C14.9617 34.5564 14.9691 34.549 14.9691 34.5415C14.9691 34.1565 14.9691 33.7715 14.9691 33.3791C15.0136 33.4457 15.0432 33.5197 15.0728 33.5864C15.095 33.6308 15.1098 33.6752 15.132 33.7123C15.2061 33.8603 15.2727 34.0158 15.3542 34.1639C15.3838 34.2602 15.443 34.3416 15.48 34.4379C15.5615 34.6304 15.7022 34.7415 15.9021 34.7859C15.9539 34.7859 16.0057 34.8081 16.065 34.8081C16.1242 34.8081 16.176 34.8081 16.2353 34.8081C16.2427 34.8081 16.2427 34.8081 16.2501 34.8081C16.3093 34.8007 16.3612 34.8007 16.4204 34.7785C16.487 34.7711 16.5463 34.7415 16.5981 34.7118C16.6573 34.6896 16.7018 34.6526 16.7462 34.6008C16.761 34.586 16.7758 34.5712 16.7832 34.549C16.8128 34.5045 16.8128 34.4527 16.8128 34.4009C16.8128 33.89 16.8128 33.3865 16.8128 32.8756C16.8054 32.8459 16.8128 32.8237 16.7906 32.8089Z" fill="#3A9CC4"/>
<path d="M15.4902 17.6034C15.4902 17.7663 15.6222 17.8983 15.785 17.8983C15.9479 17.8983 16.0799 17.7663 16.0799 17.6034C16.0799 17.4406 15.9479 17.3086 15.785 17.3086C15.6222 17.3086 15.4902 17.4406 15.4902 17.6034Z" fill="#3A9CC4"/>
<path d="M14.809 17.8984C14.6462 17.8984 14.5142 17.7664 14.5142 17.6036C14.5142 17.4407 14.6462 17.3087 14.809 17.3087C14.9719 17.3087 15.1039 17.4407 15.1039 17.6036C15.1039 17.7664 14.9719 17.8984 14.809 17.8984Z" fill="#3A9CC4"/>
<path d="M13.509 17.6036C13.509 17.7664 13.641 17.8984 13.8038 17.8984C13.9667 17.8984 14.0987 17.7664 14.0987 17.6036C14.0987 17.4407 13.9667 17.3087 13.8038 17.3087C13.641 17.3087 13.509 17.4407 13.509 17.6036Z" fill="#3A9CC4"/>
<path fill-rule="evenodd" clip-rule="evenodd" d="M12.5182 18.8777C12.371 18.6165 12.2673 18.3275 12.2169 18.0205C12.1933 17.8791 12.181 17.7338 12.181 17.5857C12.181 16.139 13.3537 14.9663 14.8004 14.9663C16.2471 14.9663 17.4198 16.139 17.4198 17.5857C17.4198 17.7741 17.3999 17.9579 17.3621 18.1351C17.1128 19.3212 16.0605 20.2118 14.8002 20.2118C14.3519 20.2118 13.9299 20.0991 13.561 19.9004L12.1294 20.2727L12.5182 18.8777ZM14.5401 19.5859C14.6253 19.5969 14.7121 19.6026 14.8002 19.6026C15.9096 19.6026 16.8089 18.7033 16.8089 17.5939C16.8089 16.4846 15.9096 15.5852 14.8002 15.5852C13.6909 15.5852 12.7916 16.4846 12.7916 17.5939C12.7916 17.6744 12.7963 17.7537 12.8055 17.8317C12.8978 18.3731 13.1781 18.7611 13.1781 18.7611L12.9984 19.4186L13.6579 19.2463L13.6584 19.2467L13.6712 19.2434C13.9221 19.4101 14.2475 19.5362 14.5401 19.5859Z" fill="#3A9CC4"/>
</svg>
