
<svg width="151" height="32" viewBox="0 0 151 32" fill="none" xmlns="http://www.w3.org/2000/svg">
<g filter="url(#filter0_i_141_163645)">
<rect x="0.5" width="150" height="32" rx="8" fill="#3366FF" fill-opacity="0.08"/>
<path opacity="0.32" d="M9.96218 24.5939C9.18826 24.4291 8.67223 23.8061 8.59095 23.019C8.47043 21.852 8.33337 19.7094 8.33337 15.9997C8.33337 12.29 8.47043 10.1473 8.59095 8.98031C8.67223 8.19324 9.18826 7.57023 9.96218 7.40547C11.1837 7.14542 13.4865 6.83301 17.5 6.83301C21.5136 6.83301 23.8163 7.14542 25.0379 7.40547C25.8118 7.57023 26.3279 8.19324 26.4091 8.98031C26.5297 10.1473 26.6667 12.29 26.6667 15.9997C26.6667 19.7094 26.5297 21.852 26.4091 23.019C26.3279 23.8061 25.8118 24.4291 25.0379 24.5939C23.8163 24.8539 21.5136 25.1663 17.5 25.1663C13.4865 25.1663 11.1837 24.8539 9.96218 24.5939Z" fill="#3366FF"/>
<path d="M10.4071 13.2728V13.2953C10.4063 13.4359 10.3555 13.5717 10.2639 13.6783V13.68C10.0797 13.8976 9.86145 14.287 9.86145 14.9097C9.86145 15.4741 10.0422 15.8724 10.2598 16.1343C10.3552 16.2505 10.4073 16.3963 10.4071 16.5466C10.4071 16.8361 10.5221 17.1136 10.7267 17.3183C10.9314 17.5229 11.2089 17.6379 11.4984 17.6379H11.7712C11.8435 17.6379 11.9129 17.6092 11.9641 17.558C12.0152 17.5068 12.044 17.4374 12.044 17.3651V12.4544C12.044 12.382 12.0152 12.3126 11.9641 12.2615C11.9129 12.2103 11.8435 12.1816 11.7712 12.1816H11.4984C11.2089 12.1816 10.9314 12.2965 10.7267 12.5012C10.5221 12.7058 10.4071 12.9834 10.4071 13.2728ZM24.1905 13.6326L24.1588 13.6268C24.1276 13.6208 24.0995 13.6042 24.0792 13.5797C24.059 13.5553 24.048 13.5245 24.048 13.4928V9.38517C24.048 8.95412 23.7618 8.56672 23.3356 8.4194C22.9291 8.27924 22.5055 8.39348 22.2552 8.71029C21.7227 9.34617 21.1374 9.93585 20.5054 10.473C19.6996 11.1551 18.9285 11.641 18.2206 11.9159C18.169 11.9356 18.1245 11.9705 18.0932 12.016C18.0618 12.0614 18.045 12.1154 18.045 12.1706V17.4674C18.045 17.574 18.0764 17.6783 18.1351 17.7674C18.1938 17.8564 18.2774 17.9263 18.3754 17.9683C19.0349 18.2511 19.7477 18.7128 20.4897 19.342C21.1264 19.884 21.716 20.4791 22.2521 21.1208C22.338 21.2285 22.4477 21.315 22.5725 21.3733C22.6973 21.4317 22.8339 21.4605 22.9717 21.4573C23.0928 21.4568 23.213 21.4368 23.3277 21.398C23.7653 21.2527 24.048 20.8793 24.048 20.4479V16.326C24.048 16.2938 24.0594 16.2626 24.0802 16.2381C24.101 16.2135 24.1298 16.197 24.1615 16.1916L24.1905 16.1869C24.5186 16.0978 25.1392 15.7169 25.1392 14.9097C25.1392 14.1025 24.5186 13.7216 24.1905 13.6326Z" fill="#3366FF"/>
<path d="M25.1391 14.8986C25.1391 15.6421 24.5502 16.2448 24.0561 16.2448C24.0561 15.5013 24.0611 13.5785 24.0611 13.5785C24.5756 13.6244 25.1391 14.1551 25.1391 14.8986Z" fill="#3366FF"/>
<path d="M16.955 18.1834V12.4543C16.955 12.3819 16.9263 12.3125 16.8751 12.2613C16.824 12.2102 16.7546 12.1814 16.6822 12.1814H13.4084C13.336 12.1814 13.2666 12.2102 13.2155 12.2613C13.1643 12.3125 13.1356 12.3819 13.1356 12.4543V22.8213C13.1356 23.0384 13.2218 23.2466 13.3753 23.4001C13.5288 23.5535 13.737 23.6398 13.954 23.6398H15.7427C15.9127 23.6412 16.0808 23.6037 16.2341 23.5301C16.3874 23.4565 16.5218 23.3488 16.627 23.2152C16.7348 23.0769 16.8074 22.9145 16.8383 22.7418C16.8693 22.5692 16.8577 22.3917 16.8046 22.2245C16.7494 22.0479 16.6808 21.8494 16.6079 21.6383C16.3381 20.8574 15.9824 20.3741 15.8876 19.2744C16.1728 19.2681 16.4443 19.1504 16.6438 18.9465C16.8433 18.7426 16.955 18.4687 16.955 18.1834Z" fill="#3366FF"/>
<path d="M37.235 13.916C37.235 13.2253 37.4007 12.6443 37.732 12.173C38.0633 11.697 38.5067 11.34 39.062 11.102C39.622 10.8593 40.2427 10.738 40.924 10.738C41.6567 10.738 42.3053 10.8383 42.87 11.039C43.4393 11.235 43.885 11.5313 44.207 11.928C44.5337 12.3247 44.697 12.817 44.697 13.405C44.697 13.9043 44.5453 14.35 44.242 14.742C43.9387 15.134 43.4603 15.442 42.807 15.666C43.213 15.778 43.577 15.946 43.899 16.17C44.221 16.3893 44.4753 16.6647 44.662 16.996C44.8533 17.3273 44.949 17.717 44.949 18.165C44.949 18.6457 44.844 19.0727 44.634 19.446C44.4287 19.8193 44.1393 20.1343 43.766 20.391C43.3973 20.643 42.9657 20.8343 42.471 20.965C41.9763 21.091 41.4443 21.154 40.875 21.154C40.1143 21.1493 39.4587 21.0187 38.908 20.762C38.3573 20.5053 37.928 20.139 37.62 19.663C37.3167 19.187 37.158 18.6223 37.144 17.969H38.803C38.901 18.571 39.139 19.019 39.517 19.313C39.8997 19.6023 40.364 19.747 40.91 19.747C41.3627 19.747 41.7547 19.6793 42.086 19.544C42.4173 19.404 42.6717 19.2127 42.849 18.97C43.031 18.7273 43.122 18.445 43.122 18.123C43.122 17.7823 43.024 17.4907 42.828 17.248C42.6367 17.0053 42.373 16.8187 42.037 16.688C41.701 16.5573 41.323 16.4873 40.903 16.478L39.965 16.45V15.064L40.833 15.029C41.2343 15.015 41.5867 14.938 41.89 14.798C42.198 14.658 42.4383 14.4737 42.611 14.245C42.7837 14.0163 42.87 13.7597 42.87 13.475C42.87 13.2137 42.7883 12.978 42.625 12.768C42.4663 12.558 42.24 12.3947 41.946 12.278C41.652 12.1567 41.3043 12.096 40.903 12.096C40.5623 12.096 40.2427 12.1567 39.944 12.278C39.6453 12.3993 39.398 12.5953 39.202 12.866C39.0107 13.132 38.9057 13.482 38.887 13.916H37.235ZM50.2834 10.738C50.8808 10.738 51.4338 10.85 51.9424 11.074C52.4511 11.2933 52.8688 11.6107 53.1954 12.026C53.5221 12.4413 53.7134 12.943 53.7694 13.531H52.1944C52.0638 13.0783 51.8398 12.7283 51.5224 12.481C51.2051 12.2337 50.8038 12.11 50.3184 12.11C49.7818 12.11 49.3338 12.2617 48.9744 12.565C48.6151 12.8683 48.3561 13.3047 48.1974 13.874C48.0434 14.4387 47.9944 15.1153 48.0504 15.904C48.1951 15.6287 48.3911 15.3907 48.6384 15.19C48.8858 14.9847 49.1681 14.826 49.4854 14.714C49.8028 14.602 50.1388 14.546 50.4934 14.546C51.1701 14.546 51.7628 14.6743 52.2714 14.931C52.7801 15.1877 53.1768 15.5517 53.4614 16.023C53.7461 16.4943 53.8884 17.052 53.8884 17.696C53.8884 18.3633 53.7344 18.9583 53.4264 19.481C53.1184 19.999 52.6868 20.4073 52.1314 20.706C51.5761 21.0047 50.9274 21.154 50.1854 21.154C49.3594 21.154 48.6454 20.9487 48.0434 20.538C47.4414 20.1273 46.9771 19.5463 46.6504 18.795C46.3284 18.039 46.1674 17.1453 46.1674 16.114C46.1674 15.0173 46.3284 14.0677 46.6504 13.265C46.9724 12.4577 47.4391 11.8347 48.0504 11.396C48.6664 10.9573 49.4108 10.738 50.2834 10.738ZM50.1364 15.855C49.8144 15.855 49.5018 15.9297 49.1984 16.079C48.8998 16.2283 48.6548 16.422 48.4634 16.66C48.2768 16.898 48.1834 17.1523 48.1834 17.423C48.1788 17.9037 48.2581 18.3237 48.4214 18.683C48.5848 19.0423 48.8134 19.3223 49.1074 19.523C49.4061 19.719 49.7514 19.817 50.1434 19.817C50.5074 19.817 50.8341 19.7307 51.1234 19.558C51.4174 19.3853 51.6484 19.145 51.8164 18.837C51.9891 18.529 52.0754 18.1743 52.0754 17.773C52.0754 17.3623 51.9961 17.0147 51.8374 16.73C51.6788 16.4453 51.4524 16.2283 51.1584 16.079C50.8691 15.9297 50.5284 15.855 50.1364 15.855ZM58.8682 10.738C60.0255 10.738 60.9402 11.1837 61.6122 12.075C62.2888 12.9617 62.6272 14.2567 62.6272 15.96C62.6272 17.654 62.2912 18.9443 61.6192 19.831C60.9518 20.713 60.0325 21.154 58.8612 21.154C57.6898 21.154 56.7682 20.713 56.0962 19.831C55.4288 18.949 55.0952 17.6633 55.0952 15.974C55.0952 14.8353 55.2492 13.8787 55.5572 13.104C55.8652 12.3247 56.3015 11.7367 56.8662 11.34C57.4308 10.9387 58.0982 10.738 58.8682 10.738ZM58.8682 19.733C59.5262 19.733 60.0162 19.4413 60.3382 18.858C60.6602 18.2747 60.8212 17.311 60.8212 15.967C60.8212 14.595 60.6578 13.6103 60.3312 13.013C60.0045 12.4157 59.5145 12.117 58.8612 12.117C58.2078 12.117 57.7132 12.418 57.3772 13.02C57.0458 13.622 56.8802 14.6043 56.8802 15.967C56.8802 17.3063 57.0458 18.27 57.3772 18.858C57.7132 19.4413 58.2102 19.733 58.8682 19.733ZM64.4945 21V10.878H67.9735C69.2569 10.878 70.2159 11.1067 70.8505 11.564C71.4899 12.0167 71.8095 12.67 71.8095 13.524C71.8095 14.042 71.6765 14.49 71.4105 14.868C71.1445 15.246 70.6755 15.5657 70.0035 15.827C70.4142 15.925 70.7525 16.0603 71.0185 16.233C71.2892 16.401 71.4992 16.5947 71.6485 16.814C71.7979 17.0287 71.9029 17.2597 71.9635 17.507C72.0242 17.7543 72.0545 18.0087 72.0545 18.27C72.0545 19.194 71.7325 19.88 71.0885 20.328C70.4492 20.776 69.4575 21 68.1135 21H64.4945ZM66.1955 19.642H68.1345C68.8532 19.642 69.3969 19.5137 69.7655 19.257C70.1389 18.9957 70.3255 18.62 70.3255 18.13C70.3255 17.7753 70.2345 17.4837 70.0525 17.255C69.8705 17.0217 69.6232 16.849 69.3105 16.737C68.9979 16.625 68.6479 16.569 68.2605 16.569H66.1955V19.642ZM66.1955 15.19H68.2605C68.4985 15.19 68.7295 15.1643 68.9535 15.113C69.1775 15.0617 69.3805 14.98 69.5625 14.868C69.7445 14.756 69.8892 14.6067 69.9965 14.42C70.1085 14.2333 70.1645 14.007 70.1645 13.741C70.1645 13.2323 69.9709 12.8543 69.5835 12.607C69.2009 12.355 68.7085 12.229 68.1065 12.229H66.1955V15.19ZM73.7238 21V13.762H75.3548V15.33C75.4715 14.9707 75.6371 14.665 75.8518 14.413C76.0711 14.1563 76.3278 13.9603 76.6218 13.825C76.9158 13.6897 77.2355 13.622 77.5808 13.622C77.6648 13.622 77.7465 13.6267 77.8258 13.636C77.9051 13.6453 77.9635 13.6617 78.0008 13.685V15.316C77.9495 15.2927 77.8818 15.2763 77.7978 15.267C77.7185 15.2577 77.6485 15.253 77.5878 15.253C77.2378 15.225 76.9275 15.239 76.6568 15.295C76.3908 15.351 76.1645 15.4467 75.9778 15.582C75.7958 15.7127 75.6581 15.8807 75.5648 16.086C75.4715 16.2867 75.4248 16.5223 75.4248 16.793V21H73.7238ZM82.2229 21.14C81.5322 21.14 80.9302 20.993 80.4169 20.699C79.9036 20.4003 79.5046 19.9733 79.2199 19.418C78.9399 18.8627 78.7999 18.1953 78.7999 17.416C78.7999 16.66 78.9352 15.9973 79.2059 15.428C79.4812 14.8587 79.8756 14.4153 80.3889 14.098C80.9022 13.7807 81.5159 13.622 82.2299 13.622C82.9206 13.622 83.5202 13.7737 84.0289 14.077C84.5376 14.3803 84.9296 14.8143 85.2049 15.379C85.4849 15.9437 85.6249 16.6227 85.6249 17.416C85.6249 18.1487 85.4919 18.795 85.2259 19.355C84.9646 19.9103 84.5796 20.3467 84.0709 20.664C83.5669 20.9813 82.9509 21.14 82.2229 21.14ZM82.2299 19.845C82.6219 19.845 82.9439 19.7377 83.1959 19.523C83.4526 19.3083 83.6416 19.0143 83.7629 18.641C83.8889 18.2677 83.9519 17.843 83.9519 17.367C83.9519 16.9237 83.8959 16.5153 83.7839 16.142C83.6766 15.7687 83.4946 15.47 83.2379 15.246C82.9859 15.0173 82.6499 14.903 82.2299 14.903C81.8332 14.903 81.5042 15.008 81.2429 15.218C80.9862 15.4233 80.7926 15.7127 80.6619 16.086C80.5359 16.4547 80.4729 16.8817 80.4729 17.367C80.4729 17.8057 80.5289 18.214 80.6409 18.592C80.7576 18.9653 80.9442 19.2687 81.2009 19.502C81.4576 19.7307 81.8006 19.845 82.2299 19.845ZM89.1186 21.14C88.6566 21.14 88.2412 21.056 87.8726 20.888C87.5086 20.7153 87.2216 20.4703 87.0116 20.153C86.8062 19.831 86.7036 19.4413 86.7036 18.984C86.7036 18.186 86.9906 17.584 87.5646 17.178C88.1432 16.772 89.0649 16.5597 90.3296 16.541L91.4076 16.513V16.023C91.4076 15.6403 91.2932 15.3417 91.0646 15.127C90.8406 14.9077 90.4906 14.8003 90.0146 14.805C89.6646 14.8097 89.3426 14.8937 89.0486 15.057C88.7592 15.2157 88.5679 15.484 88.4746 15.862H87.0256C87.0536 15.3673 87.1959 14.9543 87.4526 14.623C87.7139 14.287 88.0709 14.0373 88.5236 13.874C88.9762 13.706 89.4989 13.622 90.0916 13.622C90.7822 13.622 91.3446 13.713 91.7786 13.895C92.2126 14.077 92.5322 14.3407 92.7376 14.686C92.9429 15.0267 93.0456 15.4397 93.0456 15.925V21H91.6106L91.4776 19.698C91.2162 20.244 90.8849 20.622 90.4836 20.832C90.0869 21.0373 89.6319 21.14 89.1186 21.14ZM89.6716 19.985C89.8816 19.985 90.0892 19.9477 90.2946 19.873C90.4999 19.7937 90.6866 19.6887 90.8546 19.558C91.0226 19.4227 91.1556 19.2733 91.2536 19.11C91.3562 18.9467 91.4076 18.7763 91.4076 18.599V17.458L90.5186 17.472C90.0799 17.4767 89.6972 17.5233 89.3706 17.612C89.0439 17.7007 88.7872 17.843 88.6006 18.039C88.4186 18.2303 88.3276 18.487 88.3276 18.809C88.3276 19.1777 88.4559 19.467 88.7126 19.677C88.9692 19.8823 89.2889 19.985 89.6716 19.985ZM97.6913 21.14C96.7346 21.14 95.9833 20.811 95.4373 20.153C94.8913 19.495 94.6183 18.5593 94.6183 17.346C94.6183 16.59 94.7279 15.9343 94.9473 15.379C95.1713 14.819 95.4979 14.3873 95.9273 14.084C96.3613 13.776 96.8979 13.622 97.5373 13.622C97.8359 13.622 98.1066 13.6593 98.3493 13.734C98.5966 13.804 98.8159 13.8973 99.0073 14.014C99.1986 14.1307 99.3596 14.259 99.4903 14.399C99.6256 14.539 99.7306 14.679 99.8053 14.819V10.598H101.513V21H100.253L100.064 19.516C100.008 19.6887 99.9243 19.8707 99.8123 20.062C99.7049 20.2487 99.5579 20.4237 99.3713 20.587C99.1893 20.7503 98.9606 20.8833 98.6853 20.986C98.4099 21.0887 98.0786 21.14 97.6913 21.14ZM98.0413 19.887C98.6526 19.887 99.0983 19.6887 99.3783 19.292C99.6629 18.8907 99.8053 18.228 99.8053 17.304C99.8006 16.7767 99.7353 16.3333 99.6093 15.974C99.4879 15.6147 99.2989 15.344 99.0423 15.162C98.7903 14.98 98.4636 14.889 98.0623 14.889C97.5489 14.889 97.1266 15.078 96.7953 15.456C96.4639 15.834 96.2983 16.45 96.2983 17.304C96.2983 18.1533 96.4499 18.7973 96.7533 19.236C97.0566 19.67 97.4859 19.887 98.0413 19.887ZM106.449 13.622C107.014 13.622 107.511 13.734 107.94 13.958C108.37 14.182 108.713 14.4923 108.969 14.889C109.231 15.2857 109.387 15.736 109.438 16.24H107.982C107.95 16.0207 107.87 15.813 107.744 15.617C107.618 15.4163 107.448 15.2553 107.233 15.134C107.019 15.008 106.76 14.945 106.456 14.945C105.915 14.945 105.474 15.1457 105.133 15.547C104.797 15.9483 104.629 16.5643 104.629 17.395C104.629 18.1603 104.79 18.7693 105.112 19.222C105.434 19.6747 105.894 19.901 106.491 19.901C106.79 19.901 107.044 19.8357 107.254 19.705C107.469 19.5697 107.637 19.404 107.758 19.208C107.884 19.0073 107.966 18.8067 108.003 18.606H109.417C109.375 19.096 109.221 19.5323 108.955 19.915C108.694 20.2977 108.349 20.5987 107.919 20.818C107.495 21.0327 107.005 21.14 106.449 21.14C105.787 21.14 105.196 20.9953 104.678 20.706C104.165 20.412 103.761 19.9873 103.467 19.432C103.173 18.872 103.026 18.1977 103.026 17.409C103.026 16.6577 103.164 15.9997 103.439 15.435C103.715 14.8657 104.109 14.4223 104.622 14.105C105.136 13.783 105.745 13.622 106.449 13.622ZM112.99 21.14C112.528 21.14 112.112 21.056 111.744 20.888C111.38 20.7153 111.093 20.4703 110.883 20.153C110.677 19.831 110.575 19.4413 110.575 18.984C110.575 18.186 110.862 17.584 111.436 17.178C112.014 16.772 112.936 16.5597 114.201 16.541L115.279 16.513V16.023C115.279 15.6403 115.164 15.3417 114.936 15.127C114.712 14.9077 114.362 14.8003 113.886 14.805C113.536 14.8097 113.214 14.8937 112.92 15.057C112.63 15.2157 112.439 15.484 112.346 15.862H110.897C110.925 15.3673 111.067 14.9543 111.324 14.623C111.585 14.287 111.942 14.0373 112.395 13.874C112.847 13.706 113.37 13.622 113.963 13.622C114.653 13.622 115.216 13.713 115.65 13.895C116.084 14.077 116.403 14.3407 116.609 14.686C116.814 15.0267 116.917 15.4397 116.917 15.925V21H115.482L115.349 19.698C115.087 20.244 114.756 20.622 114.355 20.832C113.958 21.0373 113.503 21.14 112.99 21.14ZM113.543 19.985C113.753 19.985 113.96 19.9477 114.166 19.873C114.371 19.7937 114.558 19.6887 114.726 19.558C114.894 19.4227 115.027 19.2733 115.125 19.11C115.227 18.9467 115.279 18.7763 115.279 18.599V17.458L114.39 17.472C113.951 17.4767 113.568 17.5233 113.242 17.612C112.915 17.7007 112.658 17.843 112.472 18.039C112.29 18.2303 112.199 18.487 112.199 18.809C112.199 19.1777 112.327 19.467 112.584 19.677C112.84 19.8823 113.16 19.985 113.543 19.985ZM121.537 21.14C121.033 21.14 120.554 21.0607 120.102 20.902C119.654 20.7387 119.276 20.4843 118.968 20.139C118.664 19.7937 118.473 19.348 118.394 18.802H119.892C119.957 19.068 120.071 19.285 120.235 19.453C120.403 19.621 120.601 19.7447 120.83 19.824C121.058 19.8987 121.292 19.936 121.53 19.936C121.964 19.936 122.314 19.8613 122.58 19.712C122.85 19.5627 122.986 19.3317 122.986 19.019C122.986 18.7903 122.911 18.6083 122.762 18.473C122.612 18.3377 122.374 18.235 122.048 18.165L120.669 17.85C120.057 17.7147 119.565 17.4907 119.192 17.178C118.823 16.8653 118.636 16.4243 118.632 15.855C118.627 15.4257 118.734 15.043 118.954 14.707C119.173 14.371 119.5 14.1073 119.934 13.916C120.368 13.72 120.904 13.622 121.544 13.622C122.388 13.622 123.065 13.811 123.574 14.189C124.082 14.5623 124.344 15.0967 124.358 15.792H122.909C122.857 15.4793 122.71 15.2367 122.468 15.064C122.225 14.8867 121.91 14.798 121.523 14.798C121.121 14.798 120.792 14.875 120.536 15.029C120.279 15.183 120.151 15.4187 120.151 15.736C120.151 15.9553 120.249 16.128 120.445 16.254C120.641 16.38 120.935 16.4873 121.327 16.576L122.629 16.891C123.002 16.9843 123.308 17.1103 123.546 17.269C123.784 17.4277 123.97 17.6027 124.106 17.794C124.241 17.9807 124.334 18.1743 124.386 18.375C124.442 18.571 124.47 18.753 124.47 18.921C124.47 19.3877 124.348 19.7867 124.106 20.118C123.868 20.4447 123.529 20.6967 123.091 20.874C122.652 21.0513 122.134 21.14 121.537 21.14ZM130.025 14.966H128.408L128.415 19.117C128.415 19.3317 128.439 19.4903 128.485 19.593C128.537 19.691 128.616 19.7563 128.723 19.789C128.835 19.817 128.985 19.831 129.171 19.831H130.06V20.909C129.967 20.9463 129.825 20.979 129.633 21.007C129.447 21.0397 129.195 21.056 128.877 21.056C128.303 21.056 127.858 20.9813 127.54 20.832C127.228 20.678 127.011 20.461 126.889 20.181C126.768 19.901 126.707 19.5673 126.707 19.18V14.966H125.531V13.762H126.756L127.183 11.613H128.408V13.755H130.025V14.966ZM132.824 17.773C132.82 18.1837 132.885 18.5477 133.02 18.865C133.156 19.1823 133.356 19.432 133.622 19.614C133.888 19.7913 134.217 19.88 134.609 19.88C135.011 19.88 135.358 19.7913 135.652 19.614C135.951 19.432 136.149 19.1567 136.247 18.788H137.808C137.724 19.292 137.524 19.719 137.206 20.069C136.889 20.419 136.504 20.685 136.051 20.867C135.603 21.049 135.137 21.14 134.651 21.14C133.951 21.14 133.335 20.993 132.803 20.699C132.276 20.4003 131.863 19.9757 131.564 19.425C131.27 18.8743 131.123 18.2187 131.123 17.458C131.123 16.716 131.259 16.058 131.529 15.484C131.8 14.9053 132.19 14.4503 132.698 14.119C133.212 13.7877 133.828 13.622 134.546 13.622C135.26 13.622 135.86 13.7737 136.345 14.077C136.835 14.3803 137.204 14.805 137.451 15.351C137.703 15.8923 137.829 16.527 137.829 17.255V17.773H132.824ZM132.824 16.716H136.219C136.219 16.366 136.159 16.051 136.037 15.771C135.916 15.4863 135.729 15.2623 135.477 15.099C135.23 14.931 134.917 14.847 134.539 14.847C134.166 14.847 133.851 14.938 133.594 15.12C133.338 15.302 133.144 15.5377 133.013 15.827C132.883 16.1117 132.82 16.408 132.824 16.716ZM139.417 21V13.762H141.048V15.33C141.165 14.9707 141.331 14.665 141.545 14.413C141.765 14.1563 142.021 13.9603 142.315 13.825C142.609 13.6897 142.929 13.622 143.274 13.622C143.358 13.622 143.44 13.6267 143.519 13.636C143.599 13.6453 143.657 13.6617 143.694 13.685V15.316C143.643 15.2927 143.575 15.2763 143.491 15.267C143.412 15.2577 143.342 15.253 143.281 15.253C142.931 15.225 142.621 15.239 142.35 15.295C142.084 15.351 141.858 15.4467 141.671 15.582C141.489 15.7127 141.352 15.8807 141.258 16.086C141.165 16.2867 141.118 16.5223 141.118 16.793V21H139.417Z" fill="#3366FF"/>
</g>
<defs>
<filter id="filter0_i_141_163645" x="0.5" y="0" width="150" height="32" filterUnits="userSpaceOnUse" color-interpolation-filters="sRGB">
<feFlood flood-opacity="0" result="BackgroundImageFix"/>
<feBlend mode="normal" in="SourceGraphic" in2="BackgroundImageFix" result="shape"/>
<feColorMatrix in="SourceAlpha" type="matrix" values="0 0 0 0 0 0 0 0 0 0 0 0 0 0 0 0 0 0 127 0" result="hardAlpha"/>
<feMorphology radius="1" operator="erode" in="SourceAlpha" result="effect1_innerShadow_141_163645"/>
<feOffset/>
<feGaussianBlur stdDeviation="0.5"/>
<feComposite in2="hardAlpha" operator="arithmetic" k2="-1" k3="1"/>
<feColorMatrix type="matrix" values="0 0 0 0 0.568627 0 0 0 0 0.619608 0 0 0 0 0.670588 0 0 0 0.24 0"/>
<feBlend mode="normal" in2="shape" result="effect1_innerShadow_141_163645"/>
</filter>
</defs>
</svg>
