
<svg width="161" height="36" viewBox="0 0 161 36" fill="none" xmlns="http://www.w3.org/2000/svg">
<path fill-rule="evenodd" clip-rule="evenodd" d="M146.711 11.558C147.54 11.558 148.304 11.7097 149.005 12.0129C149.706 12.3162 150.274 12.7507 150.709 13.3164C150.922 13.5939 151.085 13.9002 151.2 14.2352C151.582 13.508 152.079 12.9368 152.69 12.5217C153.444 12.0085 154.342 11.7519 155.384 11.7519C156.937 11.7519 158.154 12.3205 159.034 13.4578C159.921 14.5892 160.364 16.196 160.364 18.278C160.364 20.3484 159.926 21.9493 159.051 23.0808C158.183 24.2063 156.957 24.7691 155.376 24.7691C153.794 24.7691 152.563 24.2063 151.682 23.0808C151.469 22.8063 151.281 22.5044 151.119 22.175C151.068 22.271 151.012 22.3655 150.952 22.4582C150.529 23.1114 149.944 23.6276 149.197 24.0067C148.449 24.3857 147.592 24.5753 146.624 24.5753C145.512 24.5753 144.553 24.3158 143.748 23.7967C143.021 23.3193 142.447 22.6707 142.027 21.8508C141.958 22.0563 141.869 22.2501 141.759 22.432C141.475 22.9102 141.081 23.3097 140.577 23.6305C140.079 23.9454 139.502 24.1816 138.848 24.3391C138.199 24.4965 137.51 24.5753 136.78 24.5753C135.708 24.5753 134.804 24.4062 134.068 24.0679C133.338 23.7296 132.782 23.2456 132.4 22.6157C132.018 21.9858 131.861 21.2972 131.761 20.3412H134.663C134.756 21.0419 135.021 21.5193 135.415 21.7934C135.815 22.0675 136.276 22.2045 136.797 22.2045C137.266 22.2045 137.669 22.1375 138.005 22.0033C138.341 21.8692 138.596 21.6855 138.77 21.4522C138.949 21.2189 139.039 20.9477 139.039 20.6386C139.039 20.347 138.952 20.0904 138.778 19.8688C138.61 19.6413 138.37 19.4635 138.057 19.3351C137.744 19.2068 137.379 19.1339 136.962 19.1164L135.737 19.0552V16.7282L136.823 16.6582C137.229 16.6349 137.576 16.5591 137.866 16.4308C138.161 16.3025 138.387 16.1304 138.544 15.9146C138.7 15.6988 138.778 15.4422 138.778 15.1448C138.778 14.8648 138.686 14.6257 138.5 14.4274C138.321 14.2291 138.08 14.0804 137.779 13.9813C137.478 13.8763 137.142 13.8238 136.771 13.8238C136.394 13.8238 136.053 13.8821 135.745 13.9988C135.444 14.1154 135.198 14.3108 135.007 14.5849C134.908 14.7317 134.857 15.032 134.768 15.5492C134.759 15.6016 134.749 15.6564 134.739 15.7134H131.828C131.85 15.5852 131.871 15.4609 131.891 15.3403C132.024 14.544 132.13 13.9095 132.513 13.3777C132.953 12.7595 133.55 12.3016 134.303 12.0042C135.062 11.7068 135.908 11.558 136.84 11.558C137.808 11.558 138.674 11.6776 139.439 11.9167C140.203 12.1558 140.806 12.532 141.246 13.0452C141.645 13.4989 141.866 14.0714 141.908 14.7628C141.916 14.7442 141.924 14.7258 141.932 14.7074C142.372 13.6926 142.998 12.914 143.809 12.3716C144.626 11.8292 145.593 11.558 146.711 11.558ZM141.39 16.6463C141.048 17.1102 140.473 17.4787 139.665 17.7517C140.093 17.8684 140.499 18.0521 140.881 18.3029C141.022 18.3952 141.153 18.4977 141.275 18.6106C141.273 18.5148 141.271 18.418 141.271 18.3204C141.271 17.7272 141.311 17.1692 141.39 16.6463ZM148.71 15.3722H150.74C150.551 16.0022 150.433 16.7054 150.385 17.4818C150.135 17.261 149.849 17.071 149.527 16.9119C148.878 16.5911 148.122 16.4308 147.259 16.4308C146.911 16.4308 146.572 16.4687 146.242 16.5445C145.912 16.6145 145.602 16.7194 145.312 16.8594C145.028 16.9994 144.782 17.1744 144.573 17.3843C144.492 16.7311 144.524 16.1392 144.669 15.6084C144.82 15.0777 145.075 14.6578 145.434 14.3487C145.793 14.0338 146.242 13.8763 146.781 13.8763C147.279 13.8763 147.687 13.9988 148.006 14.2437C148.325 14.4887 148.559 14.8648 148.71 15.3722ZM146.52 18.609C146.213 18.609 145.912 18.679 145.616 18.819C145.321 18.9531 145.077 19.1194 144.886 19.3176C144.695 19.5101 144.6 19.6996 144.6 19.8863C144.6 20.4112 144.678 20.8573 144.834 21.2247C144.996 21.5863 145.222 21.8634 145.512 22.0558C145.802 22.2424 146.135 22.3358 146.511 22.3358C146.859 22.3358 147.18 22.2541 147.476 22.0908C147.777 21.9217 148.018 21.6913 148.197 21.3997C148.377 21.1023 148.467 20.7669 148.467 20.3937C148.467 19.9796 148.374 19.6413 148.189 19.3789C148.009 19.1164 147.771 18.924 147.476 18.8015C147.18 18.6732 146.862 18.609 146.52 18.609ZM155.367 22.3722C156.056 22.3722 156.549 22.0631 156.844 21.4449C157.14 20.8266 157.287 19.7769 157.287 18.2955C157.287 16.7675 157.137 15.6798 156.836 15.0325C156.534 14.3851 156.045 14.0614 155.367 14.0614C154.689 14.0614 154.197 14.388 153.89 15.0412C153.583 15.6944 153.429 16.7792 153.429 18.2955C153.429 19.7652 153.58 20.8121 153.881 21.4361C154.188 22.0601 154.683 22.3722 155.367 22.3722Z" fill="#1465FA"/>
<path d="M156.126 26.5791C153.192 31.6311 147.747 35.0249 141.515 35.0249C137.708 35.0249 134.195 33.7586 131.369 31.6216L125.715 33.0979L127.32 27.2583C125.601 24.5933 124.603 21.4139 124.603 17.9997C124.603 8.59702 132.175 0.974609 141.515 0.974609C147.903 0.974609 153.464 4.54013 156.341 9.80214C156.113 9.77569 155.879 9.76247 155.642 9.76247C154.405 9.76247 153.335 10.1133 152.431 10.8151C151.946 11.1948 151.52 11.6639 151.155 12.2225C149.198 8.9196 145.613 6.70738 141.515 6.70738C135.32 6.70738 130.298 11.7631 130.298 17.9997C130.298 24.2363 135.32 29.2921 141.515 29.2921C143.62 29.2921 145.59 28.7084 147.273 27.693L151.312 28.7479L150.291 25.0332C150.537 24.7228 150.767 24.3991 150.98 24.0633C151.365 24.6733 151.827 25.1845 152.364 25.5969C153.255 26.2684 154.315 26.6042 155.545 26.6042C155.743 26.6042 155.936 26.5958 156.126 26.5791Z" fill="#1465FA"/>
<path d="M32.6751 18.1383C32.6751 20.1725 32.6751 22.2562 32.6751 24.2904C32.6751 24.6377 32.5765 24.6873 32.2808 24.6873C30.9995 24.6873 29.6688 24.6873 28.3874 24.6873C28.0917 24.6873 28.0424 24.5881 28.0424 24.34C28.0424 22.8516 28.0424 21.3632 28.0424 19.8748C28.0424 19.5771 27.9931 19.5275 27.6974 19.5275C25.7754 19.5275 23.804 19.5275 21.8819 19.5275C21.5862 19.5275 21.537 19.6267 21.537 19.8748C21.537 21.3632 21.537 22.8516 21.537 24.2904C21.537 24.6377 21.4384 24.6873 21.1427 24.6873C19.8613 24.6873 18.5306 24.6873 17.2492 24.6873C17.0028 24.6873 16.9043 24.6377 16.9043 24.34C16.9043 20.2221 16.9043 16.0545 16.9043 11.9365C16.9043 11.6389 17.0028 11.5396 17.2985 11.5892C18.5799 11.5892 19.9106 11.5892 21.192 11.5892C21.4877 11.5892 21.5862 11.6389 21.5862 11.9365C21.5862 13.425 21.5862 14.8638 21.5862 16.3522C21.5862 16.6003 21.6355 16.6995 21.9312 16.6995C23.9026 16.6995 25.8247 16.6995 27.796 16.6995C28.0424 16.6995 28.141 16.6499 28.141 16.3522C28.141 14.8638 28.141 13.3753 28.141 11.9365C28.141 11.6885 28.1903 11.5892 28.486 11.5892C29.8167 11.5892 31.1473 11.5892 32.478 11.5892C32.7737 11.5892 32.823 11.6389 32.823 11.9365C32.6751 14.0203 32.6751 16.0545 32.6751 18.1383Z" fill="#1465FA"/>
<path d="M99.652 24.6874C98.1735 24.6377 96.3499 24.7866 94.5757 24.6377C93.7379 24.5385 92.9001 24.3897 92.1115 23.9928C91.323 23.5462 90.9287 22.8516 90.9287 21.9586C90.9287 19.5275 90.9287 17.0964 90.9287 14.6653C90.9287 13.4746 91.4708 12.6808 92.5058 12.1846C93.2451 11.8373 94.0829 11.6885 94.9207 11.6885C98.1735 11.6389 101.475 11.6885 104.728 11.6389C104.975 11.6389 105.024 11.7381 105.024 11.9366C105.024 12.6808 105.024 13.425 105.024 14.1196C105.024 14.4173 104.925 14.4669 104.679 14.4669C102.116 14.4669 99.5534 14.4669 96.9906 14.4669C96.8921 14.4669 96.7442 14.4669 96.6457 14.4669C95.7586 14.6157 95.5614 14.8142 95.6107 15.7072C95.6107 16.0049 95.5121 16.4514 95.66 16.6499C95.8571 16.8484 96.3007 16.6995 96.5964 16.6995C97.8285 16.6995 99.0113 16.6995 100.243 16.6995C100.49 16.6995 100.539 16.7491 100.539 16.9972C100.539 17.7414 100.539 18.4856 100.539 19.2298C100.539 19.4779 100.441 19.5275 100.194 19.5275C98.8142 19.5275 97.4342 19.5275 96.0542 19.5275C95.5121 19.5275 95.6107 19.4779 95.6107 20.0236C95.6107 20.3213 95.6107 20.619 95.6107 20.9663C95.6107 21.3632 95.8078 21.6113 96.2021 21.7601C96.4485 21.8594 96.7442 21.909 97.0399 21.909C99.6027 21.909 102.116 21.909 104.679 21.909C104.975 21.909 105.073 22.0082 105.073 22.3059C105.073 23.0005 105.073 23.7447 105.073 24.4393C105.073 24.6874 105.024 24.7866 104.728 24.7866C103.102 24.6874 101.574 24.6874 99.652 24.6874Z" fill="#1465FA"/>
<path d="M44.0104 15.0126C43.3698 16.4018 42.7784 17.7413 42.1377 19.0313C41.2998 20.8174 40.5113 22.6035 39.6735 24.3896C39.5749 24.6377 39.427 24.6873 39.1806 24.6873C37.7021 24.6873 36.2236 24.6873 34.6958 24.6873C34.6465 24.5385 34.6958 24.4888 34.7451 24.3896C36.6671 20.6686 38.5892 16.9475 40.5113 13.2265C41.2013 12.135 42.1869 11.6884 43.3698 11.5396C44.2076 11.4404 45.0947 11.4404 45.9325 11.6884C46.8689 11.9365 47.6082 12.4823 48.0517 13.3753C49.9245 17.0467 51.8466 20.7182 53.7687 24.3896C53.9165 24.6873 53.9165 24.7369 53.5715 24.7369C52.1916 24.7369 50.7623 24.7369 49.3824 24.7369C49.136 24.7369 48.9881 24.6377 48.8896 24.4392C47.3125 21.4128 45.7354 18.3367 44.1583 15.3103C44.1583 15.211 44.109 15.1118 44.0104 15.0126Z" fill="#1465FA"/>
<path d="M8.67387 11.5893C10.3988 11.5893 12.0745 11.5893 13.7994 11.5893C14.0458 11.5893 14.1444 11.6389 14.1444 11.9366C14.1444 12.6312 14.1444 13.3754 14.1444 14.07C14.1444 14.3677 14.0951 14.4669 13.7994 14.4669C11.2366 14.4669 8.62458 14.4669 6.06182 14.4669C5.91397 14.4669 5.71683 14.4669 5.56898 14.5165C4.879 14.6157 4.73115 14.8142 4.73115 15.5088C4.73115 17.2453 4.73115 18.9818 4.73115 20.6687C4.73115 21.6113 5.02685 21.8594 5.91397 21.909C6.50537 21.909 7.0475 21.909 7.6389 21.909C9.65955 21.909 11.7295 21.909 13.7501 21.909C14.0951 21.909 14.1444 22.0082 14.1444 22.3059C14.1444 23.0501 14.1444 23.7447 14.1444 24.4889C14.1444 24.6874 14.0951 24.7866 13.8487 24.7866C10.6452 24.7866 7.39248 24.7866 4.18903 24.7866C3.25263 24.7866 2.31624 24.5385 1.47841 24.1416C0.542016 23.6951 -0.000106812 22.9509 -0.000106812 21.8594C-0.000106812 19.4283 -0.000106812 16.9972 0.0491771 14.5661C0.0491771 12.78 0.788436 12.0854 2.46409 11.7878C3.59762 11.5893 4.78044 11.5893 5.91397 11.5893C6.85036 11.5893 7.73747 11.5893 8.67387 11.5893Z" fill="#1465FA"/>
<path d="M107.685 16.6995C107.685 15.1119 107.685 13.5242 107.685 11.9366C107.685 11.6885 107.735 11.5893 108.03 11.5893C109.361 11.5893 110.692 11.5893 112.022 11.5893C112.318 11.5893 112.367 11.6885 112.367 11.9862C112.367 15.0127 112.367 18.0391 112.367 21.0159C112.367 21.5617 112.466 21.7105 113.057 21.8098C113.254 21.8594 113.402 21.8594 113.599 21.8594C116.211 21.8594 118.774 21.8594 121.386 21.8594C121.682 21.8594 121.781 21.909 121.781 22.2067C121.731 22.9509 121.781 23.6951 121.781 24.4393C121.781 24.6378 121.731 24.6874 121.534 24.6874C118.626 24.6874 115.768 24.6874 112.86 24.6874C111.924 24.6874 110.987 24.5882 110.051 24.3401C108.425 23.8936 107.735 23.0005 107.735 21.3136C107.685 19.7756 107.685 18.2376 107.685 16.6995Z" fill="#1465FA"/>
<path d="M44.109 18.2376C44.7004 19.4283 45.2918 20.5198 45.8832 21.6609C45.9818 21.8594 45.8832 21.8594 45.7354 21.8594C44.7497 21.8594 43.7147 21.8594 42.7291 21.8594C42.5812 21.8594 42.5319 21.8098 42.5812 21.6609C43.074 20.5198 43.5669 19.4283 44.109 18.2376Z" fill="#1465FA"/>
<path d="M72.053 21.3632C71.9544 21.0655 71.8066 20.8174 71.708 20.5197C71.5109 20.0732 71.3137 19.6267 71.0673 19.2298C70.673 18.3367 70.2788 17.3941 69.7859 16.5506L68.1595 13.028C67.8638 12.9784 68.0117 13.1769 68.0117 13.2761C68.0117 15.5583 68.0117 17.8902 68.0117 20.1724C68.0117 20.3709 68.061 20.5197 67.9624 20.6686C67.7653 20.2221 67.5189 19.7755 67.3217 19.329C67.1739 18.9817 67.026 18.684 66.8782 18.3367C66.5332 17.5925 66.1389 16.7987 65.7939 16.0545L64.5125 13.4249C64.069 12.5815 63.4776 11.8869 62.5412 11.5892C62.1962 11.3908 61.8019 11.3412 61.4076 11.2419C60.767 11.1923 60.077 11.0931 59.4363 11.2419C58.8449 11.1923 58.3028 11.3908 57.7606 11.5892C57.5142 11.6885 57.2185 11.7877 56.9721 11.9861C56.775 12.0854 56.5778 12.2342 56.43 12.4327C56.0357 12.78 55.8386 13.2265 55.8878 13.7722C55.8878 14.0203 55.8878 14.2684 55.8878 14.4668V15.608C55.8878 16.0545 55.8878 16.501 55.8878 16.9475C55.8878 17.1956 55.8878 17.4437 55.8878 17.6421V18.8329C55.8878 19.1802 55.8878 19.4778 55.8878 19.8251C55.8878 20.1724 55.8878 20.4701 55.8878 20.8174C55.8878 21.3632 55.8878 21.9585 55.8878 22.5043C55.8878 23.0501 55.8878 23.5958 55.8878 24.1416C55.8878 24.3896 55.9864 24.3896 56.1835 24.3896C56.8242 24.3896 57.4156 24.3896 58.0071 24.2408C58.3028 24.1912 58.5985 24.1416 58.8449 23.9431C59.042 23.8935 59.2392 23.7943 59.387 23.6454C59.5349 23.5462 59.7813 23.4966 59.8306 23.2485C60.2248 23.0501 60.3727 22.7028 60.5205 22.3058C60.6191 22.157 60.5698 21.9089 60.6684 21.7601C60.7177 21.6609 60.7177 21.512 60.7177 21.3632C60.7177 19.3786 60.7177 17.4437 60.7177 15.4591C60.7177 15.3103 60.7177 15.1614 60.6684 15.0622C60.8162 14.963 60.8162 15.1118 60.8655 15.2111C61.1119 15.7568 61.3584 16.2529 61.6541 16.7987C62.0976 17.7414 62.5412 18.684 62.9847 19.6267C63.379 20.4701 63.7733 21.264 64.1183 22.1074C64.8082 23.695 66.0896 24.34 67.716 24.4392C67.8146 24.4889 67.9624 24.4889 68.1103 24.4889C68.5538 24.4889 68.9974 24.4889 69.4409 24.4889C69.4902 24.4889 69.4902 24.4889 69.5395 24.4889C70.0323 24.4392 70.4759 24.34 70.9194 24.1912C71.2151 24.0423 71.5108 23.8935 71.7573 23.7943C72.1023 23.5958 72.2994 23.2981 72.398 22.9508C72.6937 22.3555 72.3487 21.8593 72.053 21.3632ZM87.5281 11.4404C86.986 11.4404 86.3946 11.3908 85.8525 11.5396C85.3596 11.5892 84.9161 11.7381 84.4725 11.9861H84.5218C84.5218 11.9861 84.5218 11.9861 84.4725 11.9861C84.4725 11.9861 84.4725 11.9861 84.4232 11.9861C84.029 12.135 83.684 12.3831 83.4376 12.6807C83.2404 12.8296 83.0926 13.0777 82.994 13.3257C82.5997 13.9211 82.6983 14.6157 82.7476 15.2607C82.7476 15.8064 82.7476 16.3522 82.7476 16.8979C82.7476 17.2948 82.7476 17.6421 82.7476 18.039C82.7476 18.2871 82.7476 18.5352 82.7476 18.7336C82.7476 19.1802 82.7476 19.5771 82.7476 20.0236C82.7476 20.2717 82.7476 20.5694 82.7476 20.8174C82.5997 20.867 82.5997 20.7182 82.5505 20.6686C82.2548 20.1228 82.0083 19.5771 81.7619 19.0313C81.6633 18.8329 81.6141 18.5848 81.4662 18.436C81.1705 17.7414 80.8748 17.0468 80.4805 16.3522C80.0863 15.5087 79.692 14.7149 79.347 13.8715C78.6077 12.135 77.2278 11.5396 75.5028 11.49C75.0593 11.3412 74.6157 11.4404 74.1722 11.4404C73.6793 11.49 73.1865 11.5396 72.743 11.6885C72.6444 11.7381 72.5458 11.7381 72.398 11.7877C72.053 11.9861 71.6587 12.0854 71.363 12.4327C71.2644 12.4823 71.2152 12.5815 71.2644 12.7304C70.9195 13.2761 70.7716 13.8219 71.1166 14.4172C71.2151 14.6157 71.3137 14.8141 71.4123 15.0126C71.7573 15.7072 72.053 16.4514 72.4472 17.146C72.8908 18.1879 73.3836 19.1802 73.8765 20.1724C74.2708 21.0655 74.7143 21.9585 75.1579 22.8516C75.1579 23.0004 75.2071 23.0997 75.355 23.1989C75.355 23.1493 75.4043 23.0997 75.4043 23.0501C75.4043 20.4701 75.4043 17.8902 75.4043 15.2607C75.7 15.7072 75.8971 16.2033 76.0943 16.6499C76.2421 16.9475 76.3407 17.2452 76.4885 17.4933C76.9814 18.4856 77.4249 19.5275 77.967 20.5197C78.1642 21.1647 78.5585 21.7105 78.8049 22.3555C79.347 23.6454 80.2834 24.3896 81.6141 24.6873C81.9591 24.6873 82.304 24.8362 82.6983 24.8362C83.0926 24.8362 83.4376 24.8362 83.8318 24.8362C83.8811 24.8362 83.8811 24.8362 83.9304 24.8362C84.3247 24.7865 84.6697 24.7865 85.0639 24.6377C85.5075 24.5881 85.9018 24.3896 86.2467 24.1912C86.641 24.0423 86.9367 23.7943 87.2324 23.447C87.331 23.3477 87.4296 23.2485 87.4788 23.0997C87.676 22.802 87.676 22.4547 87.676 22.1074C87.676 18.684 87.676 15.3103 87.676 11.8869C87.6267 11.6885 87.676 11.5396 87.5281 11.4404Z" fill="#1465FA"/>
</svg>
