<svg width="96" height="96" viewBox="0 0 96 96" fill="none" xmlns="http://www.w3.org/2000/svg">
<path d="M80.4761 15.9983C78.4763 13.9983 31.9319 51.8311 28.2075 59.6501C28.2075 59.6501 28.0521 88.8991 33.4177 89.7435C36.3205 89.7435 41.6447 74.3333 42.7663 70.9879C42.9097 70.5603 43.1059 70.1837 43.3793 69.8249C55.0759 54.4821 82.4529 17.9753 80.4761 15.9983Z" fill="#1939B7"/>
<path d="M11.1672 39.0989C8.65667 40.8149 8.56069 44.0419 10.8482 46.0457C13.9083 48.726 19.2201 53.0631 28.207 59.6654C28.2071 59.6564 28.2071 59.6519 28.2071 59.6519C31.9315 51.8329 78.4759 14.0002 80.4757 16.0002C82.4525 17.9772 55.0755 54.4839 43.3789 69.8267C43.1055 70.1855 42.9093 70.5621 42.7659 70.9897C41.6843 74.2158 36.6946 88.6612 33.7369 89.6877C40.0619 88.4685 46.3589 83.4096 52.1943 76.4228C59.5974 81.3099 64.8374 84.457 68.0228 86.2839C70.2514 87.5621 72.9852 87.0873 74.1568 84.8009C80.9214 71.5993 88.5442 32.4781 89.978 11.9828C90.2092 8.67713 87.531 6.03095 84.2714 6.62737C63.9762 10.3409 25.0572 29.6039 11.1672 39.0989Z" fill="#3366FF"/>
<path d="M33.4173 89.7453C33.4172 89.7451 33.4174 89.7455 33.4173 89.7453V89.7453Z" fill="#3366FF"/>
<g style="mix-blend-mode:overlay" filter="url(#filter0_i_1690_292261)">
<path d="M11.1672 39.0989C8.65667 40.8149 8.56069 44.0419 10.8482 46.0457C13.9083 48.726 19.2201 53.0631 28.207 59.6654C28.2071 59.6564 28.2071 59.6519 28.2071 59.6519C31.9315 51.8329 78.4759 14.0002 80.4757 16.0002C82.4525 17.9772 55.0755 54.4839 43.3789 69.8267C43.1055 70.1855 42.9093 70.5621 42.7659 70.9897C41.6843 74.2158 36.6946 88.6612 33.7369 89.6877C40.0619 88.4685 46.3589 83.4096 52.1943 76.4228C59.5974 81.3099 64.8374 84.457 68.0228 86.2839C70.2514 87.5621 72.9852 87.0873 74.1568 84.8009C80.9214 71.5993 88.5442 32.4781 89.978 11.9828C90.2092 8.67713 87.531 6.03095 84.2714 6.62737C63.9762 10.3409 25.0572 29.6039 11.1672 39.0989Z" fill="white" fill-opacity="0.04"/>
<path d="M33.4173 89.7453C33.4172 89.7451 33.4174 89.7455 33.4173 89.7453V89.7453Z" fill="white" fill-opacity="0.04"/>
</g>
<defs>
<filter id="filter0_i_1690_292261" x="7.20508" y="4.54297" width="82.7871" height="85.2031" filterUnits="userSpaceOnUse" color-interpolation-filters="sRGB">
<feFlood flood-opacity="0" result="BackgroundImageFix"/>
<feBlend mode="normal" in="SourceGraphic" in2="BackgroundImageFix" result="shape"/>
<feColorMatrix in="SourceAlpha" type="matrix" values="0 0 0 0 0 0 0 0 0 0 0 0 0 0 0 0 0 0 127 0" result="hardAlpha"/>
<feOffset dx="-2" dy="-2"/>
<feGaussianBlur stdDeviation="2"/>
<feComposite in2="hardAlpha" operator="arithmetic" k2="-1" k3="1"/>
<feColorMatrix type="matrix" values="0 0 0 0 0 0 0 0 0 0 0 0 0 0 0 0 0 0 0.4 0"/>
<feBlend mode="normal" in2="shape" result="effect1_innerShadow_1690_292261"/>
</filter>
</defs>
</svg>
