<svg width="24" height="24" viewBox="0 0 24 24" fill="none" xmlns="http://www.w3.org/2000/svg">
<path opacity="0.32" d="M3.77688 21.3755C2.93261 21.1957 2.36966 20.5161 2.28099 19.6575C2.14952 18.3844 2 16.0469 2 12C2 7.95305 2.14952 5.6156 2.28099 4.34251C2.36966 3.48389 2.93261 2.80424 3.77688 2.62451C5.1095 2.34081 7.6216 2 12 2C16.3784 2 18.8905 2.34081 20.2231 2.62451C21.0674 2.80424 21.6304 3.48389 21.719 4.34251C21.8505 5.6156 22 7.95305 22 12C22 16.0469 21.8505 18.3844 21.719 19.6575C21.6304 20.5161 21.0674 21.1957 20.2232 21.3755C18.8905 21.6592 16.3784 22 12 22C7.6216 22 5.1095 21.6592 3.77688 21.3755Z" fill="#637381"/>
<path d="M4.26223 9.02483V9.04938C4.26135 9.20277 4.20597 9.35085 4.10598 9.46716V9.46903C3.90509 9.70638 3.66699 10.1312 3.66699 10.8105C3.66699 11.4262 3.86416 11.8608 4.10152 12.1465C4.20565 12.2732 4.26247 12.4322 4.26223 12.5963C4.26223 12.912 4.38766 13.2148 4.61091 13.438C4.83417 13.6613 5.13697 13.7867 5.45271 13.7867H5.75033C5.82926 13.7867 5.90496 13.7554 5.96077 13.6996C6.01659 13.6437 6.04794 13.568 6.04794 13.4891V8.13197C6.04794 8.05304 6.01659 7.97734 5.96077 7.92152C5.90496 7.86571 5.82926 7.83435 5.75033 7.83435H5.45271C5.13697 7.83435 4.83417 7.95978 4.61091 8.18304C4.38766 8.40629 4.26223 8.70909 4.26223 9.02483ZM19.2987 9.41731L19.2641 9.41099C19.2301 9.4045 19.1994 9.38634 19.1773 9.35965C19.1552 9.33296 19.1432 9.29941 19.1432 9.26478V4.78376C19.1432 4.31352 18.8311 3.8909 18.366 3.73019C17.9226 3.57728 17.4605 3.70191 17.1875 4.04752C16.6065 4.74121 15.968 5.3845 15.2786 5.97051C14.3995 6.71456 13.5584 7.2447 12.786 7.54455C12.7297 7.56602 12.6812 7.60409 12.647 7.65371C12.6128 7.70333 12.5945 7.76217 12.5944 7.82245V13.6007C12.5945 13.7171 12.6287 13.8309 12.6928 13.928C12.7569 14.0251 12.848 14.1013 12.9549 14.1472C13.6744 14.4556 14.452 14.9594 15.2615 15.6457C15.9561 16.2371 16.5992 16.8862 17.1841 17.5862C17.2778 17.7038 17.3974 17.7981 17.5336 17.8618C17.6697 17.9255 17.8188 17.9568 17.9691 17.9534C18.1012 17.9528 18.2323 17.931 18.3575 17.8887C18.8348 17.7302 19.1432 17.3228 19.1432 16.8522V12.3556C19.1432 12.3204 19.1557 12.2865 19.1783 12.2596C19.201 12.2328 19.2324 12.2149 19.2671 12.209L19.2987 12.2038C19.6566 12.1067 20.3337 11.6911 20.3337 10.8105C20.3337 9.92996 19.6566 9.51441 19.2987 9.41731Z" fill="#637381"/>
<path d="M20.3335 10.7984C20.3335 11.6094 19.6911 12.2669 19.152 12.2669C19.152 11.4559 19.1576 9.35833 19.1576 9.35833C19.7188 9.40832 20.3335 9.98734 20.3335 10.7984Z" fill="#637381"/>
<path d="M11.4054 14.3818V8.13185C11.4054 8.05291 11.3741 7.97721 11.3183 7.9214C11.2625 7.86558 11.1868 7.83423 11.1078 7.83423H7.53639C7.45746 7.83423 7.38175 7.86558 7.32594 7.9214C7.27013 7.97721 7.23877 8.05291 7.23877 8.13185V19.4414C7.23877 19.6782 7.33284 19.9053 7.50028 20.0727C7.66772 20.2402 7.89483 20.3342 8.13163 20.3342H10.0829C10.2684 20.3358 10.4517 20.2948 10.619 20.2146C10.7862 20.1343 10.9328 20.0168 11.0475 19.8711C11.1652 19.7202 11.2444 19.543 11.2781 19.3547C11.3119 19.1664 11.2993 18.9727 11.2414 18.7903C11.1811 18.5976 11.1063 18.3811 11.0267 18.1508C10.7324 17.2989 10.3444 16.7717 10.241 15.572C10.5521 15.5651 10.8482 15.4368 11.0659 15.2143C11.2835 14.9919 11.4054 14.6931 11.4054 14.3818Z" fill="#637381"/>
</svg>
