
<svg width="24" height="24" viewBox="0 0 24 24" fill="none" xmlns="http://www.w3.org/2000/svg">
<path opacity="0.32" fill-rule="evenodd" clip-rule="evenodd" d="M3.77688 21.3755C2.93261 21.1957 2.36966 20.5161 2.28099 19.6575C2.14952 18.3844 2 16.0469 2 12C2 7.95305 2.14952 5.6156 2.28099 4.34251C2.36966 3.48389 2.93261 2.80424 3.77688 2.62451C5.1095 2.34081 7.6216 2 12 2C16.3784 2 18.8905 2.34081 20.2231 2.62451C21.0674 2.80424 21.6304 3.48389 21.719 4.34251C21.8505 5.6156 22 7.95305 22 12C22 16.0469 21.8505 18.3844 21.719 19.6575C21.6304 20.5161 21.0674 21.1957 20.2232 21.3755C18.8905 21.6592 16.3784 22 12 22C7.6216 22 5.1095 21.6592 3.77688 21.3755ZM11.3844 13.3559C12.7092 12.6583 13.6125 11.268 13.6125 9.66665C13.6125 7.3655 11.747 5.5 9.44585 5.5C7.1447 5.5 5.2792 7.3655 5.2792 9.66665C5.2792 11.268 6.18255 12.6584 7.50745 13.356C5.7332 14.0319 4.37845 15.6092 3.9588 17.5529C3.90075 17.8219 4.04875 18.098 4.3197 18.1471C5.2921 18.3231 6.90245 18.5 9.4469 18.5C11.9913 18.5 13.6016 18.3231 14.574 18.1471C14.844 18.0983 14.9916 17.8231 14.9338 17.5551C14.5147 15.6103 13.1595 14.0321 11.3844 13.3559ZM12.9105 6.45649C12.9703 6.45353 13.0304 6.45203 13.0909 6.45203C15.0706 6.45203 16.6755 8.05689 16.6755 10.0365C16.6755 11.4141 15.8984 12.6102 14.7587 13.2103C16.2858 13.792 17.4517 15.1498 17.8122 16.8229C17.8619 17.0535 17.7349 17.2901 17.5027 17.3321C17.0663 17.4111 16.4806 17.4903 15.7094 17.548C15.8589 17.265 15.9007 16.9327 15.8379 16.6416C15.5225 15.1783 14.6772 13.9139 13.5119 13.0832C14.2608 12.2881 14.7205 11.2163 14.7205 10.0365C14.7205 8.56801 14.0083 7.26581 12.9105 6.45649ZM16.2898 7.09717C16.2354 7.09717 16.1813 7.0985 16.1276 7.10112C17.1145 7.81632 17.7546 8.96709 17.7546 10.2649C17.7546 11.3075 17.3413 12.2546 16.6682 12.9572C17.7157 13.6914 18.4756 14.8087 18.7591 16.1019C18.8155 16.3591 18.778 16.6527 18.6436 16.9028C19.3368 16.8518 19.8633 16.7819 20.2555 16.7121C20.4643 16.6749 20.5784 16.4658 20.5337 16.262C20.2096 14.7835 19.1617 13.5836 17.789 13.0696C18.8134 12.5392 19.512 11.4822 19.512 10.2649C19.512 8.51541 18.0694 7.09717 16.2898 7.09717Z" fill="#637381"/>
<path d="M11.3844 13.3559C12.7092 12.6583 13.6125 11.268 13.6125 9.66665C13.6125 7.3655 11.747 5.5 9.44585 5.5C7.1447 5.5 5.2792 7.3655 5.2792 9.66665C5.2792 11.268 6.18255 12.6584 7.50745 13.356C5.7332 14.0319 4.37845 15.6092 3.9588 17.5529C3.90075 17.8219 4.04875 18.0981 4.3197 18.1471C5.2921 18.3231 6.90245 18.5 9.4469 18.5C11.9913 18.5 13.6016 18.3231 14.574 18.1471C14.844 18.0983 14.9916 17.8231 14.9338 17.5551C14.5147 15.6103 13.1595 14.0321 11.3844 13.3559Z" fill="#637381"/>
<path d="M12.9105 6.45649C12.9703 6.45353 13.0304 6.45203 13.0909 6.45203C15.0706 6.45203 16.6755 8.05689 16.6755 10.0365C16.6755 11.4141 15.8984 12.6102 14.7587 13.2103C16.2858 13.792 17.4517 15.1498 17.8122 16.8229C17.8619 17.0535 17.7349 17.2901 17.5027 17.3321C17.0663 17.4111 16.4806 17.4903 15.7094 17.548C15.8589 17.265 15.9007 16.9327 15.8379 16.6416C15.5225 15.1783 14.6772 13.9139 13.5119 13.0832C14.2608 12.2881 14.7205 11.2163 14.7205 10.0365C14.7205 8.56801 14.0083 7.26581 12.9105 6.45649Z" fill="#637381"/>
<path d="M16.1276 7.10112C16.1813 7.0985 16.2354 7.09717 16.2898 7.09717C18.0694 7.09717 19.512 8.51541 19.512 10.2649C19.512 11.4822 18.8134 12.5392 17.789 13.0696C19.1617 13.5836 20.2096 14.7835 20.5337 16.262C20.5784 16.4658 20.4643 16.6749 20.2555 16.7121C19.8633 16.7819 19.3368 16.8518 18.6436 16.9028C18.778 16.6527 18.8155 16.3591 18.7591 16.1019C18.4756 14.8087 17.7157 13.6914 16.6682 12.9572C17.3413 12.2546 17.7546 11.3075 17.7546 10.2649C17.7546 8.96709 17.1145 7.81632 16.1276 7.10112Z" fill="#637381"/>
</svg>
