
<svg width="24" height="24" viewBox="0 0 24 24" fill="none" xmlns="http://www.w3.org/2000/svg">
<g opacity="0.32">
<path d="M7.0303 8.84876C7.0303 8.84876 7.78221 4.56978 9.21976 8.84876H7.0303Z" fill="#3366FF"/>
<path d="M9.21976 8.84876C9.21976 8.84876 9.69842 6.93688 10.7536 8.84876H9.21976Z" fill="#3366FF"/>
<path fill-rule="evenodd" clip-rule="evenodd" d="M11.0115 8.15011C10.8467 8.5281 10.7536 8.84876 10.7536 8.84876H13.4341H14.9754C13.9202 6.93688 13.4341 8.84876 13.4341 8.84876C13.1041 7.86665 12.7845 7.33537 12.4877 7.0997C12.4957 7.03326 12.4998 6.96376 12.4998 6.89122C12.4998 6.05031 11.8103 5.61809 11.2267 5.61809C10.6431 5.61809 9.95358 6.07267 9.95358 6.89122C9.95358 7.62587 10.4009 8.06733 11.0115 8.15011ZM11.0115 8.15011C11.0813 8.15957 11.1531 8.16435 11.2267 8.16435C11.8826 8.16435 12.4028 7.80349 12.4877 7.0997C11.8454 6.58967 11.3105 7.46425 11.0115 8.15011Z" fill="#3366FF"/>
<path fill-rule="evenodd" clip-rule="evenodd" d="M18.6831 8.49995C17.8732 8.50073 17.0578 8.39503 16.3035 8.1646C15.6828 7.97495 15.1988 7.4914 14.9893 6.8771C14.4674 5.34677 14.3385 3.47362 14.722 2.0318C13.9279 2.01186 13.0248 2 12 2C8.51575 2 6.43945 2.13682 5.26285 2.26379C4.39116 2.35785 3.71902 2.94826 3.5558 3.80967C3.30175 5.15055 3 7.65725 3 12C3 16.3428 3.30175 18.8494 3.5558 20.1903C3.71902 21.0518 4.39116 21.6422 5.26285 21.7362C6.43945 21.8631 8.51575 22 12 22C15.4843 22 17.5606 21.8631 18.7372 21.7362C19.6089 21.6422 20.281 21.0518 20.4442 20.1903C20.6982 18.8494 21 16.3428 21 12C21 10.5445 20.9661 9.29528 20.9114 8.22705C20.2113 8.40313 19.4497 8.49925 18.6831 8.49995ZM14.0004 16.5C14.5527 16.5 15.0004 16.9477 15.0004 17.5C15.0004 18.0523 14.5527 18.5 14.0004 18.5H10.0004C9.44811 18.5 9.00041 18.0523 9.00041 17.5C9.00041 16.9477 9.44811 16.5 10.0004 16.5H14.0004ZM14.0733 3.80241H7.0003C6.52635 3.80359 6.3106 4.02642 6.32065 4.53478L6.32077 8.64141C6.32077 9.32952 6.62364 9.75055 7.35852 9.75055L16.2981 9.75044C16.51 9.75044 16.6819 9.57863 16.6819 9.3667V8.7014C16.4908 8.65786 16.3022 8.60788 16.1169 8.55127C15.4133 8.33632 14.8648 7.78825 14.6273 7.09198C14.2789 6.07048 14.085 4.91422 14.0733 3.80241ZM15.0004 12.1253C15.5527 12.1253 16.0004 12.573 16.0004 13.1253C16.0004 13.6776 15.5527 14.1253 15.0004 14.1253H8.00041C7.44811 14.1253 7.00041 13.6776 7.00041 13.1253C7.00041 12.573 7.44811 12.1253 8.00041 12.1253H15.0004Z" fill="#3366FF"/>
</g>
<path d="M15.0004 17.4995C15.0004 16.9472 14.5527 16.4995 14.0004 16.4995H10.0004C9.44811 16.4995 9.00041 16.9472 9.00041 17.4995C9.00041 18.0518 9.44811 18.4995 10.0004 18.4995H14.0004C14.5527 18.4995 15.0004 18.0518 15.0004 17.4995Z" fill="#3366FF"/>
<path d="M20.9119 8.22646C19.4721 8.58861 17.7722 8.61266 16.304 8.16411C15.6832 7.97446 15.1992 7.49091 14.9897 6.87661C14.4678 5.34626 14.3389 3.47308 14.7225 2.03125C14.7225 2.03125 15.9466 2.49945 18.1966 4.74945C20.4466 6.99946 20.9119 8.22646 20.9119 8.22646Z" fill="#3366FF"/>
<path fill-rule="evenodd" clip-rule="evenodd" d="M14.0733 3.80192H7.0003C6.52635 3.8031 6.3106 4.02593 6.32065 4.53429L6.32077 8.64092C6.32077 9.32903 6.62364 9.75006 7.35852 9.75006L16.2981 9.74995C16.51 9.74995 16.6819 9.57815 16.6819 9.36621V8.70091C16.4908 8.65737 16.3022 8.6074 16.1169 8.55078C15.4133 8.33583 14.8648 7.78776 14.6273 7.09149C14.2789 6.06999 14.085 4.91373 14.0733 3.80192ZM7.0303 8.84827C7.0303 8.84827 7.78221 4.56929 9.21976 8.84827H7.0303ZM9.21976 8.84827C9.21976 8.84827 9.69842 6.93639 10.7536 8.84827H9.21976ZM13.4341 8.84827H10.7536C10.7536 8.84827 11.9965 4.56929 13.4341 8.84827ZM13.4341 8.84827C13.4341 8.84827 13.9202 6.93639 14.9754 8.84827H13.4341ZM11.2267 5.61761C11.8103 5.61761 12.4998 6.04982 12.4998 6.89073C12.4998 7.73164 11.9445 8.16386 11.2267 8.16386C10.5089 8.16386 9.95358 7.70929 9.95358 6.89073C9.95358 6.07218 10.6431 5.61761 11.2267 5.61761Z" fill="#3366FF"/>
<path d="M16.0004 13.1248C16.0004 12.5725 15.5527 12.1248 15.0004 12.1248H8.00041C7.44811 12.1248 7.00041 12.5725 7.00041 13.1248C7.00041 13.6771 7.44811 14.1248 8.00041 14.1248H15.0004C15.5527 14.1248 16.0004 13.6771 16.0004 13.1248Z" fill="#3366FF"/>
</svg>
