
<svg width="616" height="128" viewBox="0 0 616 128" fill="none" xmlns="http://www.w3.org/2000/svg">
<path d="M18.3922 27.7213L11.27 46.6865H7.66795L0.518474 27.7213H3.84762L9.46897 43.4938L15.1176 27.7213H18.3922ZM35.0471 38.8003C35.0471 39.3642 35.0107 39.8736 34.9379 40.3284H23.4496C23.5406 41.5291 23.9863 42.4933 24.7867 43.2209C25.5872 43.9486 26.5696 44.3125 27.7339 44.3125C29.4075 44.3125 30.59 43.6121 31.2813 42.2113H34.6377C34.1829 43.5939 33.3552 44.7309 32.1545 45.6223C30.972 46.4955 29.4985 46.9321 27.7339 46.9321C26.2967 46.9321 25.0051 46.6138 23.859 45.977C22.731 45.3221 21.8396 44.4125 21.1847 43.2482C20.548 42.0657 20.2296 40.7013 20.2296 39.155C20.2296 37.6087 20.5389 36.2534 21.1574 35.0891C21.7942 33.9066 22.6765 32.997 23.8044 32.3603C24.9505 31.7236 26.2603 31.4052 27.7339 31.4052C29.1528 31.4052 30.4172 31.7145 31.5269 32.333C32.6366 32.9515 33.5007 33.8247 34.1193 34.9526C34.7378 36.0624 35.0471 37.3449 35.0471 38.8003ZM31.7998 37.8179C31.7816 36.6718 31.3723 35.7531 30.5718 35.0618C29.7714 34.3705 28.7799 34.0249 27.5974 34.0249C26.5241 34.0249 25.6054 34.3705 24.8413 35.0618C24.0773 35.7349 23.6225 36.6536 23.4769 37.8179H31.7998ZM41.4922 33.8338C41.947 33.0698 42.5473 32.4785 43.2932 32.0601C44.0573 31.6235 44.9578 31.4052 45.9947 31.4052V34.6252H45.2034C43.9845 34.6252 43.0567 34.9345 42.42 35.553C41.8014 36.1715 41.4922 37.2448 41.4922 38.773V46.6865H38.3813V31.6508H41.4922V33.8338ZM54.5847 46.9321C53.4022 46.9321 52.338 46.7229 51.392 46.3045C50.4642 45.8679 49.7274 45.2857 49.1817 44.5581C48.6359 43.8122 48.3448 42.9844 48.3084 42.0748H51.5284C51.583 42.7116 51.8832 43.2482 52.4289 43.6848C52.9929 44.1033 53.6933 44.3125 54.5301 44.3125C55.4033 44.3125 56.0764 44.1487 56.5494 43.8213C57.0406 43.4756 57.2862 43.039 57.2862 42.5114C57.2862 41.9475 57.0133 41.5291 56.4676 41.2562C55.94 40.9833 55.0941 40.6831 53.9298 40.3557C52.8019 40.0464 51.8832 39.7463 51.1737 39.4552C50.4642 39.1641 49.8457 38.7184 49.3181 38.1181C48.8087 37.5177 48.554 36.7264 48.554 35.744C48.554 34.9436 48.7905 34.2159 49.2635 33.561C49.7365 32.8878 50.4096 32.3603 51.2828 31.9782C52.1742 31.5962 53.193 31.4052 54.3391 31.4052C56.0492 31.4052 57.4227 31.8418 58.4596 32.715C59.5147 33.5701 60.0787 34.7434 60.1515 36.2352H57.0406C56.986 35.5621 56.7132 35.0254 56.222 34.6252C55.7308 34.225 55.0668 34.0249 54.2299 34.0249C53.4113 34.0249 52.7837 34.1795 52.3471 34.4887C51.9105 34.798 51.6922 35.2073 51.6922 35.7167C51.6922 36.1169 51.8377 36.4535 52.1288 36.7264C52.4198 36.9993 52.7746 37.2176 53.193 37.3813C53.6114 37.5268 54.2299 37.7178 55.0486 37.9543C56.1401 38.2454 57.0315 38.5456 57.7228 38.8548C58.4323 39.1459 59.0417 39.5825 59.5511 40.1647C60.0605 40.7468 60.3243 41.52 60.3425 42.4842C60.3425 43.3392 60.106 44.1033 59.633 44.7764C59.16 45.4495 58.4869 45.977 57.6137 46.3591C56.7586 46.7411 55.749 46.9321 54.5847 46.9321ZM65.5594 29.6588C64.9955 29.6588 64.5225 29.4677 64.1404 29.0857C63.7584 28.7037 63.5674 28.2307 63.5674 27.6667C63.5674 27.1028 63.7584 26.6298 64.1404 26.2477C64.5225 25.8657 64.9955 25.6747 65.5594 25.6747C66.1052 25.6747 66.5691 25.8657 66.9511 26.2477C67.3331 26.6298 67.5241 27.1028 67.5241 27.6667C67.5241 28.2307 67.3331 28.7037 66.9511 29.0857C66.5691 29.4677 66.1052 29.6588 65.5594 29.6588ZM67.0875 31.6508V46.6865H63.9767V31.6508H67.0875ZM77.9665 46.9321C76.5475 46.9321 75.265 46.6138 74.1189 45.977C72.9728 45.3221 72.0723 44.4125 71.4174 43.2482C70.7625 42.0657 70.435 40.7013 70.435 39.155C70.435 37.6269 70.7716 36.2716 71.4447 35.0891C72.1178 33.9066 73.0365 32.997 74.2008 32.3603C75.3651 31.7236 76.6658 31.4052 78.103 31.4052C79.5401 31.4052 80.8409 31.7236 82.0052 32.3603C83.1695 32.997 84.0882 33.9066 84.7613 35.0891C85.4344 36.2716 85.7709 37.6269 85.7709 39.155C85.7709 40.6831 85.4253 42.0385 84.734 43.2209C84.0427 44.4034 83.0967 45.3221 81.896 45.977C80.7135 46.6138 79.4037 46.9321 77.9665 46.9321ZM77.9665 44.2306C78.767 44.2306 79.5129 44.0396 80.2042 43.6575C80.9136 43.2755 81.4867 42.7025 81.9233 41.9384C82.3599 41.1743 82.5782 40.2465 82.5782 39.155C82.5782 38.0635 82.369 37.1448 81.9506 36.3989C81.5322 35.6348 80.9773 35.0618 80.286 34.6798C79.5947 34.2977 78.8488 34.1067 78.0484 34.1067C77.2479 34.1067 76.5021 34.2977 75.8108 34.6798C75.1377 35.0618 74.601 35.6348 74.2008 36.3989C73.8005 37.1448 73.6004 38.0635 73.6004 39.155C73.6004 40.7741 74.0098 42.0294 74.8284 42.9208C75.6652 43.794 76.7113 44.2306 77.9665 44.2306ZM96.7051 31.4052C97.8876 31.4052 98.9428 31.6508 99.8706 32.142C100.817 32.6332 101.553 33.3608 102.081 34.325C102.608 35.2892 102.872 36.4535 102.872 37.8179V46.6865H99.7887V38.2818C99.7887 36.9356 99.4521 35.9077 98.779 35.1982C98.1059 34.4706 97.1872 34.1067 96.0229 34.1067C94.8586 34.1067 93.9308 34.4706 93.2395 35.1982C92.5664 35.9077 92.2299 36.9356 92.2299 38.2818V46.6865H89.119V31.6508H92.2299V33.3699C92.7393 32.7514 93.3851 32.2693 94.1673 31.9237C94.9678 31.578 95.8137 31.4052 96.7051 31.4052ZM115.784 42.4569C117.531 40.9469 118.904 39.7099 119.905 38.7457C120.924 37.7633 121.77 36.7446 122.443 35.6894C123.116 34.6343 123.452 33.5791 123.452 32.524C123.452 31.4325 123.189 30.5775 122.661 29.9589C122.152 29.3404 121.342 29.0311 120.232 29.0311C119.159 29.0311 118.322 29.3768 117.722 30.0681C117.14 30.7412 116.83 31.6508 116.794 32.7969H113.792C113.847 30.723 114.465 29.1403 115.648 28.0488C116.849 26.939 118.368 26.3842 120.205 26.3842C122.188 26.3842 123.734 26.93 124.844 28.0215C125.972 29.113 126.536 30.5684 126.536 32.3876C126.536 33.6974 126.199 34.9617 125.526 36.1806C124.871 37.3813 124.08 38.4637 123.152 39.4279C122.243 40.3739 121.078 41.4745 119.659 42.7298L118.431 43.8213H127.082V46.4136H113.82V44.1487L115.784 42.4569ZM131.752 46.8775C131.188 46.8775 130.715 46.6865 130.333 46.3045C129.951 45.9225 129.76 45.4495 129.76 44.8855C129.76 44.3216 129.951 43.8486 130.333 43.4665C130.715 43.0845 131.188 42.8935 131.752 42.8935C132.298 42.8935 132.762 43.0845 133.144 43.4665C133.526 43.8486 133.717 44.3216 133.717 44.8855C133.717 45.4495 133.526 45.9225 133.144 46.3045C132.762 46.6865 132.298 46.8775 131.752 46.8775ZM136.533 29.6315V26.7935H142.209V46.6865H139.071V29.6315H136.533ZM148.42 46.8775C147.856 46.8775 147.383 46.6865 147.001 46.3045C146.619 45.9225 146.428 45.4495 146.428 44.8855C146.428 44.3216 146.619 43.8486 147.001 43.4665C147.383 43.0845 147.856 42.8935 148.42 42.8935C148.966 42.8935 149.43 43.0845 149.812 43.4665C150.194 43.8486 150.385 44.3216 150.385 44.8855C150.385 45.4495 150.194 45.9225 149.812 46.3045C149.43 46.6865 148.966 46.8775 148.42 46.8775ZM156.967 36.2898C155.075 35.3438 154.129 33.852 154.129 31.8145C154.129 30.8321 154.375 29.9316 154.866 29.113C155.357 28.2944 156.094 27.6485 157.076 27.1755C158.059 26.6844 159.259 26.4388 160.678 26.4388C162.079 26.4388 163.271 26.6844 164.253 27.1755C165.254 27.6485 165.999 28.2944 166.491 29.113C166.982 29.9316 167.227 30.8321 167.227 31.8145C167.227 32.8333 166.964 33.7338 166.436 34.516C165.927 35.2801 165.244 35.8713 164.389 36.2898C165.426 36.6718 166.245 37.2994 166.845 38.1726C167.446 39.0277 167.746 40.0373 167.746 41.2016C167.746 42.3841 167.446 43.4301 166.845 44.3397C166.245 45.2494 165.408 45.9497 164.335 46.4409C163.261 46.9321 162.043 47.1777 160.678 47.1777C159.314 47.1777 158.095 46.9321 157.022 46.4409C155.966 45.9497 155.139 45.2494 154.538 44.3397C153.938 43.4301 153.638 42.3841 153.638 41.2016C153.638 40.0191 153.938 39.0004 154.538 38.1454C155.139 37.2903 155.948 36.6718 156.967 36.2898ZM164.253 32.1966C164.253 31.1778 163.935 30.3955 163.298 29.8498C162.661 29.304 161.788 29.0311 160.678 29.0311C159.587 29.0311 158.723 29.304 158.086 29.8498C157.449 30.3955 157.131 31.1869 157.131 32.2238C157.131 33.1334 157.458 33.8793 158.113 34.4615C158.786 35.0254 159.641 35.3074 160.678 35.3074C161.715 35.3074 162.57 35.0163 163.243 34.4342C163.916 33.852 164.253 33.1062 164.253 32.1966ZM160.678 37.6542C159.478 37.6542 158.495 37.9543 157.731 38.5547C156.985 39.1368 156.612 39.9828 156.612 41.0925C156.612 42.1294 156.976 42.9753 157.704 43.6303C158.431 44.267 159.423 44.5853 160.678 44.5853C161.915 44.5853 162.889 44.2579 163.598 43.603C164.326 42.9481 164.69 42.1112 164.69 41.0925C164.69 40.0009 164.317 39.155 163.571 38.5547C162.843 37.9543 161.879 37.6542 160.678 37.6542Z" fill="#919EAB"/>
<path d="M455.657 33.8611C456.185 33.1698 456.903 32.5877 457.813 32.1147C458.722 31.6417 459.75 31.4052 460.896 31.4052C462.206 31.4052 463.398 31.7327 464.471 32.3876C465.563 33.0243 466.418 33.9248 467.036 35.0891C467.655 36.2534 467.964 37.5905 467.964 39.1004C467.964 40.6104 467.655 41.9657 467.036 43.1664C466.418 44.3488 465.563 45.2766 464.471 45.9497C463.398 46.6047 462.206 46.9321 460.896 46.9321C459.75 46.9321 458.731 46.7047 457.84 46.2499C456.949 45.7769 456.221 45.1948 455.657 44.5035V53.836H452.546V31.6508H455.657V33.8611ZM464.798 39.1004C464.798 38.0635 464.58 37.1721 464.144 36.4262C463.725 35.6621 463.161 35.0891 462.452 34.7071C461.76 34.3068 461.015 34.1067 460.214 34.1067C459.432 34.1067 458.686 34.3068 457.976 34.7071C457.285 35.1073 456.721 35.6894 456.285 36.4535C455.866 37.2176 455.657 38.1181 455.657 39.155C455.657 40.192 455.866 41.1016 456.285 41.8838C456.721 42.6479 457.285 43.23 457.976 43.6303C458.686 44.0305 459.432 44.2306 460.214 44.2306C461.015 44.2306 461.76 44.0305 462.452 43.6303C463.161 43.2118 463.725 42.6115 464.144 41.8292C464.58 41.047 464.798 40.1374 464.798 39.1004ZM477.835 46.9321C476.416 46.9321 475.133 46.6138 473.987 45.977C472.841 45.3221 471.941 44.4125 471.286 43.2482C470.631 42.0657 470.303 40.7013 470.303 39.155C470.303 37.6269 470.64 36.2716 471.313 35.0891C471.986 33.9066 472.905 32.997 474.069 32.3603C475.233 31.7236 476.534 31.4052 477.971 31.4052C479.409 31.4052 480.709 31.7236 481.874 32.3603C483.038 32.997 483.957 33.9066 484.63 35.0891C485.303 36.2716 485.639 37.6269 485.639 39.155C485.639 40.6831 485.294 42.0385 484.602 43.2209C483.911 44.4034 482.965 45.3221 481.764 45.977C480.582 46.6138 479.272 46.9321 477.835 46.9321ZM477.835 44.2306C478.635 44.2306 479.381 44.0396 480.073 43.6575C480.782 43.2755 481.355 42.7025 481.792 41.9384C482.228 41.1743 482.447 40.2465 482.447 39.155C482.447 38.0635 482.237 37.1448 481.819 36.3989C481.401 35.6348 480.846 35.0618 480.154 34.6798C479.463 34.2977 478.717 34.1067 477.917 34.1067C477.116 34.1067 476.37 34.2977 475.679 34.6798C475.006 35.0618 474.469 35.6348 474.069 36.3989C473.669 37.1448 473.469 38.0635 473.469 39.155C473.469 40.7741 473.878 42.0294 474.697 42.9208C475.534 43.794 476.58 44.2306 477.835 44.2306ZM509.181 31.6508L504.514 46.6865H501.24L498.211 35.5803L495.182 46.6865H491.907L487.214 31.6508H490.379L493.517 43.7394L496.71 31.6508H499.957L503.014 43.6848L506.124 31.6508H509.181ZM525.559 38.8003C525.559 39.3642 525.522 39.8736 525.45 40.3284H513.961C514.052 41.5291 514.498 42.4933 515.298 43.2209C516.099 43.9486 517.081 44.3125 518.246 44.3125C519.919 44.3125 521.102 43.6121 521.793 42.2113H525.149C524.695 43.5939 523.867 44.7309 522.666 45.6223C521.484 46.4955 520.01 46.9321 518.246 46.9321C516.808 46.9321 515.517 46.6138 514.371 45.977C513.243 45.3221 512.351 44.4125 511.696 43.2482C511.06 42.0657 510.741 40.7013 510.741 39.155C510.741 37.6087 511.051 36.2534 511.669 35.0891C512.306 33.9066 513.188 32.997 514.316 32.3603C515.462 31.7236 516.772 31.4052 518.246 31.4052C519.665 31.4052 520.929 31.7145 522.039 32.333C523.148 32.9515 524.012 33.8247 524.631 34.9526C525.25 36.0624 525.559 37.3449 525.559 38.8003ZM522.312 37.8179C522.293 36.6718 521.884 35.7531 521.084 35.0618C520.283 34.3705 519.292 34.0249 518.109 34.0249C517.036 34.0249 516.117 34.3705 515.353 35.0618C514.589 35.7349 514.134 36.6536 513.989 37.8179H522.312ZM532.004 33.8338C532.459 33.0698 533.059 32.4785 533.805 32.0601C534.569 31.6235 535.469 31.4052 536.506 31.4052V34.6252H535.715C534.496 34.6252 533.568 34.9345 532.932 35.553C532.313 36.1715 532.004 37.2448 532.004 38.773V46.6865H528.893V31.6508H532.004V33.8338ZM553.419 38.8003C553.419 39.3642 553.383 39.8736 553.31 40.3284H541.822C541.913 41.5291 542.359 42.4933 543.159 43.2209C543.959 43.9486 544.942 44.3125 546.106 44.3125C547.78 44.3125 548.962 43.6121 549.654 42.2113H553.01C552.555 43.5939 551.727 44.7309 550.527 45.6223C549.344 46.4955 547.871 46.9321 546.106 46.9321C544.669 46.9321 543.377 46.6138 542.231 45.977C541.103 45.3221 540.212 44.4125 539.557 43.2482C538.92 42.0657 538.602 40.7013 538.602 39.155C538.602 37.6087 538.911 36.2534 539.53 35.0891C540.166 33.9066 541.049 32.997 542.177 32.3603C543.323 31.7236 544.633 31.4052 546.106 31.4052C547.525 31.4052 548.789 31.7145 549.899 32.333C551.009 32.9515 551.873 33.8247 552.491 34.9526C553.11 36.0624 553.419 37.3449 553.419 38.8003ZM550.172 37.8179C550.154 36.6718 549.744 35.7531 548.944 35.0618C548.144 34.3705 547.152 34.0249 545.97 34.0249C544.896 34.0249 543.978 34.3705 543.214 35.0618C542.449 35.7349 541.995 36.6536 541.849 37.8179H550.172ZM555.717 39.1004C555.717 37.5905 556.026 36.2534 556.644 35.0891C557.281 33.9248 558.136 33.0243 559.209 32.3876C560.301 31.7327 561.511 31.4052 562.839 31.4052C563.821 31.4052 564.785 31.6235 565.731 32.0601C566.696 32.4785 567.46 33.0425 568.024 33.752V26.4933H571.162V46.6865H568.024V44.4216C567.514 45.1493 566.805 45.7496 565.895 46.2226C565.004 46.6956 563.976 46.9321 562.812 46.9321C561.502 46.9321 560.301 46.6047 559.209 45.9497C558.136 45.2766 557.281 44.3488 556.644 43.1664C556.026 41.9657 555.717 40.6104 555.717 39.1004ZM568.024 39.155C568.024 38.1181 567.805 37.2176 567.369 36.4535C566.95 35.6894 566.395 35.1073 565.704 34.7071C565.013 34.3068 564.267 34.1067 563.466 34.1067C562.666 34.1067 561.92 34.3068 561.229 34.7071C560.538 35.0891 559.974 35.6621 559.537 36.4262C559.119 37.1721 558.909 38.0635 558.909 39.1004C558.909 40.1374 559.119 41.047 559.537 41.8292C559.974 42.6115 560.538 43.2118 561.229 43.6303C561.938 44.0305 562.684 44.2306 563.466 44.2306C564.267 44.2306 565.013 44.0305 565.704 43.6303C566.395 43.23 566.95 42.6479 567.369 41.8838C567.805 41.1016 568.024 40.192 568.024 39.155ZM585.993 33.8884C586.52 33.1607 587.239 32.5695 588.148 32.1147C589.076 31.6417 590.104 31.4052 591.232 31.4052C592.56 31.4052 593.761 31.7236 594.834 32.3603C595.907 32.997 596.753 33.9066 597.372 35.0891C597.99 36.2534 598.3 37.5905 598.3 39.1004C598.3 40.6104 597.99 41.9657 597.372 43.1664C596.753 44.3488 595.898 45.2766 594.807 45.9497C593.733 46.6047 592.542 46.9321 591.232 46.9321C590.068 46.9321 589.031 46.7047 588.121 46.2499C587.23 45.7951 586.52 45.213 585.993 44.5035V46.6865H582.882V26.4933H585.993V33.8884ZM595.134 39.1004C595.134 38.0635 594.916 37.1721 594.479 36.4262C594.061 35.6621 593.497 35.0891 592.787 34.7071C592.096 34.3068 591.35 34.1067 590.55 34.1067C589.768 34.1067 589.022 34.3068 588.312 34.7071C587.621 35.1073 587.057 35.6894 586.62 36.4535C586.202 37.2176 585.993 38.1181 585.993 39.155C585.993 40.192 586.202 41.1016 586.62 41.8838C587.057 42.6479 587.621 43.23 588.312 43.6303C589.022 44.0305 589.768 44.2306 590.55 44.2306C591.35 44.2306 592.096 44.0305 592.787 43.6303C593.497 43.2118 594.061 42.6115 594.479 41.8292C594.916 41.047 595.134 40.1374 595.134 39.1004ZM615.184 31.6508L605.96 53.7541H602.74L605.797 46.4409L599.875 31.6508H603.341L607.57 43.1118L611.964 31.6508H615.184Z" fill="#919EAB"/>
<path d="M108.211 88.6317C108.211 95.3235 108.211 102.178 108.211 108.87C108.211 110.013 107.884 110.176 106.905 110.176C102.662 110.176 98.2548 110.176 94.0113 110.176C93.032 110.176 92.8688 109.849 92.8688 109.033C92.8688 104.137 92.8688 99.2406 92.8688 94.3442C92.8688 93.3649 92.7056 93.2017 91.7263 93.2017C85.3609 93.2017 78.8324 93.2017 72.467 93.2017C71.4877 93.2017 71.3245 93.5281 71.3245 94.3442C71.3245 99.2406 71.3245 104.137 71.3245 108.87C71.3245 110.013 70.9981 110.176 70.0188 110.176C65.7753 110.176 61.3685 110.176 57.1249 110.176C56.3089 110.176 55.9824 110.013 55.9824 109.033C55.9824 95.4867 55.9824 81.7767 55.9824 68.2299C55.9824 67.2507 56.3088 66.9242 57.2881 67.0874C61.5317 67.0874 65.9385 67.0874 70.182 67.0874C71.1613 67.0874 71.4877 67.2507 71.4877 68.2299C71.4877 73.1264 71.4877 77.8596 71.4877 82.756C71.4877 83.572 71.651 83.8985 72.6302 83.8985C79.1588 83.8985 85.5241 83.8985 92.0527 83.8985C92.8688 83.8985 93.1952 83.7353 93.1952 82.756C93.1952 77.8596 93.1952 72.9631 93.1952 68.2299C93.1952 67.4139 93.3584 67.0874 94.3377 67.0874C98.7445 67.0874 103.151 67.0874 107.558 67.0874C108.537 67.0874 108.701 67.2507 108.701 68.2299C108.211 75.0849 108.211 81.7767 108.211 88.6317Z" fill="#131313"/>
<path d="M330.019 110.175C325.122 110.012 319.083 110.502 313.208 110.012C310.433 109.686 307.658 109.196 305.047 107.89C302.436 106.421 301.13 104.136 301.13 101.198C301.13 93.201 301.13 85.2035 301.13 77.2061C301.13 73.2889 302.925 70.6775 306.353 69.0454C308.801 67.9029 311.576 67.4132 314.35 67.4132C325.122 67.25 336.058 67.4132 346.83 67.25C347.646 67.25 347.809 67.5764 347.809 68.2293C347.809 70.6775 347.809 73.1257 347.809 75.4107C347.809 76.39 347.483 76.5532 346.667 76.5532C338.179 76.5532 329.692 76.5532 321.205 76.5532C320.879 76.5532 320.389 76.5532 320.063 76.5532C317.125 77.0428 316.472 77.6957 316.635 80.6335C316.635 81.6128 316.309 83.0818 316.798 83.7346C317.451 84.3875 318.92 83.8978 319.899 83.8978C323.98 83.8978 327.897 83.8978 331.977 83.8978C332.793 83.8978 332.957 84.061 332.957 84.8771C332.957 87.3253 332.957 89.7735 332.957 92.2217C332.957 93.0378 332.63 93.201 331.814 93.201C327.244 93.201 322.674 93.201 318.104 93.201C316.309 93.201 316.635 93.0378 316.635 94.8332C316.635 95.8124 316.635 96.7917 316.635 97.9342C316.635 99.2399 317.288 100.056 318.594 100.546C319.41 100.872 320.389 101.035 321.368 101.035C329.856 101.035 338.179 101.035 346.667 101.035C347.646 101.035 347.972 101.362 347.972 102.341C347.972 104.626 347.972 107.074 347.972 109.359C347.972 110.175 347.809 110.502 346.83 110.502C341.444 110.175 336.384 110.175 330.019 110.175Z" fill="#131313"/>
<path d="M145.75 78.3457C143.628 82.9157 141.669 87.3225 139.547 91.566C136.773 97.4417 134.161 103.317 131.387 109.193C131.06 110.009 130.571 110.172 129.755 110.172C124.858 110.172 119.962 110.172 114.902 110.172C114.739 109.683 114.902 109.52 115.065 109.193C121.431 96.9521 127.796 84.7111 134.161 72.47C136.446 68.8793 139.711 67.4104 143.628 66.9207C146.402 66.5943 149.34 66.5943 152.115 67.4104C155.216 68.2264 157.664 70.0218 159.133 72.9596C165.335 85.0375 171.701 97.1153 178.066 109.193C178.556 110.172 178.556 110.336 177.413 110.336C172.843 110.336 168.11 110.336 163.54 110.336C162.724 110.336 162.234 110.009 161.908 109.356C156.685 99.4003 151.462 89.281 146.239 79.325C146.239 78.9986 146.076 78.6721 145.75 78.3457Z" fill="#131313"/>
<path d="M28.7257 67.0898C34.4381 67.0898 39.9874 67.0898 45.6999 67.0898C46.516 67.0898 46.8424 67.2531 46.8424 68.2323C46.8424 70.5173 46.8424 72.9655 46.8424 75.2505C46.8424 76.2298 46.6792 76.5562 45.6999 76.5562C37.2128 76.5562 28.5624 76.5562 20.0753 76.5562C19.5857 76.5562 18.9328 76.5563 18.4432 76.7195C16.1582 77.0459 15.6685 77.6987 15.6685 79.9837C15.6685 85.6962 15.6685 91.4087 15.6685 96.958C15.6685 100.059 16.6478 100.875 19.5857 101.038C21.5442 101.038 23.3396 101.038 25.2982 101.038C31.9899 101.038 38.8449 101.038 45.5367 101.038C46.6792 101.038 46.8424 101.365 46.8424 102.344C46.8424 104.792 46.8424 107.077 46.8424 109.525C46.8424 110.178 46.6792 110.505 45.8631 110.505C35.2542 110.505 24.4821 110.505 13.8732 110.505C10.7721 110.505 7.67105 109.689 4.89642 108.383C1.79535 106.914 0 104.466 0 100.875C0 92.8776 0 84.8802 0.163214 76.8827C0.163214 71.007 2.61142 68.722 8.1607 67.7427C11.9146 67.0898 15.8318 67.0898 19.5857 67.0898C22.6867 67.0898 25.6246 67.0898 28.7257 67.0898Z" fill="#131313"/>
<path d="M356.622 83.9009C356.622 78.678 356.622 73.4552 356.622 68.2323C356.622 67.4163 356.785 67.0898 357.764 67.0898C362.171 67.0898 366.578 67.0898 370.984 67.0898C371.964 67.0898 372.127 67.4163 372.127 68.3956C372.127 78.3516 372.127 88.3077 372.127 98.1005C372.127 99.8958 372.453 100.385 374.412 100.712C375.065 100.875 375.554 100.875 376.207 100.875C384.858 100.875 393.345 100.875 401.995 100.875C402.974 100.875 403.301 101.038 403.301 102.018C403.138 104.466 403.301 106.914 403.301 109.362C403.301 110.015 403.138 110.178 402.485 110.178C392.855 110.178 383.389 110.178 373.759 110.178C370.658 110.178 367.557 109.852 364.456 109.036C359.07 107.567 356.785 104.629 356.785 99.0798C356.622 94.0201 356.622 88.9605 356.622 83.9009Z" fill="#131313"/>
<path d="M146.075 88.9565C148.034 92.8737 149.992 96.4644 151.951 100.218C152.277 100.871 151.951 100.871 151.461 100.871C148.197 100.871 144.769 100.871 141.505 100.871C141.016 100.871 140.852 100.708 141.016 100.218C142.648 96.4644 144.28 92.8737 146.075 88.9565Z" fill="#131313"/>
<path d="M423.541 80.3079C423.868 80.1447 424.031 80.1447 424.031 79.9814C428.111 74.5954 437.741 75.7379 441.658 79.3286C442.311 79.9814 443.127 80.6343 443.617 81.4504C444.106 82.1032 444.27 81.94 444.759 81.4504C446.391 79.1654 448.35 77.37 451.288 76.7172C458.306 75.2482 464.835 78.1861 466.303 86.51C466.63 88.1421 466.793 89.9375 466.793 91.5696C466.793 97.2821 466.793 103.158 466.793 108.87C466.793 110.013 466.467 110.339 465.324 110.339C463.692 110.176 461.897 110.339 460.265 110.339C459.448 110.339 459.122 110.013 459.122 109.197C459.122 103.974 459.122 98.751 459.122 93.5282C459.122 91.8961 458.959 90.1007 458.469 88.4686C457.816 85.6939 456.021 84.3882 453.083 84.0618C449.982 83.7354 447.697 85.0411 446.555 87.4893C445.739 89.4478 445.412 91.5696 445.412 93.6914C445.412 98.751 445.412 103.811 445.412 109.034C445.412 110.176 445.086 110.502 443.943 110.502C442.311 110.339 440.516 110.502 438.884 110.502C437.904 110.502 437.741 110.176 437.741 109.36C437.741 105.116 437.741 100.873 437.741 96.466C437.741 94.0178 437.741 91.5696 437.088 89.1214C436.272 85.8571 434.64 84.3882 431.376 84.225C428.111 84.0618 425.663 85.5307 424.684 88.4686C423.868 90.7536 423.705 93.2018 423.705 95.65C423.705 100.22 423.705 104.79 423.705 109.36C423.705 110.339 423.378 110.666 422.399 110.666C420.767 110.666 419.135 110.666 417.502 110.666C416.523 110.666 416.197 110.339 416.197 109.36C416.197 100.546 416.197 91.8961 416.197 83.0825C416.197 81.4504 416.197 79.9814 416.197 78.3493C416.197 77.5332 416.36 77.37 417.176 77.37C418.971 77.37 420.93 77.37 422.725 77.37C423.541 77.37 423.868 77.6964 423.868 78.5125C423.541 78.6757 423.541 79.3286 423.541 80.3079Z" fill="#757575"/>
<path d="M563.086 88.1406C563.086 81.2857 563.086 74.4307 563.086 67.5757C563.086 66.4332 563.413 66.1068 564.555 66.1068C566.187 66.27 567.983 66.1068 569.615 66.1068C570.268 66.1068 570.594 66.4332 570.594 67.086C570.594 67.5757 570.594 68.0653 570.594 68.555C570.594 81.7753 570.594 95.1588 570.594 108.379C570.594 110.175 570.594 110.175 568.799 110.175C567.33 110.175 565.861 110.175 564.392 110.175C563.413 110.175 563.086 109.848 563.086 108.869C563.086 102.014 563.086 95.1588 563.086 88.1406Z" fill="#757575"/>
<path d="M556.234 93.6922C556.234 98.7518 556.234 103.811 556.234 109.034C556.234 110.014 556.07 110.503 554.928 110.34C553.296 110.34 551.5 110.34 549.868 110.34C549.052 110.34 548.726 110.177 548.726 109.197C548.726 98.915 548.726 88.4693 548.726 78.1868C548.726 77.3708 549.052 77.0443 549.868 77.0443C551.5 77.0443 553.296 77.0443 554.928 77.0443C555.907 77.0443 556.234 77.3708 556.234 78.35C556.07 83.4097 556.234 88.4693 556.234 93.6922Z" fill="#757575"/>
<path d="M552.317 73.617C551.337 73.617 550.521 73.617 549.542 73.617C548.889 73.617 548.563 73.2906 548.563 72.6377C548.563 70.8424 548.563 69.047 548.563 67.2517C548.563 66.5988 548.726 66.2724 549.542 66.2724C551.501 66.2724 553.459 66.2724 555.418 66.2724C555.907 66.2724 556.234 66.4356 556.234 67.0885C556.234 69.047 556.234 71.0056 556.234 72.9642C556.234 73.617 555.907 73.7802 555.418 73.7802C554.275 73.617 553.296 73.617 552.317 73.617Z" fill="#757575"/>
<path d="M612.707 69.8611C613.196 68.5554 613.523 67.5761 613.849 66.5968C614.013 65.944 614.339 65.7808 614.992 65.7808C615.645 65.944 615.481 66.4336 615.481 66.9233C615.481 68.229 615.481 69.3715 615.481 70.6772C615.481 71.1668 615.481 71.4932 614.829 71.4932C614.339 71.4932 614.339 71.1668 614.339 70.6772C614.339 69.8611 614.339 68.8818 614.339 67.9025C613.686 68.8818 613.686 69.8611 613.196 70.6772C613.033 71.0036 613.033 71.33 612.544 71.4932C612.054 71.4932 611.891 71.0036 611.891 70.6772C611.564 69.8611 611.238 69.045 610.748 68.229C610.748 69.045 610.748 69.8611 610.748 70.6772C610.748 71.0036 610.748 71.4932 610.259 71.4932C609.769 71.4932 609.606 71.1668 609.606 70.6772C609.606 69.3715 609.606 68.0658 609.606 66.76C609.606 66.4336 609.606 65.944 610.095 65.944C610.585 65.944 611.075 65.944 611.238 66.4336C611.891 67.4129 612.217 68.5554 612.707 69.8611Z" fill="#757575"/>
<path d="M607.81 65.7808C608.136 65.7808 608.463 65.7808 608.789 65.7808C609.115 65.7808 609.279 65.7808 609.442 66.2704C609.442 66.5968 609.279 66.76 608.952 66.76C608.463 66.76 608.463 67.2497 608.463 67.5761C608.463 68.5554 608.463 69.5347 608.463 70.514C608.463 70.8404 608.463 71.33 607.973 71.33C607.157 71.33 607.157 71.0036 607.157 70.514C607.157 69.8611 607.157 69.2083 607.157 68.5554C607.157 67.9025 607.483 66.9233 606.341 66.5968C606.014 66.4336 606.178 65.944 606.667 65.7808C606.994 65.7808 607.32 65.7808 607.81 65.7808Z" fill="#757575"/>
<path d="M543.012 91.2432C541.053 76.554 525.711 72.8 516.734 78.6757C516.408 78.839 516.244 79.3286 515.918 79.0022C515.592 78.839 515.755 78.3493 515.755 78.0229C515.755 74.4322 515.755 70.8415 515.755 67.2508C515.755 66.4347 515.592 65.9451 514.612 66.1083C512.98 66.1083 511.348 66.1083 509.716 66.1083C508.084 66.1083 508.084 66.1083 508.084 67.7404C508.084 77.37 508.084 86.8364 508.084 96.4661C508.084 100.71 508.084 104.953 508.084 109.197C508.084 110.176 508.41 110.502 509.226 110.339C510.532 110.339 511.838 110.339 513.143 110.339C515.592 110.339 515.592 110.339 515.918 107.891C516.408 108.217 516.734 108.544 517.224 108.707C522.936 112.461 531.097 112.135 536.32 107.891C541.543 103.647 543.991 97.935 543.012 91.2432ZM525.221 103.484C519.998 103.484 515.918 99.2407 515.918 93.6914C515.918 87.9789 519.998 83.7354 525.548 83.7354C530.771 83.7354 535.177 88.1421 535.177 93.5282C535.34 99.2407 530.934 103.484 525.221 103.484Z" fill="#757575"/>
<path d="M609.116 94.5071C608.953 93.3646 608.953 92.3853 608.953 91.2428C607.974 81.45 597.854 74.1053 588.225 76.2271C576.637 78.8385 570.924 91.7324 576.8 102.178C580.391 108.543 585.94 111.481 593.284 110.992C600.139 110.502 604.709 106.748 607.647 100.709C608.137 99.8931 607.974 99.4035 606.831 99.4035C604.709 99.4035 602.588 99.4035 600.466 99.4035C599.976 99.4035 599.487 99.4035 599.16 99.8931C596.875 102.994 593.611 103.973 589.857 103.484C586.266 102.994 583.492 100.546 582.675 97.1185C582.512 96.1392 582.512 95.8128 583.655 95.8128C587.735 95.8128 591.815 95.8128 595.733 95.8128C599.65 95.8128 603.73 95.8128 607.647 95.8128C608.79 96.1392 609.279 95.6496 609.116 94.5071ZM599.487 89.7739C596.875 89.7739 594.264 89.7739 591.652 89.7739C589.041 89.7739 586.593 89.7739 583.981 89.7739C582.675 89.7739 582.675 89.6107 583.165 88.4682C584.634 85.2039 587.898 82.9189 591.652 82.9189C595.896 82.9189 598.834 84.8775 600.303 88.3049C600.792 89.7739 600.629 89.7739 599.487 89.7739Z" fill="#757575"/>
<path d="M487.52 75.8954C477.891 75.8954 470.056 83.8929 470.056 93.5225C470.056 103.479 477.728 111.15 487.52 111.15C497.476 111.15 504.984 103.479 505.147 93.5225C504.984 83.7297 497.313 75.8954 487.52 75.8954ZM492.417 102.173C486.378 105.764 479.033 102.173 478.217 95.1547C477.891 91.7272 478.38 88.6261 480.829 86.1779C483.44 83.5665 487.684 82.7504 491.274 84.2193C494.865 85.8515 496.66 88.6261 496.987 92.7065C496.987 92.8697 496.987 93.1961 496.987 93.3593C496.824 97.1132 495.681 100.214 492.417 102.173Z" fill="#757575"/>
<path d="M238.619 99.2408C238.292 98.2615 237.803 97.4454 237.476 96.4661C236.824 94.9972 236.171 93.5283 235.355 92.2226C234.049 89.2847 232.743 86.1837 231.111 83.409L225.725 71.8208C224.746 71.6576 225.235 72.3105 225.235 72.6369C225.235 80.1447 225.235 87.8158 225.235 95.3236C225.235 95.9765 225.399 96.4661 225.072 96.9558C224.419 95.4869 223.603 94.0179 222.95 92.549C222.461 91.4065 221.971 90.4272 221.481 89.2847C220.339 86.8365 219.033 84.2251 217.891 81.7769L213.647 73.1265C212.178 70.3519 210.22 68.0669 207.119 67.0876C205.976 66.4348 204.67 66.2716 203.365 65.9451C201.243 65.7819 198.958 65.4555 196.836 65.9451C194.878 65.7819 193.082 66.4348 191.287 67.0876C190.471 67.4141 189.491 67.7405 188.675 68.3933C188.023 68.7198 187.37 69.2094 186.88 69.8623C185.574 71.0048 184.921 72.4737 185.085 74.269C185.085 75.0851 185.085 75.9012 185.085 76.554V80.308C185.085 81.7769 185.085 83.2458 185.085 84.7147C185.085 85.5308 185.085 86.3469 185.085 86.9997V90.9169C185.085 92.0594 185.085 93.0386 185.085 94.1811C185.085 95.3236 185.085 96.3029 185.085 97.4454C185.085 99.2408 185.085 101.199 185.085 102.995C185.085 104.79 185.085 106.585 185.085 108.381C185.085 109.197 185.411 109.197 186.064 109.197C188.186 109.197 190.144 109.197 192.103 108.707C193.082 108.544 194.061 108.381 194.878 107.728C195.53 107.565 196.183 107.238 196.673 106.749C197.163 106.422 197.979 106.259 198.142 105.443C199.448 104.79 199.937 103.648 200.427 102.342C200.753 101.852 200.59 101.036 200.916 100.546C201.08 100.22 201.08 99.7304 201.08 99.2408C201.08 92.7122 201.08 86.3469 201.08 79.8183C201.08 79.3287 201.08 78.839 200.916 78.5126C201.406 78.1862 201.406 78.6758 201.569 79.0022C202.385 80.7976 203.201 82.4297 204.181 84.2251C205.65 87.3262 207.119 90.4272 208.588 93.5283C209.893 96.3029 211.199 98.9143 212.341 101.689C214.626 106.912 218.87 109.034 224.256 109.36C224.582 109.523 225.072 109.523 225.562 109.523C227.031 109.523 228.5 109.523 229.969 109.523C230.132 109.523 230.132 109.523 230.295 109.523C231.927 109.36 233.396 109.034 234.865 108.544C235.844 108.054 236.824 107.565 237.64 107.238C238.782 106.585 239.435 105.606 239.761 104.464C240.741 102.505 239.598 100.873 238.619 99.2408ZM200.753 100.22C200.753 100.057 200.753 100.22 200.753 100.22C200.753 100.057 200.753 100.22 200.753 100.22ZM289.868 66.598C288.073 66.598 286.114 66.4348 284.319 66.9244C282.687 67.0876 281.218 67.5773 279.749 68.3933H279.912C279.912 68.3933 279.912 68.3933 279.749 68.3933C279.749 68.3933 279.749 68.3933 279.586 68.3933C278.28 68.883 277.137 69.699 276.321 70.6783C275.668 71.168 275.179 71.984 274.852 72.8001C273.547 74.7587 273.873 77.0437 274.036 79.1655C274.036 80.9608 274.036 82.7562 274.036 84.5515C274.036 85.8572 274.036 86.9997 274.036 88.3054C274.036 89.1215 274.036 89.9376 274.036 90.5904C274.036 92.0594 274.036 93.3651 274.036 94.834C274.036 95.6501 274.036 96.6293 274.036 97.4454C273.547 97.6086 273.547 97.119 273.383 96.9558C272.404 95.1604 271.588 93.3651 270.772 91.5697C270.446 90.9169 270.282 90.1008 269.793 89.6111C268.813 87.3262 267.834 85.0412 266.528 82.7562C265.223 79.9815 263.917 77.3701 262.775 74.5955C260.326 68.883 255.756 66.9244 250.044 66.7612C248.575 66.2716 247.106 66.598 245.637 66.598C244.005 66.7612 242.373 66.9244 240.904 67.4141C240.577 67.5773 240.251 67.5773 239.761 67.7405C238.619 68.3933 237.313 68.7198 236.334 69.8623C236.007 70.0255 235.844 70.3519 236.007 70.8415C234.865 72.6369 234.375 74.4323 235.518 76.3908C235.844 77.0437 236.171 77.6965 236.497 78.3494C237.64 80.6344 238.619 83.0826 239.925 85.3676C241.394 88.7951 243.026 92.0594 244.658 95.3236C245.963 98.2615 247.432 101.199 248.901 104.137C248.901 104.627 249.065 104.953 249.554 105.28C249.554 105.116 249.717 104.953 249.717 104.79C249.717 96.3029 249.717 87.8158 249.717 79.1655C250.697 80.6344 251.35 82.2665 252.002 83.7354C252.492 84.7147 252.818 85.694 253.308 86.5101C254.94 89.7744 256.409 93.2019 258.205 96.4661C258.857 98.5879 260.163 100.383 260.979 102.505C262.775 106.749 265.876 109.197 270.282 110.176C271.425 110.176 272.567 110.666 273.873 110.666C275.179 110.666 276.321 110.666 277.627 110.666C277.79 110.666 277.79 110.666 277.953 110.666C279.259 110.503 280.402 110.503 281.707 110.013C283.176 109.85 284.482 109.197 285.624 108.544C286.93 108.054 287.909 107.238 288.889 106.096C289.215 105.769 289.542 105.443 289.705 104.953C290.358 103.974 290.358 102.831 290.358 101.689C290.358 90.4272 290.358 79.3287 290.358 68.0669C290.194 67.4141 290.358 66.9244 289.868 66.598Z" fill="url(#paint0_linear_288_243016)"/>
<defs>
<linearGradient id="paint0_linear_288_243016" x1="152.389" y1="145.482" x2="323.534" y2="29.7473" gradientUnits="userSpaceOnUse">
<stop/>
<stop offset="0.00572486" stop-color="#1B1A1A"/>
<stop offset="0.0117374" stop-color="#212121"/>
<stop offset="0.017747" stop-color="#1F1F1F"/>
<stop offset="0.023642" stop-color="#1A1C1C"/>
<stop offset="0.0293871" stop-color="#171A1A"/>
<stop offset="0.0349186" stop-color="#141818"/>
<stop offset="0.04" stop-color="#131818"/>
<stop offset="0.0448018" stop-color="#151B1C"/>
<stop offset="0.0777307" stop-color="#1A2B31"/>
<stop offset="0.1107" stop-color="#193640"/>
<stop offset="0.1433" stop-color="#143E4B"/>
<stop offset="0.1754" stop-color="#0E4252"/>
<stop offset="0.2063" stop-color="#0B4454"/>
<stop offset="0.5" stop-color="#00ADD5"/>
<stop offset="0.8514" stop-color="#0B4454"/>
<stop offset="0.8711" stop-color="#0E4252"/>
<stop offset="0.8916" stop-color="#143E4B"/>
<stop offset="0.9125" stop-color="#193640"/>
<stop offset="0.9335" stop-color="#1A2B31"/>
<stop offset="0.9546" stop-color="#151B1C"/>
<stop offset="0.9577" stop-color="#131818"/>
<stop offset="0.9613" stop-color="#1B1C1D"/>
<stop offset="0.9656" stop-color="#202020"/>
<stop offset="0.9702" stop-color="#212020"/>
<stop offset="0.975" stop-color="#1B1B1B"/>
<stop offset="0.9799" stop-color="#131313"/>
<stop offset="0.9852" stop-color="#0A0A09"/>
<stop offset="0.9909" stop-color="#020202"/>
<stop offset="0.998"/>
</linearGradient>
</defs>
</svg>
