
<svg width="40" height="40" viewBox="0 0 40 40" fill="none" xmlns="http://www.w3.org/2000/svg">
<path fill-rule="evenodd" clip-rule="evenodd" d="M40 20C40 31.0457 31.0457 40 20 40C15.498 40 11.3434 38.5125 8.00085 36.0021L1.31482 37.7364L3.21313 30.8764C1.18056 27.7457 0 24.0107 0 20C0 8.9543 8.9543 0 20 0C31.0457 0 40 8.9543 40 20ZM28.3352 30.6685C26.0373 32.4663 23.1438 33.5379 20 33.5379C14.1902 33.5379 9.2351 29.8781 7.31444 24.7382C7.01193 24.881 6.68096 24.9954 6.32152 25.0813C5.78406 25.2108 5.21302 25.2756 4.60838 25.2756C3.72062 25.2756 2.97202 25.1364 2.36259 24.8581C1.75795 24.5798 1.29728 24.1815 0.980562 23.6632C0.663847 23.145 0.534622 22.5783 0.451329 21.7917H2.85479C2.93217 22.3683 3.15197 22.7611 3.47829 22.9866C3.8094 23.2122 4.19089 23.3249 4.62278 23.3249C5.01147 23.3249 5.34498 23.2697 5.62331 23.1594C5.90163 23.049 6.11277 22.8978 6.25674 22.7059C6.4055 22.5139 6.47988 22.2908 6.47988 22.0365C6.47988 21.7965 6.4079 21.5854 6.26393 21.403C6.12477 21.2159 5.92563 21.0695 5.6665 20.964C5.40737 20.8584 5.10505 20.7984 4.75954 20.784L3.74461 20.7336V18.8189L4.64437 18.7614C4.98028 18.7422 5.2682 18.6798 5.50814 18.5742C5.75287 18.4686 5.94002 18.3271 6.06959 18.1495C6.19915 17.972 6.26393 17.7608 6.26393 17.5161C6.26393 17.2858 6.18715 17.089 6.0336 16.9259C5.88484 16.7627 5.68569 16.6403 5.43616 16.5588C5.18663 16.4724 4.9083 16.4292 4.60118 16.4292C4.28927 16.4292 4.00614 16.4772 3.75181 16.5732C3.50228 16.6691 3.29834 16.8299 3.13998 17.0554C3.05841 17.1762 3.01564 17.4233 2.94197 17.8488L2.91851 17.984H0.506602C0.525211 17.8785 0.542434 17.7762 0.559143 17.677C0.669474 17.0218 0.757405 16.4997 1.07414 16.0621C1.43884 15.5534 1.9331 15.1767 2.55694 14.932C3.18557 14.6873 3.88618 14.5649 4.65877 14.5649C5.46015 14.5649 6.17756 14.6633 6.81099 14.86C7.0152 14.9234 7.20546 14.9986 7.38174 15.0855C9.34891 10.0384 14.2568 6.4621 20 6.4621C27.4768 6.4621 33.5379 12.5232 33.5379 20C33.5379 22.4731 32.8748 24.7913 31.7166 26.7865L33.1353 31.9136L28.3352 30.6685ZM13.7617 14.9392C13.1811 14.6897 12.5476 14.5649 11.8614 14.5649C10.9353 14.5649 10.1339 14.788 9.45728 15.2343C8.78546 15.6806 8.2672 16.3212 7.9025 17.1562C7.5378 17.9864 7.35545 18.9773 7.35545 20.129C7.35545 21.1559 7.5306 22.0557 7.8809 22.8283C8.23601 23.6008 8.74467 24.2031 9.40689 24.635C10.0739 25.062 10.8681 25.2756 11.7894 25.2756C12.5908 25.2756 13.301 25.1196 13.9201 24.8077C14.5391 24.4958 15.0238 24.0711 15.3741 23.5337C15.5266 23.2997 15.6459 23.053 15.732 22.7936C15.9049 23.2685 16.1325 23.6859 16.4145 24.0459C17.1439 24.972 18.1637 25.4351 19.4737 25.4351C20.7838 25.4351 21.7987 24.972 22.5185 24.0459C23.2431 23.1149 23.6054 21.7977 23.6054 20.0942C23.6054 18.381 23.2383 17.059 22.5041 16.128C21.7747 15.1923 20.767 14.7244 19.4809 14.7244C18.6171 14.7244 17.8733 14.9355 17.2495 15.3578C16.6305 15.7753 16.153 16.3848 15.8171 17.1861C15.7841 17.266 15.7528 17.3475 15.7231 17.4307C15.6655 16.885 15.482 16.412 15.1725 16.0117C14.8126 15.5462 14.3424 15.1887 13.7617 14.9392ZM15.6335 17.7032H13.517C13.3922 17.2858 13.1979 16.9762 12.9339 16.7747C12.67 16.5731 12.3317 16.4724 11.919 16.4724C11.4727 16.4724 11.1008 16.6019 10.8033 16.8611C10.5058 17.1154 10.2947 17.4609 10.1699 17.8976C10.0499 18.3343 10.0235 18.8213 10.0907 19.3588C10.2635 19.186 10.4674 19.0421 10.7025 18.9269C10.9425 18.8117 11.1992 18.7254 11.4727 18.6678C11.7463 18.6054 12.027 18.5742 12.3149 18.5742C13.0299 18.5742 13.6561 18.7062 14.1936 18.9701C14.6603 19.1993 15.0366 19.5063 15.3223 19.8911C15.3374 19.0705 15.4411 18.3412 15.6335 17.7032ZM10.9545 20.5393C11.1992 20.4241 11.4487 20.3665 11.7031 20.3665C11.9862 20.3665 12.2501 20.4193 12.4949 20.5249C12.7396 20.6257 12.9363 20.784 13.0851 21C13.2387 21.2159 13.3154 21.4942 13.3154 21.8349C13.3154 22.142 13.2411 22.418 13.0923 22.6627C12.9435 22.9026 12.7444 23.0922 12.4949 23.2313C12.2501 23.3657 11.9838 23.4329 11.6959 23.4329C11.384 23.4329 11.108 23.3561 10.8681 23.2026C10.6282 23.0442 10.441 22.8163 10.3066 22.5187C10.1771 22.2164 10.1123 21.8493 10.1123 21.4174C10.1123 21.2639 10.1915 21.1079 10.3498 20.9496C10.5082 20.7864 10.7097 20.6496 10.9545 20.5393ZM20.6902 22.6998C20.4455 23.2085 20.0376 23.4628 19.4665 23.4628C18.9003 23.4628 18.49 23.2061 18.2357 22.6926C17.9861 22.1792 17.8613 21.3178 17.8613 20.1085C17.8613 18.8609 17.9885 17.9683 18.2428 17.4309C18.4972 16.8934 18.9051 16.6247 19.4665 16.6247C20.028 16.6247 20.4335 16.891 20.683 17.4237C20.9325 17.9563 21.0573 18.8513 21.0573 20.1085C21.0573 21.3274 20.9349 22.1912 20.6902 22.6998ZM25.595 15.6495C25.595 16.1163 25.2166 16.4947 24.7497 16.4947C24.2829 16.4947 23.9045 16.1163 23.9045 15.6495C23.9045 15.1827 24.2829 14.8042 24.7497 14.8042C25.2166 14.8042 25.595 15.1827 25.595 15.6495ZM28.6183 15.6495C28.6183 16.1163 28.2399 16.4947 27.773 16.4947C27.3062 16.4947 26.9278 16.1163 26.9278 15.6495C26.9278 15.1827 27.3062 14.8042 27.773 14.8042C28.2399 14.8042 28.6183 15.1827 28.6183 15.6495ZM30.7963 16.4947C31.2631 16.4947 31.6416 16.1163 31.6416 15.6495C31.6416 15.1827 31.2631 14.8042 30.7963 14.8042C30.3295 14.8042 29.9511 15.1827 29.9511 15.6495C29.9511 16.1163 30.3295 16.4947 30.7963 16.4947Z" fill="#3366FF"/>
</svg>
