
<svg width="290" height="100" viewBox="0 0 290 100" fill="none" xmlns="http://www.w3.org/2000/svg">
<path fill-rule="evenodd" clip-rule="evenodd" d="M250.635 31.1828C253.023 31.1828 255.228 31.6251 257.25 32.5096C259.271 33.3941 260.908 34.6614 262.161 36.3114C262.775 37.1208 263.247 38.014 263.576 38.9912C264.68 36.8701 266.112 35.2042 267.875 33.9936C270.047 32.4967 272.636 31.7482 275.643 31.7482C280.119 31.7482 283.627 33.4067 286.166 36.7237C288.722 40.0237 290 44.7101 290 50.7827C290 56.8214 288.739 61.4907 286.216 64.7907C283.711 68.0737 280.178 69.7152 275.618 69.7152C271.057 69.7152 267.508 68.0737 264.969 64.7907C264.353 63.9902 263.811 63.1096 263.345 62.1489C263.196 62.4291 263.035 62.7044 262.862 62.975C261.643 64.8802 259.956 66.3856 257.801 67.4912C255.646 68.5969 253.174 69.1497 250.384 69.1497C247.177 69.1497 244.412 68.3928 242.091 66.8789C239.994 65.4865 238.34 63.5947 237.127 61.2033C236.931 61.8028 236.673 62.3679 236.356 62.8985C235.537 64.2933 234.401 65.4585 232.948 66.3941C231.511 67.3126 229.849 68.0016 227.962 68.4608C226.091 68.9201 224.103 69.1497 221.998 69.1497C218.908 69.1497 216.302 68.6564 214.181 67.6699C212.076 66.6833 210.472 65.2714 209.37 63.4343C208.267 61.5972 207.817 59.5886 207.528 56.8003H215.894C216.163 58.8441 216.928 60.2364 218.064 61.0358C219.217 61.8353 220.545 62.2351 222.048 62.2351C223.401 62.2351 224.562 62.0395 225.531 61.6482C226.5 61.257 227.235 60.7212 227.736 60.0407C228.254 59.3603 228.513 58.5694 228.513 57.6678C228.513 56.8173 228.262 56.0688 227.761 55.4225C227.277 54.7591 226.584 54.2402 225.682 53.866C224.779 53.4918 223.727 53.2792 222.524 53.2281L218.991 53.0495V46.2624L222.123 46.0583C223.293 45.9903 224.295 45.7691 225.13 45.3949C225.982 45.0207 226.634 44.5189 227.085 43.8895C227.536 43.2601 227.761 42.5116 227.761 41.6441C227.761 40.8276 227.494 40.1302 226.959 39.5519C226.442 38.9735 225.748 38.5397 224.88 38.2506C224.011 37.9444 223.042 37.7913 221.973 37.7913C220.887 37.7913 219.902 37.9614 219.016 38.3016C218.148 38.6418 217.438 39.2117 216.887 40.0111C216.603 40.4393 216.454 41.3152 216.197 42.8235C216.171 42.9767 216.144 43.1363 216.116 43.3026H207.72C207.785 42.9287 207.845 42.5661 207.903 42.2144C208.287 39.892 208.593 38.0412 209.695 36.49C210.965 34.6869 212.686 33.3516 214.857 32.4841C217.045 31.6166 219.484 31.1828 222.174 31.1828C224.963 31.1828 227.461 31.5315 229.665 32.2289C231.87 32.9263 233.608 34.0235 234.877 35.5204C236.027 36.8435 236.663 38.5134 236.785 40.53C236.808 40.4759 236.831 40.422 236.854 40.3683C238.123 37.4086 239.927 35.1377 242.266 33.5557C244.621 31.9738 247.411 31.1828 250.635 31.1828ZM235.291 46.0235C234.304 47.3767 232.646 48.4514 230.317 49.2477C231.553 49.5879 232.722 50.1237 233.825 50.8552C234.231 51.1244 234.609 51.4235 234.961 51.7527C234.953 51.4733 234.949 51.1911 234.949 50.9062C234.949 49.1763 235.063 47.5487 235.291 46.0235ZM256.398 42.3075H262.25C261.706 44.1449 261.365 46.1958 261.229 48.4603C260.506 47.8163 259.681 47.2623 258.753 46.7982C256.882 45.8627 254.702 45.3949 252.213 45.3949C251.211 45.3949 250.234 45.5055 249.282 45.7266C248.33 45.9307 247.436 46.2369 246.601 46.6451C245.782 47.0534 245.072 47.5637 244.471 48.1761C244.237 46.2709 244.329 44.5444 244.747 42.9964C245.181 41.4485 245.916 40.2238 246.951 39.3222C247.987 38.4037 249.282 37.9444 250.835 37.9444C252.272 37.9444 253.449 38.3016 254.368 39.016C255.287 39.7305 255.963 40.8276 256.398 42.3075ZM250.084 51.7482C249.198 51.7482 248.33 51.9524 247.478 52.3606C246.626 52.7518 245.924 53.2366 245.373 53.815C244.822 54.3763 244.546 54.9292 244.546 55.4735C244.546 57.0044 244.772 58.3057 245.223 59.3773C245.69 60.432 246.342 61.24 247.177 61.8013C248.012 62.3456 248.973 62.6178 250.058 62.6178C251.061 62.6178 251.988 62.3797 252.84 61.9034C253.708 61.4101 254.402 60.7382 254.919 59.8876C255.437 59.0201 255.696 58.042 255.696 56.9534C255.696 55.7456 255.429 54.7591 254.894 53.9936C254.377 53.2281 253.692 52.6668 252.84 52.3096C251.988 51.9353 251.069 51.7482 250.084 51.7482ZM275.593 62.724C277.58 62.724 279 61.8224 279.852 60.0193C280.704 58.2162 281.13 55.1544 281.13 50.8338C281.13 46.3771 280.696 43.2047 279.827 41.3165C278.958 39.4284 277.547 38.4843 275.593 38.4843C273.638 38.4843 272.218 39.4369 271.333 41.342C270.448 43.2472 270.005 46.4111 270.005 50.8338C270.005 55.1204 270.439 58.1737 271.308 59.9938C272.193 61.8139 273.621 62.724 275.593 62.724Z" fill="#1465FA"/>
<path d="M277.781 74.9943C269.322 89.7291 253.622 99.6277 235.652 99.6277C224.676 99.6277 214.546 95.9344 206.396 89.7016L190.095 94.0075L194.723 76.9753C189.767 69.2023 186.889 59.929 186.889 49.9711C186.889 22.5465 208.721 0.314453 235.652 0.314453C254.071 0.314453 270.105 10.7139 278.401 26.0614C277.742 25.9843 277.07 25.9457 276.384 25.9457C272.818 25.9457 269.733 26.9691 267.128 29.0158C265.728 30.1232 264.502 31.4915 263.448 33.1207C257.804 23.4873 247.468 17.035 235.652 17.035C217.789 17.035 203.309 31.781 203.309 49.9711C203.309 68.1612 217.789 82.9072 235.652 82.9072C241.722 82.9072 247.401 81.2047 252.254 78.2432L263.902 81.32L260.958 70.4853C261.666 69.5799 262.329 68.6358 262.942 67.6563C264.055 69.4355 265.385 70.9265 266.934 72.1294C269.502 74.0881 272.56 75.0674 276.107 75.0674C276.677 75.0674 277.235 75.0431 277.781 74.9943Z" fill="#1465FA"/>
<path d="M48.1881 50.1779C48.1881 53.2125 48.1881 56.3211 48.1881 59.3556C48.1881 59.8737 48.0427 59.9477 47.6066 59.9477C45.7169 59.9477 43.7545 59.9477 41.8647 59.9477C41.4286 59.9477 41.356 59.7997 41.356 59.4296C41.356 57.2092 41.356 54.9888 41.356 52.7684C41.356 52.3243 41.2833 52.2503 40.8472 52.2503C38.0126 52.2503 35.1053 52.2503 32.2707 52.2503C31.8346 52.2503 31.762 52.3984 31.762 52.7684C31.762 54.9888 31.762 57.2092 31.762 59.3556C31.762 59.8737 31.6166 59.9477 31.1805 59.9477C29.2908 59.9477 27.3284 59.9477 25.4386 59.9477C25.0752 59.9477 24.9299 59.8737 24.9299 59.4296C24.9299 53.2865 24.9299 47.0694 24.9299 40.9263C24.9299 40.4822 25.0752 40.3342 25.5113 40.4082C27.401 40.4082 29.3634 40.4082 31.2532 40.4082C31.6893 40.4082 31.8346 40.4822 31.8346 40.9263C31.8346 43.1467 31.8346 45.2931 31.8346 47.5135C31.8346 47.8835 31.9073 48.0316 32.3434 48.0316C35.2507 48.0316 38.0853 48.0316 40.9926 48.0316C41.356 48.0316 41.5013 47.9576 41.5013 47.5135C41.5013 45.2931 41.5013 43.0727 41.5013 40.9263C41.5013 40.5562 41.574 40.4082 42.0101 40.4082C43.9725 40.4082 45.9349 40.4082 47.8973 40.4082C48.3334 40.4082 48.4061 40.4822 48.4061 40.9263C48.1881 44.0348 48.1881 47.0694 48.1881 50.1779Z" fill="#1465FA"/>
<path d="M146.963 59.9478C144.782 59.8738 142.093 60.0958 139.477 59.8738C138.241 59.7257 137.005 59.5037 135.842 58.9116C134.68 58.2455 134.098 57.2093 134.098 55.877C134.098 52.2504 134.098 48.6237 134.098 44.9971C134.098 43.2207 134.898 42.0365 136.424 41.2964C137.514 40.7783 138.75 40.5563 139.985 40.5563C144.782 40.4823 149.652 40.5563 154.449 40.4823C154.812 40.4823 154.885 40.6303 154.885 40.9263C154.885 42.0365 154.885 43.1467 154.885 44.1829C154.885 44.627 154.74 44.701 154.376 44.701C150.597 44.701 146.817 44.701 143.038 44.701C142.893 44.701 142.675 44.701 142.529 44.701C141.221 44.9231 140.93 45.2191 141.003 46.5513C141.003 46.9954 140.857 47.6615 141.076 47.9576C141.366 48.2537 142.02 48.0316 142.456 48.0316C144.274 48.0316 146.018 48.0316 147.835 48.0316C148.198 48.0316 148.271 48.1056 148.271 48.4757C148.271 49.5859 148.271 50.6961 148.271 51.8063C148.271 52.1764 148.126 52.2504 147.762 52.2504C145.727 52.2504 143.692 52.2504 141.657 52.2504C140.857 52.2504 141.003 52.1764 141.003 52.9905C141.003 53.4346 141.003 53.8787 141.003 54.3968C141.003 54.9889 141.294 55.3589 141.875 55.581C142.238 55.729 142.674 55.803 143.111 55.803C146.89 55.803 150.597 55.803 154.376 55.803C154.812 55.803 154.958 55.951 154.958 56.3951C154.958 57.4313 154.958 58.5415 154.958 59.5777C154.958 59.9478 154.885 60.0958 154.449 60.0958C152.05 59.9478 149.797 59.9478 146.963 59.9478Z" fill="#1465FA"/>
<path d="M64.9049 45.5151C63.9601 47.5874 63.0879 49.5858 62.143 51.5101C60.9074 54.1746 59.7445 56.8391 58.5089 59.5036C58.3636 59.8737 58.1455 59.9477 57.7821 59.9477C55.6017 59.9477 53.4212 59.9477 51.1681 59.9477C51.0954 59.7256 51.1681 59.6516 51.2407 59.5036C54.0753 53.9526 56.9099 48.4016 59.7445 42.8506C60.7621 41.2223 62.2157 40.5562 63.9601 40.3341C65.1957 40.1861 66.5039 40.1861 67.7395 40.5562C69.1205 40.9262 70.2107 41.7404 70.8648 43.0726C73.6268 48.5496 76.4613 54.0266 79.2959 59.5036C79.514 59.9477 79.514 60.0217 79.0052 60.0217C76.9701 60.0217 74.8623 60.0217 72.8273 60.0217C72.4638 60.0217 72.2458 59.8737 72.1004 59.5776C69.7746 55.0628 67.4488 50.474 65.123 45.9591C65.123 45.8111 65.0503 45.6631 64.9049 45.5151Z" fill="#1465FA"/>
<path d="M12.792 40.4083C15.3359 40.4083 17.8071 40.4083 20.3509 40.4083C20.7143 40.4083 20.8597 40.4823 20.8597 40.9264C20.8597 41.9625 20.8597 43.0728 20.8597 44.1089C20.8597 44.553 20.787 44.701 20.3509 44.701C16.5715 44.701 12.7193 44.701 8.93987 44.701C8.72183 44.701 8.4311 44.701 8.21306 44.7751C7.19551 44.9231 6.97746 45.2191 6.97746 46.2553C6.97746 48.8458 6.97746 51.4363 6.97746 53.9527C6.97746 55.359 7.41355 55.729 8.72183 55.803C9.59401 55.803 10.3935 55.803 11.2657 55.803C14.2457 55.803 17.2983 55.803 20.2783 55.803C20.787 55.803 20.8597 55.9511 20.8597 56.3952C20.8597 57.5054 20.8597 58.5415 20.8597 59.6517C20.8597 59.9478 20.787 60.0958 20.4236 60.0958C15.6993 60.0958 10.9023 60.0958 6.17796 60.0958C4.79701 60.0958 3.41605 59.7258 2.18046 59.1336C0.799501 58.4675 0 57.3573 0 55.729C0 52.1024 0 48.4757 0.0726819 44.8491C0.0726819 42.1846 1.16291 41.1484 3.6341 40.7043C5.30578 40.4083 7.05014 40.4083 8.72183 40.4083C10.1028 40.4083 11.4111 40.4083 12.792 40.4083Z" fill="#1465FA"/>
<path d="M158.81 48.0316C158.81 45.6632 158.81 43.2948 158.81 40.9264C158.81 40.5563 158.883 40.4083 159.319 40.4083C161.281 40.4083 163.244 40.4083 165.206 40.4083C165.642 40.4083 165.715 40.5563 165.715 41.0004C165.715 45.5152 165.715 50.03 165.715 54.4708C165.715 55.285 165.86 55.507 166.732 55.655C167.023 55.729 167.241 55.729 167.532 55.729C171.384 55.729 175.163 55.729 179.016 55.729C179.452 55.729 179.597 55.803 179.597 56.2471C179.524 57.3573 179.597 58.4675 179.597 59.5777C179.597 59.8738 179.524 59.9478 179.234 59.9478C174.945 59.9478 170.73 59.9478 166.442 59.9478C165.061 59.9478 163.68 59.7998 162.299 59.4297C159.9 58.7636 158.883 57.4313 158.883 54.9149C158.81 52.6205 158.81 50.3261 158.81 48.0316Z" fill="#1465FA"/>
<path d="M65.0503 50.3261C65.9225 52.1024 66.7946 53.7307 67.6668 55.433C67.8122 55.729 67.6668 55.729 67.4488 55.729C65.9951 55.729 64.4688 55.729 63.0152 55.729C62.7971 55.729 62.7245 55.655 62.7971 55.433C63.524 53.7307 64.2508 52.1024 65.0503 50.3261Z" fill="#1465FA"/>
<path d="M106.261 54.9888C106.116 54.5447 105.897 54.1747 105.752 53.7306C105.461 53.0645 105.171 52.3983 104.807 51.8062C104.226 50.474 103.644 49.0677 102.918 47.8095L100.519 42.5546C100.083 42.4805 100.301 42.7766 100.301 42.9246C100.301 46.3292 100.301 49.8079 100.301 53.2125C100.301 53.5085 100.374 53.7306 100.228 53.9526C99.9376 53.2865 99.5742 52.6204 99.2834 51.9543C99.0654 51.4362 98.8473 50.9921 98.6293 50.474C98.1205 49.3638 97.5391 48.1796 97.0303 47.0694L95.1405 43.1467C94.4864 41.8884 93.6142 40.8523 92.2333 40.4082C91.7245 40.1121 91.1431 40.0381 90.5616 39.8901C89.6167 39.8161 88.5992 39.668 87.6543 39.8901C86.7821 39.8161 85.9826 40.1121 85.1831 40.4082C84.8197 40.5562 84.3836 40.7042 84.0202 41.0003C83.7295 41.1483 83.4388 41.3703 83.2207 41.6664C82.6393 42.1845 82.3485 42.8506 82.4212 43.6648C82.4212 44.0348 82.4212 44.4049 82.4212 44.7009V46.4033C82.4212 47.0694 82.4212 47.7355 82.4212 48.4016C82.4212 48.7717 82.4212 49.1417 82.4212 49.4378V51.2141C82.4212 51.7322 82.4212 52.1763 82.4212 52.6944C82.4212 53.2125 82.4212 53.6566 82.4212 54.1747C82.4212 54.9888 82.4212 55.877 82.4212 56.6911C82.4212 57.5053 82.4212 58.3194 82.4212 59.1335C82.4212 59.5036 82.5666 59.5036 82.8573 59.5036C83.8022 59.5036 84.6744 59.5036 85.5465 59.2816C85.9826 59.2076 86.4187 59.1335 86.7821 58.8375C87.0729 58.7635 87.3636 58.6155 87.5816 58.3934C87.7997 58.2454 88.1631 58.1714 88.2358 57.8013C88.8172 57.5053 89.0353 56.9872 89.2533 56.3951C89.3987 56.173 89.326 55.803 89.4714 55.5809C89.5441 55.4329 89.5441 55.2108 89.5441 54.9888C89.5441 52.0283 89.5441 49.1417 89.5441 46.1812C89.5441 45.9592 89.5441 45.7371 89.4714 45.5891C89.6894 45.4411 89.6894 45.6631 89.7621 45.8111C90.1255 46.6253 90.4889 47.3654 90.925 48.1796C91.5791 49.5858 92.2333 50.9921 92.8874 52.3983C93.4689 53.6566 94.0503 54.8408 94.5591 56.099C95.5767 58.4674 97.4664 59.4296 99.8649 59.5776C100.01 59.6516 100.228 59.6516 100.446 59.6516C101.1 59.6516 101.755 59.6516 102.409 59.6516C102.481 59.6516 102.481 59.6516 102.554 59.6516C103.281 59.5776 103.935 59.4296 104.589 59.2076C105.025 58.9855 105.461 58.7635 105.825 58.6155C106.334 58.3194 106.624 57.8753 106.77 57.3572C107.206 56.4691 106.697 55.7289 106.261 54.9888ZM129.083 40.1861C128.284 40.1861 127.411 40.1121 126.612 40.3342C125.885 40.4082 125.231 40.6302 124.577 41.0003H124.649C124.649 41.0003 124.649 41.0003 124.577 41.0003C124.577 41.0003 124.577 41.0003 124.504 41.0003C123.923 41.2223 123.414 41.5924 123.05 42.0365C122.76 42.2585 122.542 42.6286 122.396 42.9986C121.815 43.8868 121.96 44.923 122.033 45.8852C122.033 46.6993 122.033 47.5135 122.033 48.3276C122.033 48.9197 122.033 49.4378 122.033 50.0299C122.033 50.4 122.033 50.77 122.033 51.0661C122.033 51.7322 122.033 52.3243 122.033 52.9904C122.033 53.3605 122.033 53.8046 122.033 54.1747C121.815 54.2487 121.815 54.0266 121.742 53.9526C121.306 53.1385 120.943 52.3243 120.579 51.5102C120.434 51.2141 120.361 50.8441 120.143 50.622C119.707 49.5858 119.271 48.5496 118.689 47.5135C118.108 46.2552 117.527 45.071 117.018 43.8128C115.928 41.2223 113.892 40.3342 111.349 40.2601C110.694 40.0381 110.04 40.1861 109.386 40.1861C108.659 40.2601 107.933 40.3342 107.278 40.5562C107.133 40.6302 106.988 40.6302 106.77 40.7042C106.261 41.0003 105.679 41.1483 105.243 41.6664C105.098 41.7404 105.025 41.8884 105.098 42.1105C104.589 42.9246 104.371 43.7388 104.88 44.6269C105.025 44.923 105.171 45.219 105.316 45.5151C105.825 46.5513 106.261 47.6615 106.842 48.6977C107.496 50.2519 108.223 51.7322 108.95 53.2125C109.532 54.5447 110.186 55.877 110.84 57.2092C110.84 57.4312 110.913 57.5793 111.131 57.7273C111.131 57.6533 111.203 57.5793 111.203 57.5053C111.203 53.6566 111.203 49.8079 111.203 45.8852C111.639 46.5513 111.93 47.2914 112.221 47.9575C112.439 48.4016 112.584 48.8457 112.802 49.2158C113.529 50.696 114.183 52.2503 114.983 53.7306C115.273 54.6927 115.855 55.5069 116.218 56.4691C117.018 58.3934 118.399 59.5036 120.361 59.9477C120.87 59.9477 121.379 60.1697 121.96 60.1697C122.542 60.1697 123.05 60.1697 123.632 60.1697C123.705 60.1697 123.705 60.1697 123.777 60.1697C124.359 60.0957 124.867 60.0957 125.449 59.8737C126.103 59.7997 126.685 59.5036 127.193 59.2076C127.775 58.9855 128.211 58.6155 128.647 58.0974C128.792 57.9493 128.938 57.8013 129.01 57.5793C129.301 57.1352 129.301 56.6171 129.301 56.099C129.301 50.9921 129.301 45.9592 129.301 40.8523C129.228 40.5562 129.301 40.3342 129.083 40.1861Z" fill="#1465FA"/>
</svg>
