<svg width="695" height="128" viewBox="0 0 695 128" fill="none" xmlns="http://www.w3.org/2000/svg">
<path d="M14.4758 44.9591V45.1162C14.4702 46.0979 14.1157 47.0456 13.4758 47.79V47.802C12.1901 49.321 10.6663 52.04 10.6663 56.3877C10.6663 60.3281 11.9282 63.1091 13.4472 64.9377C14.1137 65.7488 14.4773 66.7664 14.4758 67.8162C14.4758 69.8369 15.2785 71.7749 16.7074 73.2037C18.1362 74.6326 20.0741 75.4353 22.0948 75.4353H23.9996C24.5048 75.4353 24.9893 75.2346 25.3465 74.8774C25.7037 74.5202 25.9044 74.0357 25.9044 73.5305V39.2448C25.9044 38.7396 25.7037 38.2552 25.3465 37.8979C24.9893 37.5407 24.5048 37.34 23.9996 37.34H22.0948C20.0741 37.34 18.1362 38.1428 16.7074 39.5716C15.2785 41.0005 14.4758 42.9384 14.4758 44.9591ZM110.709 47.471L110.488 47.4305C110.27 47.389 110.074 47.2728 109.932 47.102C109.791 46.9312 109.714 46.7164 109.714 46.4948V17.8162C109.714 14.8067 107.716 12.102 104.74 11.0734C101.902 10.0948 98.9448 10.8924 97.1972 13.1043C93.4794 17.5439 89.3926 21.661 84.9805 25.4115C79.3543 30.1734 73.971 33.5662 69.0282 35.4853C68.6677 35.6227 68.3575 35.8663 68.1385 36.1839C67.9196 36.5015 67.8022 36.8781 67.802 37.2639V74.2448C67.8026 74.9895 68.0214 75.7177 68.4315 76.3393C68.8415 76.9609 69.4248 77.4487 70.1091 77.7424C74.7139 79.7162 79.6901 82.94 84.871 87.3329C89.3163 91.1174 93.4326 95.2719 97.1758 99.752C97.7755 100.504 98.5409 101.108 99.4124 101.515C100.284 101.923 101.238 102.124 102.2 102.102C103.045 102.098 103.884 101.958 104.685 101.688C107.74 100.673 109.714 98.0662 109.714 95.0543V66.2758C109.714 66.051 109.794 65.8335 109.939 65.6618C110.084 65.4901 110.285 65.3753 110.507 65.3377L110.709 65.3043C113 64.6829 117.333 62.0234 117.333 56.3877C117.333 50.7519 113 48.0924 110.709 47.471Z" fill="#3A9CC4"/>
<path d="M117.332 56.3095C117.332 61.5002 113.22 65.7082 109.77 65.7082C109.77 60.5175 109.806 47.0931 109.806 47.0931C113.398 47.4131 117.332 51.1187 117.332 56.3095Z" fill="#1C6292"/>
<path d="M60.1923 79.2436V39.2436C60.1923 38.7385 59.9916 38.254 59.6344 37.8968C59.2772 37.5395 58.7927 37.3389 58.2875 37.3389H35.4304C34.9252 37.3389 34.4407 37.5395 34.0835 37.8968C33.7263 38.254 33.5256 38.7385 33.5256 39.2436V111.625C33.5256 113.14 34.1277 114.594 35.1993 115.665C36.2709 116.737 37.7244 117.339 39.2399 117.339H51.728C52.9151 117.349 54.0887 117.087 55.1588 116.573C56.229 116.059 57.1673 115.307 57.9018 114.375C58.6549 113.409 59.1615 112.275 59.3776 111.07C59.5938 109.865 59.513 108.625 59.1423 107.458C58.7566 106.225 58.278 104.839 57.7685 103.365C55.8852 97.9127 53.4018 94.5389 52.7399 86.8603C54.7312 86.8167 56.6262 85.9951 58.0191 84.5715C59.4121 83.1479 60.1922 81.2354 60.1923 79.2436Z" fill="#1C6292"/>
<path d="M46.2898 109.728C46.2425 109.585 46.1714 109.467 46.124 109.325C46.0292 109.112 45.9344 108.898 45.816 108.709C45.6264 108.282 45.4369 107.832 45.1999 107.429L44.418 105.747C44.2759 105.723 44.3469 105.818 44.3469 105.865C44.3469 106.955 44.3469 108.069 44.3469 109.159C44.3469 109.254 44.3706 109.325 44.3232 109.396C44.2285 109.183 44.11 108.969 44.0152 108.756C43.9441 108.59 43.8731 108.448 43.802 108.282C43.6361 107.927 43.4466 107.548 43.2807 107.192L42.6647 105.937C42.4514 105.534 42.1671 105.202 41.7169 105.06C41.5511 104.965 41.3615 104.941 41.172 104.894C40.8639 104.87 40.5322 104.823 40.2242 104.894C39.9399 104.87 39.6792 104.965 39.4186 105.06C39.3001 105.107 39.158 105.155 39.0395 105.249C38.9447 105.297 38.8499 105.368 38.7789 105.463C38.5893 105.628 38.4945 105.842 38.5182 106.102C38.5182 106.221 38.5182 106.339 38.5182 106.434V106.979C38.5182 107.192 38.5182 107.406 38.5182 107.619C38.5182 107.737 38.5182 107.856 38.5182 107.951V108.519C38.5182 108.685 38.5182 108.827 38.5182 108.993C38.5182 109.159 38.5182 109.301 38.5182 109.467C38.5182 109.728 38.5182 110.012 38.5182 110.273C38.5182 110.533 38.5182 110.794 38.5182 111.054C38.5182 111.173 38.5656 111.173 38.6604 111.173C38.9684 111.173 39.2527 111.173 39.5371 111.102C39.6792 111.078 39.8214 111.054 39.9399 110.96C40.0346 110.936 40.1294 110.889 40.2005 110.817C40.2716 110.77 40.3901 110.746 40.4137 110.628C40.6033 110.533 40.6744 110.367 40.7455 110.178C40.7928 110.107 40.7692 109.988 40.8165 109.917C40.8402 109.87 40.8402 109.799 40.8402 109.728C40.8402 108.78 40.8402 107.856 40.8402 106.908C40.8402 106.837 40.8402 106.766 40.8165 106.718C40.8876 106.671 40.8876 106.742 40.9113 106.79C41.0298 107.05 41.1483 107.287 41.2904 107.548C41.5037 107.998 41.7169 108.448 41.9302 108.898C42.1197 109.301 42.3093 109.68 42.4751 110.083C42.8068 110.841 43.4229 111.149 44.2048 111.197C44.2522 111.22 44.3232 111.22 44.3943 111.22C44.6076 111.22 44.8208 111.22 45.0341 111.22C45.0578 111.22 45.0578 111.22 45.0815 111.22C45.3184 111.197 45.5316 111.149 45.7449 111.078C45.887 111.007 46.0292 110.936 46.1477 110.889C46.3135 110.794 46.4083 110.652 46.4557 110.486C46.5979 110.201 46.432 109.964 46.2898 109.728ZM53.7298 104.989C53.4691 104.989 53.1848 104.965 52.9242 105.036C52.6872 105.06 52.474 105.131 52.2607 105.249H52.2844C52.2844 105.249 52.2844 105.249 52.2607 105.249C52.2607 105.249 52.2607 105.249 52.237 105.249C52.0475 105.32 51.8816 105.439 51.7632 105.581C51.6684 105.652 51.5973 105.771 51.5499 105.889C51.3604 106.173 51.4077 106.505 51.4314 106.813C51.4314 107.074 51.4314 107.334 51.4314 107.595C51.4314 107.785 51.4314 107.951 51.4314 108.14C51.4314 108.259 51.4314 108.377 51.4314 108.472C51.4314 108.685 51.4314 108.875 51.4314 109.088C51.4314 109.206 51.4314 109.348 51.4314 109.467C51.3604 109.491 51.3604 109.42 51.3367 109.396C51.1945 109.135 51.076 108.875 50.9576 108.614C50.9102 108.519 50.8865 108.401 50.8154 108.33C50.6732 107.998 50.5311 107.666 50.3415 107.334C50.152 106.932 49.9624 106.553 49.7965 106.15C49.4411 105.32 48.7777 105.036 47.9484 105.012C47.7352 104.941 47.5219 104.989 47.3087 104.989C47.0717 105.012 46.8348 105.036 46.6216 105.107C46.5742 105.131 46.5268 105.131 46.4557 105.155C46.2898 105.249 46.1003 105.297 45.9581 105.463C45.9107 105.486 45.8871 105.534 45.9107 105.605C45.7449 105.865 45.6738 106.126 45.8397 106.41C45.887 106.505 45.9344 106.6 45.9818 106.695C46.1477 107.026 46.2898 107.382 46.4794 107.714C46.6926 108.211 46.9296 108.685 47.1665 109.159C47.3561 109.585 47.5693 110.012 47.7826 110.438C47.7826 110.509 47.8063 110.557 47.8773 110.604C47.8773 110.581 47.901 110.557 47.901 110.533C47.901 109.301 47.901 108.069 47.901 106.813C48.0432 107.026 48.138 107.263 48.2327 107.477C48.3038 107.619 48.3512 107.761 48.4223 107.879C48.6592 108.353 48.8725 108.851 49.1331 109.325C49.2279 109.633 49.4174 109.893 49.5359 110.201C49.7966 110.817 50.2467 111.173 50.8865 111.315C51.0523 111.315 51.2182 111.386 51.4077 111.386C51.5973 111.386 51.7631 111.386 51.9527 111.386C51.9764 111.386 51.9764 111.386 52.0001 111.386C52.1896 111.362 52.3555 111.362 52.5451 111.291C52.7583 111.268 52.9478 111.173 53.1137 111.078C53.3033 111.007 53.4454 110.889 53.5876 110.723C53.635 110.675 53.6824 110.628 53.706 110.557C53.8008 110.415 53.8008 110.249 53.8008 110.083C53.8008 108.448 53.8008 106.837 53.8008 105.202C53.7771 105.107 53.8008 105.036 53.7298 104.989Z" fill="#3A9CC4"/>
<path d="M49.5685 56.3309C49.5685 56.852 49.9909 57.2745 50.512 57.2745C51.0331 57.2745 51.4556 56.852 51.4556 56.3309C51.4556 55.8098 51.0331 55.3874 50.512 55.3874C49.9909 55.3874 49.5685 55.8098 49.5685 56.3309Z" fill="#3A9CC4"/>
<path d="M47.3888 57.2749C46.8677 57.2749 46.4452 56.8525 46.4452 56.3314C46.4452 55.8103 46.8677 55.3878 47.3888 55.3878C47.9099 55.3878 48.3323 55.8103 48.3323 56.3314C48.3323 56.8525 47.9099 57.2749 47.3888 57.2749Z" fill="#3A9CC4"/>
<path d="M43.2287 56.3314C43.2287 56.8525 43.6511 57.2749 44.1722 57.2749C44.6933 57.2749 45.1158 56.8525 45.1158 56.3314C45.1158 55.8103 44.6933 55.3878 44.1722 55.3878C43.6511 55.3878 43.2287 55.8103 43.2287 56.3314Z" fill="#3A9CC4"/>
<path fill-rule="evenodd" clip-rule="evenodd" d="M40.0582 60.4084C39.587 59.5726 39.2551 58.6478 39.0941 57.6655C39.0185 57.213 38.9792 56.7482 38.9792 56.2742C38.9792 51.6449 42.7319 47.8921 47.3612 47.8921C51.9905 47.8921 55.7433 51.6449 55.7433 56.2742C55.7433 56.8772 55.6796 57.4653 55.5586 58.0322C54.7608 61.8278 51.3935 64.6775 47.3607 64.6775C45.926 64.6775 44.5755 64.3169 43.395 63.6813L38.814 64.8724L40.0582 60.4084ZM46.5283 62.6748C46.8008 62.71 47.0786 62.7282 47.3607 62.7282C50.9106 62.7282 53.7884 59.8504 53.7884 56.3004C53.7884 52.7505 50.9106 49.8727 47.3607 49.8727C43.8107 49.8727 40.9329 52.7505 40.9329 56.3004C40.9329 56.5578 40.9481 56.8117 40.9775 57.0612C41.2729 58.7937 42.1699 60.0353 42.1699 60.0353L41.5949 62.1395L43.7051 61.5882L43.7069 61.5894L43.7478 61.5787C44.5505 62.1123 45.5921 62.5158 46.5283 62.6748Z" fill="#3A9CC4"/>
<path d="M211.46 60.5404C220.325 60.5404 221.943 64.1991 221.943 67.1542C221.943 72.4311 215.681 74.4012 210.967 74.4012C206.957 74.4012 200.132 72.6422 200.132 67.5763H190.774C190.844 78.7635 201.539 82.7036 210.897 82.7036C220.395 82.7036 231.723 79.1153 231.723 67.0838C231.723 62.9326 228.416 58.2889 223.702 56.741C227.994 55.4042 230.527 50.9012 230.527 47.0314C230.457 36.5479 220.466 32.0449 211.178 32.0449C202.102 32.0449 191.548 35.9147 191.548 46.5389H200.835C200.835 42.0359 206.746 40.488 211.108 40.488C218.988 40.488 221.24 44.2171 221.24 47.0314C221.169 51.6048 215.892 52.9416 210.897 52.9416H203.79V60.5404H211.46ZM247.293 48.1572C247.293 42.8099 252.922 39.7844 258.48 39.8548C263.757 39.8548 269.245 42.0359 269.245 46.3982H278.533C278.533 36.0554 269.034 31.8338 258.34 31.8338C248.208 31.8338 238.076 36.97 238.076 47.9461V66.3099C238.076 77.3563 248.56 82.774 258.621 82.774C268.542 82.774 279.025 77.3563 279.025 66.4506C279.025 54.2081 268.612 50.0569 258.692 50.0569C254.822 50.0569 249.475 51.8862 247.293 55.2635V47.8757V48.1572ZM258.621 74.4716C252.57 74.4716 247.364 71.8683 247.293 66.4506C247.223 60.9626 252.5 58.1482 258.692 58.1482C264.883 58.1482 269.808 61.0329 269.808 66.4506C269.808 71.8683 264.461 74.4716 258.621 74.4716ZM293.949 53.7859C293.949 35.985 318.716 36.1961 318.716 53.7859V60.8922C318.716 78.7635 293.949 78.7635 293.949 60.8922V53.7859ZM284.732 60.8922C284.732 90.3024 327.933 90.232 327.933 60.8922V53.7859C327.933 24.4461 284.732 24.3757 284.732 53.7859V60.8922Z" fill="#1C6292"/>
<path d="M344.313 57.6938H358.525C362.325 57.6938 367.743 60.0157 367.743 64.4483C367.743 69.092 362.325 70.3585 358.525 70.3585H344.313V57.6938ZM344.313 38.2043H358.525C364.436 38.2043 366.265 42.0037 366.265 44.2552C366.265 47.0696 364.365 49.5321 358.525 49.5321H344.313V38.2043ZM358.525 29.7612C350.716 29.7612 342.906 29.7612 335.166 29.7612V79.0127C342.976 79.0127 350.716 79.0127 358.525 79.0127C368.728 79.0127 376.96 75.4947 376.96 64.5187C376.96 61.4229 374.849 55.3016 369.079 53.5426C373.653 51.5022 375.482 47.8435 375.482 44.0441C375.482 34.1235 368.235 29.7612 358.525 29.7612ZM382.843 44.3256V79.0127H391.427V60.7193C391.427 54.3166 395.578 51.9244 400.081 51.9244C402.895 51.9244 404.514 52.6983 406.272 54.1759L410.142 46.7178C408.243 44.8181 404.795 43.4109 401.207 43.4109C397.689 43.4109 394.1 44.0441 391.427 48.336L390.793 44.3256H382.843ZM429.674 43.622C418.627 43.622 411.732 51.7836 411.732 61.7043C411.732 71.6953 418.486 79.7866 429.744 79.7866C441.001 79.7866 447.826 71.6953 447.826 61.7043C447.826 51.7836 440.72 43.622 429.674 43.622ZM429.744 51.4318C435.513 51.4318 439.172 56.4977 439.172 61.7043C439.172 66.9813 436.006 71.9064 429.744 71.9064C423.482 71.9064 420.316 66.9813 420.316 61.7043C420.316 56.4977 423.552 51.4318 429.744 51.4318ZM480.981 49.11C479.011 45.6624 474.578 43.4812 469.934 43.4812C459.803 43.4109 451.852 49.6729 451.852 61.6339C451.852 73.8061 459.451 80.1384 469.723 80.0681C473.593 79.9977 479.011 78.0277 480.981 73.9468L481.403 79.0127H489.494V44.3256H481.262L480.981 49.11ZM470.708 51.1504C484.217 51.1504 484.217 72.1878 470.708 72.1878C465.009 72.1878 460.436 68.2477 460.436 61.6339C460.436 55.0202 465.009 51.1504 470.708 51.1504ZM513.58 51.5022C518.998 51.5022 523.642 55.583 523.642 61.6339C523.642 67.8959 518.998 71.836 513.58 71.836C508.092 71.836 503.73 67.6848 503.73 61.6339C503.73 55.372 508.092 51.5022 513.58 51.5022ZM524.205 29.8315V49.0396C522.164 45.4513 516.465 43.4812 512.806 43.4812C502.675 43.4812 495.146 49.6729 495.146 61.6339C495.146 73.0322 502.815 79.7866 513.017 79.7866C517.239 79.7866 521.531 78.3795 524.205 74.2283L524.767 79.0127H532.788V29.8315H524.205ZM564.251 68.9513C562.14 71.0621 559.396 71.836 556.652 71.836C551.304 71.836 546.801 68.3181 546.801 61.7043C546.801 55.6534 551.023 51.4318 556.792 51.4318C559.185 51.4318 561.718 52.3465 563.758 54.1759L569.176 48.4768C565.376 44.7477 561.577 43.3405 556.652 43.3405C546.59 43.3405 538.218 49.3914 538.218 61.7043C538.218 74.0172 546.59 80.0681 556.652 80.0681C561.788 80.0681 566.01 78.5202 570.02 74.5801L564.251 68.9513ZM601.018 49.11C599.048 45.6624 594.615 43.4812 589.971 43.4812C579.84 43.4109 571.889 49.6729 571.889 61.6339C571.889 73.8061 579.488 80.1384 589.76 80.0681C593.63 79.9977 599.048 78.0277 601.018 73.9468L601.44 79.0127H609.531V44.3256H601.299L601.018 49.11ZM590.745 51.1504C604.254 51.1504 604.254 72.1878 590.745 72.1878C585.046 72.1878 580.473 68.2477 580.473 61.6339C580.473 55.0202 585.046 51.1504 590.745 51.1504ZM644.241 47.9139C640.231 44.3959 636.15 43.3405 630.732 43.3405C624.4 43.3405 616.098 46.1549 616.098 54.1759C616.098 62.0561 623.908 64.4483 630.451 64.9408C635.376 65.2223 637.346 66.2073 637.346 68.5995C637.346 71.1325 634.321 72.8211 631.084 72.7507C627.214 72.6804 621.586 70.6399 619.123 67.8959L614.902 74.0172C619.967 79.2941 625.455 80.2088 630.944 80.2088C640.864 80.2088 645.86 74.9319 645.86 68.8106C645.86 59.5935 637.557 58.116 631.014 57.6938C626.581 57.4124 624.541 56.1459 624.541 53.8944C624.541 51.7133 626.792 50.4468 630.873 50.4468C634.18 50.4468 636.994 51.2208 639.457 53.5426L644.241 47.9139ZM654.88 35.4603V44.3959H648.407V51.7836H654.88V66.7702C654.88 75.4244 659.806 79.7163 667.334 79.4349C669.937 79.3645 671.978 78.9423 674.44 77.9573L672.048 70.6399C670.782 71.2732 669.234 71.6953 667.897 71.6953C665.223 71.6953 663.394 70.0771 663.394 66.7702V51.7836H673.033V44.3959H663.464V34.5456L654.88 35.4603Z" fill="#3A9CC4"/>
</svg>