<svg width="22" height="22" viewBox="0 0 22 22" fill="none" xmlns="http://www.w3.org/2000/svg">
<g clip-path="url(#clip0_3614_86515)">
<g clip-path="url(#clip1_3614_86515)">
<path opacity="0.32" d="M19.913 4.889C20.25 5.393 20.25 6.095 20.25 7.5V20.25H20.75C20.9489 20.25 21.1397 20.329 21.2803 20.4697C21.421 20.6103 21.5 20.8011 21.5 21C21.5 21.1989 21.421 21.3897 21.2803 21.5303C21.1397 21.671 20.9489 21.75 20.75 21.75H0.75C0.551088 21.75 0.360322 21.671 0.21967 21.5303C0.0790177 21.3897 0 21.1989 0 21C0 20.8011 0.0790177 20.6103 0.21967 20.4697C0.360322 20.329 0.551088 20.25 0.75 20.25H1.25V7.5C1.25 6.095 1.25 5.393 1.587 4.889C1.73296 4.67053 1.92053 4.48296 2.139 4.337C2.58 4.042 4.676 4.005 5.757 4.001C5.753 4.292 5.753 4.596 5.753 4.911V6.25H3.25C3.05109 6.25 2.86032 6.32902 2.71967 6.46967C2.57902 6.61032 2.5 6.80109 2.5 7C2.5 7.19891 2.57902 7.38968 2.71967 7.53033C2.86032 7.67098 3.05109 7.75 3.25 7.75H5.753V9.25H3.25C3.05109 9.25 2.86032 9.32902 2.71967 9.46967C2.57902 9.61032 2.5 9.80109 2.5 10C2.5 10.1989 2.57902 10.3897 2.71967 10.5303C2.86032 10.671 3.05109 10.75 3.25 10.75H5.753V12.25H3.25C3.05109 12.25 2.86032 12.329 2.71967 12.4697C2.57902 12.6103 2.5 12.8011 2.5 13C2.5 13.1989 2.57902 13.3897 2.71967 13.5303C2.86032 13.671 3.05109 13.75 3.25 13.75H5.753V20.25H15.753V13.75H18.25C18.4489 13.75 18.6397 13.671 18.7803 13.5303C18.921 13.3897 19 13.1989 19 13C19 12.8011 18.921 12.6103 18.7803 12.4697C18.6397 12.329 18.4489 12.25 18.25 12.25H15.753V10.75H18.25C18.4489 10.75 18.6397 10.671 18.7803 10.5303C18.921 10.3897 19 10.1989 19 10C19 9.80109 18.921 9.61032 18.7803 9.46967C18.6397 9.32902 18.4489 9.25 18.25 9.25H15.753V7.75H18.25C18.4489 7.75 18.6397 7.67098 18.7803 7.53033C18.921 7.38968 19 7.19891 19 7C19 6.80109 18.921 6.61032 18.7803 6.46967C18.6397 6.32902 18.4489 6.25 18.25 6.25H15.753V4.91C15.753 4.596 15.753 4.292 15.749 4C16.83 4.005 18.919 4.042 19.361 4.337C19.5795 4.48296 19.767 4.67053 19.913 4.889Z" fill="#637381"/>
<path fill-rule="evenodd" clip-rule="evenodd" d="M9.75 1H11.75C13.636 1 14.578 1 15.164 1.586C15.75 2.172 15.75 3.114 15.75 5V20.25H20.75C20.9489 20.25 21.1397 20.329 21.2803 20.4697C21.421 20.6103 21.5 20.8011 21.5 21C21.5 21.1989 21.421 21.3897 21.2803 21.5303C21.1397 21.671 20.9489 21.75 20.75 21.75H0.75C0.551088 21.75 0.360322 21.671 0.21967 21.5303C0.0790177 21.3897 0 21.1989 0 21C0 20.8011 0.0790177 20.6103 0.21967 20.4697C0.360322 20.329 0.551088 20.25 0.75 20.25H5.75V5C5.75 3.114 5.75 2.172 6.336 1.586C6.922 1 7.864 1 9.75 1ZM10.75 17.25C10.9489 17.25 11.1397 17.329 11.2803 17.4697C11.421 17.6103 11.5 17.8011 11.5 18V20.25H10V18C10 17.8011 10.079 17.6103 10.2197 17.4697C10.3603 17.329 10.5511 17.25 10.75 17.25ZM8.75 13C8.55109 13 8.36032 13.079 8.21967 13.2197C8.07902 13.3603 8 13.5511 8 13.75C8 13.9489 8.07902 14.1397 8.21967 14.2803C8.36032 14.421 8.55109 14.5 8.75 14.5H12.75C12.9489 14.5 13.1397 14.421 13.2803 14.2803C13.421 14.1397 13.5 13.9489 13.5 13.75C13.5 13.5511 13.421 13.3603 13.2803 13.2197C13.1397 13.079 12.9489 13 12.75 13H8.75ZM8 10.75C8 10.5511 8.07902 10.3603 8.21967 10.2197C8.36032 10.079 8.55109 10 8.75 10H12.75C12.9489 10 13.1397 10.079 13.2803 10.2197C13.421 10.3603 13.5 10.5511 13.5 10.75C13.5 10.9489 13.421 11.1397 13.2803 11.2803C13.1397 11.421 12.9489 11.5 12.75 11.5H8.75C8.55109 11.5 8.36032 11.421 8.21967 11.2803C8.07902 11.1397 8 10.9489 8 10.75ZM8.75 7.5C8.55109 7.5 8.36032 7.57902 8.21967 7.71967C8.07902 7.86032 8 8.05109 8 8.25C8 8.44891 8.07902 8.63968 8.21967 8.78033C8.36032 8.92098 8.55109 9 8.75 9H12.75C12.9489 9 13.1397 8.92098 13.2803 8.78033C13.421 8.63968 13.5 8.44891 13.5 8.25C13.5 8.05109 13.421 7.86032 13.2803 7.71967C13.1397 7.57902 12.9489 7.5 12.75 7.5H8.75ZM8 5.25C8 5.05109 8.07902 4.86032 8.21967 4.71967C8.36032 4.57902 8.55109 4.5 8.75 4.5H12.75C12.9489 4.5 13.1397 4.57902 13.2803 4.71967C13.421 4.86032 13.5 5.05109 13.5 5.25C13.5 5.44891 13.421 5.63968 13.2803 5.78033C13.1397 5.92098 12.9489 6 12.75 6H8.75C8.55109 6 8.36032 5.92098 8.21967 5.78033C8.07902 5.63968 8 5.44891 8 5.25Z" fill="#637381"/>
</g>
</g>
<defs>
<clipPath id="clip0_3614_86515">
<rect width="22" height="22" fill="white"/>
</clipPath>
<clipPath id="clip1_3614_86515">
<rect width="24" height="24" fill="white" transform="translate(-1 -1)"/>
</clipPath>
</defs>
</svg>
