
<svg width="24" height="24" viewBox="0 0 24 24" fill="none" xmlns="http://www.w3.org/2000/svg">
<path opacity="0.32" fill-rule="evenodd" clip-rule="evenodd" d="M12 22.5C6.20101 22.5 1.5 17.799 1.5 12C1.5 6.20101 6.20101 1.5 12 1.5C17.799 1.5 22.5 6.20101 22.5 12C22.5 17.799 17.799 22.5 12 22.5ZM20.1989 12.6544L7.78592 17.9753C7.31643 18.1816 6.79715 17.833 6.79715 17.328L6.79004 14.0487C6.79004 13.693 7.05324 13.3871 7.40891 13.3373L17.4602 12L7.40891 10.6556C7.05324 10.6129 6.79004 10.307 6.79004 9.95133L6.79715 6.67203C6.79715 6.16697 7.31643 5.81841 7.78592 6.0247L20.1989 11.3456C20.7751 11.5945 20.7751 12.4055 20.1989 12.6544Z" fill="#637381"/>
<path d="M7.78592 17.9758L20.1989 12.655C20.7751 12.406 20.7751 11.5951 20.1989 11.3461L7.78592 6.02522C7.31643 5.81893 6.79715 6.16749 6.79715 6.67255L6.79004 9.95184C6.79004 10.3075 7.05324 10.6134 7.40891 10.6561L17.4602 12.0005L7.40891 13.3378C7.05324 13.3876 6.79004 13.6935 6.79004 14.0492L6.79715 17.3285C6.79715 17.8335 7.31643 18.1821 7.78592 17.9758Z" fill="#637381"/>
</svg>
