
<svg width="24" height="24" viewBox="0 0 24 24" fill="none" xmlns="http://www.w3.org/2000/svg">
<path opacity="0.32" d="M8 21.8759L8 2.1242C9.20109 2.0533 10.8266 2 13 2C16.4842 2 18.5605 2.13685 19.7371 2.2638C20.6088 2.35785 21.281 2.94825 21.4442 3.80965C21.6983 5.15055 22 7.65725 22 12C22 16.3427 21.6983 18.8494 21.4442 20.1903C21.281 21.0517 20.6088 21.6421 19.7371 21.7362C18.5605 21.8632 16.4843 22 13 22C10.8266 22 9.20109 21.9468 8 21.8759Z" fill="#637381"/>
<path d="M2.03125 6.08397C2.05702 5.77143 2.28597 5.55663 2.59888 5.53543C2.88635 5.51592 3.32917 5.49903 4 5.49903C4.10776 5.49903 4.20964 5.49948 4.30593 5.50027C4.38632 4.79912 4.47356 4.24287 4.55581 3.80877C4.71901 2.94737 5.39115 2.35698 6.26285 2.26293C6.7055 2.21513 7.27555 2.16598 8 2.12323L8 21.875C7.27555 21.8323 6.7055 21.7831 6.26285 21.7353C5.39115 21.6413 4.71902 21.0508 4.55581 20.1894C4.47355 19.7553 4.3863 19.199 4.30591 18.4978C4.20962 18.4986 4.10775 18.499 4 18.499C3.32917 18.499 2.88635 18.4821 2.59888 18.4626C2.28597 18.4414 2.05702 18.2266 2.03125 17.9141C2.01372 17.7014 2 17.4052 2 16.999C2 16.5928 2.01372 16.2967 2.03125 16.084C2.05702 15.7714 2.28597 15.5566 2.59888 15.5354C2.88635 15.5159 3.32917 15.499 4 15.499C4.02539 15.499 4.05046 15.499 4.07521 15.4991C4.02844 14.4926 4 13.3324 4 11.9991C4 10.6658 4.02844 9.50553 4.07522 8.49898L4 8.49903C3.32917 8.49903 2.88635 8.48213 2.59888 8.46263C2.28597 8.44143 2.05702 8.22663 2.03125 7.91408C2.01372 7.70138 2 7.40523 2 6.99903C2 6.59282 2.01372 6.29667 2.03125 6.08397Z" fill="#637381"/>
<path d="M16.8916 13.0356C18.2164 12.338 19.1197 10.9477 19.1197 9.34642C19.1197 7.04527 17.2542 5.17977 14.953 5.17977C12.6519 5.17977 10.7864 7.04527 10.7864 9.34642C10.7864 10.9478 11.6897 12.3382 13.0146 13.0357C11.2404 13.7117 9.88561 15.289 9.46596 17.2327C9.40791 17.5017 9.55591 17.7778 9.82686 17.8269C10.7993 18.0028 12.4096 18.1798 14.9541 18.1798C17.4985 18.1798 19.1088 18.0028 20.0812 17.8269C20.3512 17.778 20.4988 17.5029 20.441 17.2349C20.0219 15.2901 18.6667 13.7118 16.8916 13.0356Z" fill="#637381"/>
</svg>
