
<svg width="24" height="24" viewBox="0 0 24 24" fill="none" xmlns="http://www.w3.org/2000/svg">
<g opacity="0.32">
<path d="M12.0002 14.7801C12.3632 14.7801 12.7226 14.7086 13.0579 14.5697C13.3933 14.4308 13.698 14.2273 13.9546 13.9706C14.2113 13.7139 14.4148 13.4093 14.5537 13.0739C14.6926 12.7386 14.7641 12.3792 14.7641 12.0162C14.7641 11.6533 14.6926 11.2939 14.5537 10.9585C14.4148 10.6232 14.2113 10.3185 13.9546 10.0618C13.698 9.8052 13.3933 9.60161 13.0579 9.46271C12.7226 9.32381 12.3632 9.25232 12.0002 9.25232C11.2672 9.25232 10.5642 9.54352 10.0459 10.0618C9.52753 10.5802 9.23633 11.2832 9.23633 12.0162C9.23633 12.7493 9.52753 13.4523 10.0459 13.9706C10.5642 14.4889 11.2672 14.7801 12.0002 14.7801Z" fill="#637381"/>
<path fill-rule="evenodd" clip-rule="evenodd" d="M3.77688 21.3755C2.93261 21.1957 2.36966 20.5161 2.28099 19.6575C2.14952 18.3844 2 16.0469 2 12C2 7.95305 2.14952 5.6156 2.28099 4.34251C2.36966 3.48389 2.93261 2.80424 3.77688 2.62451C5.1095 2.34081 7.6216 2 12 2C16.3784 2 18.8905 2.34081 20.2231 2.62451C21.0674 2.80424 21.6304 3.48389 21.719 4.34251C21.8505 5.6156 22 7.95305 22 12C22 16.0469 21.8505 18.3844 21.719 19.6575C21.6304 20.5161 21.0674 21.1957 20.2232 21.3755C18.8905 21.6592 16.3784 22 12 22C7.6216 22 5.1095 21.6592 3.77688 21.3755ZM10.1945 5.50602C10.4759 5.42792 10.7733 5.5588 10.9059 5.81903C11.0087 6.02093 11.1654 6.19045 11.3586 6.30883C11.5518 6.42721 11.7739 6.48983 12.0005 6.48978C12.2271 6.48983 12.4496 6.42721 12.6428 6.30883C12.836 6.19045 12.9926 6.02093 13.0955 5.81903C13.228 5.5588 13.5255 5.42792 13.8069 5.50602C14.8496 5.79544 15.8073 6.33149 16.5993 7.06892C16.7976 7.2536 16.8514 7.54646 16.7317 7.78959C16.6388 7.97816 16.5959 8.18742 16.6071 8.39732C16.6183 8.60723 16.6831 8.81076 16.7954 8.98842C16.9078 9.16609 17.0638 9.31196 17.2487 9.41205C17.4335 9.51215 17.6409 9.56312 17.8511 9.5601C18.1227 9.5562 18.3646 9.73118 18.4459 9.99034C18.6515 10.6461 18.7559 11.3295 18.7552 12.0168C18.7552 12.4819 18.708 12.9368 18.6182 13.3765C18.5551 13.685 18.269 13.8958 17.9557 13.8646C17.7125 13.8404 17.4676 13.8892 17.2523 14.005C17.037 14.1207 16.8612 14.2981 16.7473 14.5143C16.6334 14.7305 16.5866 14.9758 16.6129 15.2188C16.6392 15.4618 16.7374 15.6914 16.895 15.8783C17.0976 16.1186 17.086 16.473 16.8682 16.6996C16.0602 17.5401 15.0484 18.1572 13.9313 18.4906C13.611 18.5862 13.273 18.4081 13.1709 18.0898C13.0914 17.842 12.9352 17.6257 12.7249 17.4723C12.5146 17.3189 12.261 17.2363 12.0007 17.2363C11.7403 17.2363 11.4867 17.3189 11.2764 17.4723C11.0661 17.6257 10.9099 17.842 10.8304 18.0898C10.7283 18.4081 10.3903 18.5863 10.07 18.4906C8.95282 18.1571 7.941 17.5399 7.13308 16.6993C6.9153 16.4727 6.90377 16.1182 7.10635 15.878C7.26389 15.6911 7.3621 15.4615 7.3884 15.2185C7.41471 14.9755 7.36792 14.7302 7.25402 14.514C7.14012 14.2978 6.96429 14.1204 6.74903 14.0047C6.53377 13.8889 6.28888 13.84 6.04568 13.8643C5.73233 13.8955 5.44615 13.6846 5.38316 13.3761C5.2918 12.9286 5.24588 12.473 5.24609 12.0162C5.24613 11.3117 5.35406 10.6304 5.55565 9.98977C5.63613 9.73401 5.87326 9.56004 6.14138 9.56004H6.16717C6.3759 9.5601 6.5814 9.50697 6.76389 9.40565C6.94638 9.30434 7.10003 9.15818 7.21034 8.98098C7.32066 8.80379 7.38399 8.6014 7.39435 8.39293C7.40472 8.18446 7.36178 7.97679 7.26959 7.78952C7.14991 7.54641 7.20374 7.25358 7.40205 7.06892C8.194 6.33149 9.15176 5.79544 10.1945 5.50602Z" fill="#637381"/>
</g>
<path fill-rule="evenodd" clip-rule="evenodd" d="M10.9059 5.81982C10.7733 5.5596 10.4759 5.42871 10.1945 5.50682C9.15176 5.79623 8.194 6.33229 7.40205 7.06971C7.20374 7.25438 7.14991 7.5472 7.26959 7.79031C7.36178 7.97758 7.40472 8.18525 7.39435 8.39372C7.38399 8.60219 7.32066 8.80458 7.21034 8.98178C7.10003 9.15897 6.94638 9.30513 6.76389 9.40645C6.5814 9.50776 6.3759 9.5609 6.16717 9.56083H6.14138C5.87326 9.56083 5.63613 9.7348 5.55565 9.99056C5.35406 10.6312 5.24613 11.3125 5.24609 12.017C5.24588 12.4738 5.2918 12.9294 5.38316 13.3769C5.44615 13.6854 5.73233 13.8963 6.04568 13.8651C6.28888 13.8408 6.53377 13.8897 6.74903 14.0055C6.96429 14.1212 7.14012 14.2985 7.25402 14.5148C7.36792 14.731 7.41471 14.9763 7.3884 15.2193C7.3621 15.4623 7.26389 15.6919 7.10635 15.8788C6.90377 16.119 6.9153 16.4735 7.13308 16.7001C7.941 17.5407 8.95282 18.1579 10.07 18.4914C10.3903 18.587 10.7283 18.4089 10.8304 18.0906C10.9099 17.8428 11.0661 17.6265 11.2764 17.4731C11.4867 17.3197 11.7403 17.2371 12.0007 17.2371C12.261 17.2371 12.5146 17.3197 12.7249 17.4731C12.9352 17.6265 13.0914 17.8428 13.1709 18.0906C13.273 18.4089 13.611 18.587 13.9313 18.4914C15.0484 18.158 16.0602 17.5409 16.8682 16.7004C17.086 16.4738 17.0976 16.1193 16.895 15.8791C16.7374 15.6922 16.6392 15.4626 16.6129 15.2196C16.5866 14.9766 16.6334 14.7313 16.7473 14.5151C16.8612 14.2989 17.037 14.1215 17.2523 14.0058C17.4676 13.89 17.7125 13.8411 17.9557 13.8654C18.269 13.8966 18.5551 13.6858 18.6182 13.3773C18.708 12.9376 18.7552 12.4827 18.7552 12.0176C18.7559 11.3303 18.6515 10.6469 18.4459 9.99113C18.3646 9.73197 18.1227 9.55699 17.8511 9.56089C17.6409 9.56392 17.4335 9.51294 17.2487 9.41284C17.0638 9.31275 16.9078 9.16689 16.7954 8.98922C16.6831 8.81155 16.6183 8.60802 16.6071 8.39812C16.5959 8.18821 16.6388 7.97896 16.7317 7.79038C16.8514 7.54725 16.7976 7.25439 16.5993 7.06971C15.8073 6.33229 14.8496 5.79623 13.8069 5.50682C13.5255 5.42871 13.228 5.5596 13.0955 5.81982C12.9926 6.02172 12.836 6.19124 12.6428 6.30962C12.4496 6.428 12.2271 6.49063 12.0005 6.49057C11.7739 6.49063 11.5518 6.428 11.3586 6.30962C11.1654 6.19124 11.0087 6.02172 10.9059 5.81982ZM13.0579 14.5705C12.7226 14.7094 12.3632 14.7809 12.0002 14.7809C11.2672 14.7809 10.5642 14.4897 10.0459 13.9714C9.52753 13.4531 9.23633 12.7501 9.23633 12.017C9.23633 11.284 9.52753 10.581 10.0459 10.0626C10.5642 9.54431 11.2672 9.25311 12.0002 9.25311C12.3632 9.25311 12.7226 9.3246 13.0579 9.4635C13.3933 9.6024 13.698 9.80599 13.9546 10.0626C14.2113 10.3193 14.4148 10.624 14.5537 10.9593C14.6926 11.2946 14.7641 11.6541 14.7641 12.017C14.7641 12.38 14.6926 12.7394 14.5537 13.0747C14.4148 13.41 14.2113 13.7147 13.9546 13.9714C13.698 14.228 13.3933 14.4316 13.0579 14.5705Z" fill="#637381"/>
</svg>
