<svg width="574" height="128" viewBox="0 0 574 128" fill="none" xmlns="http://www.w3.org/2000/svg">
<path fill-rule="evenodd" clip-rule="evenodd" d="M525.133 41.0963C528.098 41.0963 530.835 41.6354 533.344 42.7137C535.854 43.792 537.886 45.3369 539.441 47.3483C540.204 48.335 540.79 49.4239 541.198 50.6151C542.568 48.0293 544.347 45.9985 546.535 44.5228C549.231 42.698 552.445 41.7856 556.177 41.7856C561.734 41.7856 566.089 43.8074 569.241 47.851C572.414 51.8738 574 57.5867 574 64.9896C574 72.351 572.434 78.0431 569.303 82.0659C566.193 86.068 561.807 88.0691 556.146 88.0691C550.485 88.0691 546.079 86.068 542.927 82.0659C542.162 81.09 541.49 80.0165 540.911 78.8454C540.727 79.187 540.527 79.5227 540.312 79.8525C538.798 82.175 536.704 84.0102 534.029 85.358C531.354 86.7059 528.285 87.3798 524.822 87.3798C520.84 87.3798 517.409 86.457 514.526 84.6115C511.924 82.9142 509.87 80.6079 508.365 77.6928C508.121 78.4236 507.801 79.1124 507.407 79.7592C506.391 81.4596 504.981 82.88 503.177 84.0205C501.393 85.1403 499.33 85.9801 496.987 86.54C494.664 87.0999 492.197 87.3798 489.584 87.3798C485.748 87.3798 482.513 86.7785 479.879 85.5758C477.267 84.373 475.276 82.6519 473.907 80.4124C472.539 78.1729 471.98 75.7243 471.62 72.3252H482.006C482.341 74.8168 483.291 76.514 484.701 77.4886C486.131 78.4632 487.78 78.9505 489.646 78.9505C491.326 78.9505 492.767 78.712 493.97 78.2351C495.172 77.7581 496.085 77.105 496.707 76.2755C497.35 75.4461 497.671 74.4818 497.671 73.3828C497.671 72.346 497.36 71.4336 496.738 70.6456C496.137 69.8369 495.276 69.2044 494.156 68.7482C493.037 68.292 491.73 68.0328 490.237 67.9706L485.852 67.7529V59.4791L489.74 59.2302C491.191 59.1473 492.435 58.8777 493.472 58.4215C494.53 57.9653 495.338 57.3536 495.898 56.5863C496.458 55.8191 496.738 54.9067 496.738 53.8491C496.738 52.8538 496.406 52.0036 495.743 51.2986C495.1 50.5935 494.239 50.0648 493.161 49.7122C492.083 49.339 490.88 49.1524 489.553 49.1524C488.205 49.1524 486.982 49.3597 485.883 49.7745C484.804 50.1892 483.923 50.8838 483.239 51.8585C482.886 52.3805 482.701 53.4481 482.383 55.2869C482.351 55.4736 482.317 55.6682 482.282 55.8709H471.859C471.94 55.4151 472.014 54.9731 472.086 54.5443C472.563 51.7132 472.943 49.457 474.312 47.566C475.888 45.368 478.023 43.7402 480.719 42.6826C483.436 41.6251 486.463 41.0963 489.802 41.0963C493.265 41.0963 496.365 41.5214 499.102 42.3716C501.839 43.2218 503.996 44.5593 505.572 46.3841C506.999 47.997 507.789 50.0326 507.94 52.4909C507.968 52.425 507.997 52.3594 508.025 52.2939C509.601 48.6858 511.841 45.9175 514.744 43.989C517.668 42.0605 521.131 41.0963 525.133 41.0963ZM506.086 59.1878C504.861 60.8374 502.802 62.1476 499.911 63.1183C501.445 63.533 502.897 64.1862 504.265 65.0779C504.769 65.406 505.239 65.7707 505.675 66.1719C505.666 65.8313 505.661 65.4874 505.661 65.1401C505.661 63.0313 505.803 61.0472 506.086 59.1878ZM532.287 54.6579H539.552C538.876 56.8977 538.453 59.3979 538.284 62.1584C537.387 61.3733 536.363 60.6979 535.211 60.1323C532.888 58.9918 530.182 58.4215 527.092 58.4215C525.848 58.4215 524.635 58.5563 523.453 58.8259C522.271 59.0747 521.162 59.448 520.125 59.9456C519.109 60.4433 518.228 61.0654 517.481 61.8119C517.191 59.4894 517.305 57.3847 517.823 55.4977C518.362 53.6107 519.275 52.1177 520.56 51.0186C521.846 49.8989 523.453 49.339 525.382 49.339C527.165 49.339 528.627 49.7744 529.767 50.6454C530.908 51.5163 531.748 52.8538 532.287 54.6579ZM524.449 66.1665C523.35 66.1665 522.271 66.4154 521.214 66.913C520.156 67.39 519.285 67.981 518.601 68.686C517.917 69.3703 517.574 70.0442 517.574 70.7078C517.574 72.5741 517.854 74.1604 518.414 75.4668C518.995 76.7524 519.804 77.7374 520.84 78.4217C521.877 79.0853 523.07 79.4171 524.417 79.4171C525.662 79.4171 526.812 79.1267 527.87 78.5461C528.948 77.9448 529.809 77.1257 530.452 76.0889C531.095 75.0313 531.416 73.839 531.416 72.5119C531.416 71.0396 531.084 69.8369 530.421 68.9037C529.778 67.9706 528.928 67.2863 527.87 66.8508C526.812 66.3946 525.672 66.1665 524.449 66.1665ZM556.115 79.5465C558.583 79.5465 560.345 78.4474 561.403 76.2494C562.46 74.0513 562.989 70.3188 562.989 65.0518C562.989 59.6188 562.45 55.7515 561.372 53.4498C560.293 51.148 558.541 49.9972 556.115 49.9972C553.689 49.9972 551.926 51.1584 550.827 53.4809C549.728 55.8034 549.179 59.6603 549.179 65.0518C549.179 70.2773 549.718 73.9995 550.796 76.2183C551.895 78.4371 553.668 79.5465 556.115 79.5465Z" fill="#1465FA"/>
<path d="M558.831 94.5046C548.331 112.467 528.842 124.534 506.534 124.534C492.908 124.534 480.333 120.032 470.216 112.433L449.98 117.683L455.725 96.9195C449.573 87.4438 446 76.1392 446 64.0001C446 30.5682 473.102 3.46631 506.534 3.46631C529.399 3.46631 549.303 16.1437 559.601 34.8531C558.784 34.759 557.949 34.712 557.098 34.712C552.671 34.712 548.841 35.9596 545.607 38.4546C543.869 39.8046 542.347 41.4726 541.039 43.4587C534.033 31.7152 521.202 23.8495 506.534 23.8495C484.359 23.8495 466.383 41.8255 466.383 64.0001C466.383 86.1747 484.359 104.151 506.534 104.151C514.068 104.151 521.118 102.075 527.143 98.4652L541.602 102.216L537.947 89.0079C538.827 87.9042 539.65 86.7532 540.411 85.5593C541.792 87.7282 543.444 89.5458 545.366 91.0121C548.554 93.3999 552.35 94.5938 556.754 94.5938C557.461 94.5938 558.154 94.564 558.831 94.5046Z" fill="#1465FA"/>
<path d="M116.956 64.4927C116.956 71.7253 116.956 79.1343 116.956 86.367C116.956 87.6018 116.603 87.7782 115.545 87.7782C110.958 87.7782 106.195 87.7782 101.609 87.7782C100.55 87.7782 100.374 87.4254 100.374 86.5434C100.374 81.2512 100.374 75.959 100.374 70.6669C100.374 69.6085 100.198 69.4321 99.1391 69.4321C92.2593 69.4321 85.2031 69.4321 78.3233 69.4321C77.2649 69.4321 77.0885 69.7849 77.0885 70.6669C77.0885 75.959 77.0885 81.2512 77.0885 86.367C77.0885 87.6018 76.7357 87.7782 75.6773 87.7782C71.0907 87.7782 66.3278 87.7782 61.7412 87.7782C60.8592 87.7782 60.5064 87.6018 60.5064 86.5434C60.5064 71.9017 60.5064 57.0837 60.5064 42.4421C60.5064 41.3836 60.8592 41.0308 61.9176 41.2072C66.5042 41.2072 71.2671 41.2072 75.8537 41.2072C76.9121 41.2072 77.2649 41.3836 77.2649 42.4421C77.2649 47.7342 77.2649 52.85 77.2649 58.1421C77.2649 59.0241 77.4413 59.377 78.4997 59.377C85.5559 59.377 92.4358 59.377 99.492 59.377C100.374 59.377 100.727 59.2006 100.727 58.1421C100.727 52.85 100.727 47.5578 100.727 42.4421C100.727 41.56 100.903 41.2072 101.962 41.2072C106.725 41.2072 111.488 41.2072 116.25 41.2072C117.309 41.2072 117.485 41.3836 117.485 42.4421C116.956 49.8511 116.956 57.0837 116.956 64.4927Z" fill="#1465FA"/>
<path d="M356.691 87.7783C351.399 87.6019 344.872 88.1311 338.521 87.6019C335.522 87.2491 332.523 86.7199 329.701 85.3086C326.878 83.721 325.467 81.2513 325.467 78.076C325.467 69.4322 325.467 60.7883 325.467 52.1445C325.467 47.9107 327.407 45.0883 331.112 43.3242C333.758 42.0894 336.757 41.5602 339.756 41.5602C351.399 41.3837 363.218 41.5602 374.86 41.3837C375.742 41.3837 375.919 41.7366 375.919 42.4422C375.919 45.0883 375.919 47.7343 375.919 50.204C375.919 51.2624 375.566 51.4388 374.684 51.4388C365.511 51.4388 356.338 51.4388 347.165 51.4388C346.812 51.4388 346.283 51.4388 345.93 51.4388C342.755 51.9681 342.049 52.6737 342.225 55.849C342.225 56.9074 341.873 58.4951 342.402 59.2007C343.108 59.9063 344.695 59.3771 345.754 59.3771C350.164 59.3771 354.397 59.3771 358.808 59.3771C359.69 59.3771 359.866 59.5535 359.866 60.4355C359.866 63.0816 359.866 65.7277 359.866 68.3737C359.866 69.2558 359.513 69.4322 358.631 69.4322C353.692 69.4322 348.752 69.4322 343.813 69.4322C341.873 69.4322 342.225 69.2558 342.225 71.1962C342.225 72.2547 342.225 73.3131 342.225 74.5479C342.225 75.9592 342.931 76.8412 344.342 77.3704C345.224 77.7232 346.283 77.8996 347.341 77.8996C356.514 77.8996 365.511 77.8996 374.684 77.8996C375.742 77.8996 376.095 78.2524 376.095 79.3109C376.095 81.7805 376.095 84.4266 376.095 86.8963C376.095 87.7783 375.919 88.1311 374.86 88.1311C369.039 87.7783 363.57 87.7783 356.691 87.7783Z" fill="#1465FA"/>
<path d="M157.529 53.3791C155.236 58.3184 153.119 63.0814 150.826 67.6679C147.827 74.0185 145.005 80.3691 142.006 86.7197C141.653 87.6017 141.124 87.7781 140.242 87.7781C134.949 87.7781 129.657 87.7781 124.189 87.7781C124.012 87.2489 124.189 87.0725 124.365 86.7197C131.245 73.4893 138.125 60.2589 145.005 47.0285C147.474 43.1476 151.002 41.5599 155.236 41.0307C158.235 40.6779 161.41 40.6779 164.409 41.5599C167.761 42.442 170.407 44.3824 171.995 47.5577C178.698 60.6117 185.578 73.6657 192.458 86.7197C192.987 87.7781 192.987 87.9545 191.752 87.9545C186.813 87.9545 181.697 87.9545 176.758 87.9545C175.875 87.9545 175.346 87.6017 174.993 86.8961C169.349 76.1353 163.704 65.1982 158.059 54.4375C158.059 54.0847 157.882 53.7319 157.529 53.3791Z" fill="#1465FA"/>
<path d="M31.0468 41.2074C37.221 41.2074 43.2188 41.2074 49.393 41.2074C50.275 41.2074 50.6278 41.3838 50.6278 42.4423C50.6278 44.9119 50.6278 47.558 50.6278 50.0277C50.6278 51.0861 50.4514 51.4389 49.393 51.4389C40.2199 51.4389 30.8704 51.4389 21.6974 51.4389C21.1681 51.4389 20.4625 51.4389 19.9333 51.6153C17.4636 51.9681 16.9344 52.6738 16.9344 55.1434C16.9344 61.3176 16.9344 67.4918 16.9344 73.4896C16.9344 76.8413 17.9928 77.7233 21.1681 77.8997C23.285 77.8997 25.2255 77.8997 27.3423 77.8997C34.5749 77.8997 41.984 77.8997 49.2166 77.8997C50.4514 77.8997 50.6278 78.2525 50.6278 79.3109C50.6278 81.957 50.6278 84.4267 50.6278 87.0728C50.6278 87.7784 50.4514 88.1312 49.5694 88.1312C38.103 88.1312 26.4603 88.1312 14.994 88.1312C11.6423 88.1312 8.29056 87.2492 5.29167 85.8379C1.93997 84.2503 -0.000488281 81.6042 -0.000488281 77.7233C-0.000488281 69.0794 -0.000488281 60.4356 0.175917 51.7917C0.175917 45.4411 2.82199 42.9715 8.81977 41.913C12.8771 41.2074 17.1108 41.2074 21.1681 41.2074C24.5198 41.2074 27.6951 41.2074 31.0468 41.2074Z" fill="#1465FA"/>
<path d="M385.445 59.3772C385.445 53.7322 385.445 48.0872 385.445 42.4423C385.445 41.5602 385.621 41.2074 386.68 41.2074C391.443 41.2074 396.206 41.2074 400.969 41.2074C402.027 41.2074 402.204 41.5602 402.204 42.6187C402.204 53.3794 402.204 64.1401 402.204 74.7244C402.204 76.6649 402.556 77.1941 404.673 77.5469C405.379 77.7233 405.908 77.7233 406.614 77.7233C415.963 77.7233 425.136 77.7233 434.486 77.7233C435.544 77.7233 435.897 77.8997 435.897 78.9581C435.721 81.6042 435.897 84.2503 435.897 86.8964C435.897 87.602 435.721 87.7784 435.015 87.7784C424.607 87.7784 414.376 87.7784 403.968 87.7784C400.616 87.7784 397.264 87.4256 393.913 86.5435C388.091 84.9559 385.621 81.7806 385.621 75.7828C385.445 70.3143 385.445 64.8457 385.445 59.3772Z" fill="#1465FA"/>
<path d="M157.882 64.8457C159.999 69.0795 162.116 72.9604 164.233 77.0177C164.586 77.7233 164.233 77.7233 163.703 77.7233C160.175 77.7233 156.471 77.7233 152.943 77.7233C152.414 77.7233 152.237 77.5469 152.414 77.0177C154.178 72.9604 155.942 69.0795 157.882 64.8457Z" fill="#1465FA"/>
<path d="M257.904 75.959C257.551 74.9006 257.022 74.0186 256.669 72.9601C255.963 71.3725 255.258 69.7848 254.376 68.3736C252.964 65.1983 251.553 61.8466 249.789 58.8477L243.968 46.3229C242.909 46.1465 243.439 46.8521 243.439 47.205C243.439 55.3196 243.439 63.6106 243.439 71.7253C243.439 72.4309 243.615 72.9601 243.262 73.4893C242.557 71.9017 241.675 70.314 240.969 68.7264C240.44 67.4916 239.91 66.4331 239.381 65.1983C238.146 62.5522 236.735 59.7297 235.5 57.0837L230.914 47.7342C229.326 44.7353 227.209 42.2656 223.858 41.2072C222.623 40.5016 221.212 40.3252 219.8 39.9723C217.507 39.7959 215.037 39.4431 212.744 39.9723C210.627 39.7959 208.687 40.5016 206.746 41.2072C205.864 41.56 204.806 41.9128 203.924 42.6184C203.218 42.9712 202.513 43.5005 201.983 44.2061C200.572 45.4409 199.866 47.0286 200.043 48.969C200.043 49.851 200.043 50.7331 200.043 51.4387V55.496C200.043 57.0836 200.043 58.6713 200.043 60.2589C200.043 61.141 200.043 62.023 200.043 62.7286V66.9623C200.043 68.1972 200.043 69.2556 200.043 70.4904C200.043 71.7253 200.043 72.7837 200.043 74.0186C200.043 75.959 200.043 78.0759 200.043 80.0163C200.043 81.9568 200.043 83.8972 200.043 85.8377C200.043 86.7197 200.396 86.7197 201.101 86.7197C203.395 86.7197 205.511 86.7197 207.628 86.1905C208.687 86.0141 209.745 85.8377 210.627 85.1321C211.333 84.9557 212.038 84.6029 212.568 84.0736C213.097 83.7208 213.979 83.5444 214.155 82.6624C215.567 81.9568 216.096 80.7219 216.625 79.3107C216.978 78.7815 216.801 77.8995 217.154 77.3702C217.331 77.0174 217.331 76.4882 217.331 75.959C217.331 68.9028 217.331 62.023 217.331 54.9668C217.331 54.4376 217.331 53.9084 217.154 53.5555C217.683 53.2027 217.683 53.732 217.86 54.0848C218.742 56.0252 219.624 57.7893 220.682 59.7297C222.27 63.0814 223.858 66.4331 225.445 69.7848C226.856 72.7837 228.268 75.6062 229.503 78.6051C231.972 84.2501 236.559 86.5433 242.38 86.8961C242.733 87.0725 243.262 87.0725 243.791 87.0725C245.379 87.0725 246.967 87.0725 248.554 87.0725C248.731 87.0725 248.731 87.0725 248.907 87.0725C250.671 86.8961 252.259 86.5433 253.846 86.0141C254.905 85.4849 255.963 84.9557 256.845 84.6029C258.08 83.8972 258.786 82.8388 259.139 81.604C260.197 79.4871 258.962 77.7231 257.904 75.959ZM313.295 40.678C311.355 40.678 309.238 40.5016 307.297 41.0308C305.533 41.2072 303.946 41.7364 302.358 42.6184H302.534C302.534 42.6184 302.534 42.6184 302.358 42.6184C302.358 42.6184 302.358 42.6184 302.182 42.6184C300.77 43.1476 299.535 44.0297 298.653 45.0881C297.948 45.6173 297.419 46.4993 297.066 47.3814C295.654 49.4982 296.007 51.9679 296.184 54.2612C296.184 56.2016 296.184 58.1421 296.184 60.0825C296.184 61.4938 296.184 62.7286 296.184 64.1399C296.184 65.0219 296.184 65.9039 296.184 66.6095C296.184 68.1972 296.184 69.6084 296.184 71.1961C296.184 72.0781 296.184 73.1365 296.184 74.0186C295.655 74.195 295.655 73.6657 295.478 73.4893C294.42 71.5489 293.538 69.6084 292.656 67.668C292.303 66.9623 292.126 66.0803 291.597 65.5511C290.539 63.0814 289.48 60.6118 288.069 58.1421C286.658 55.1432 285.247 52.3207 284.012 49.3218C281.366 43.1476 276.426 41.0308 270.252 40.8544C268.664 40.3252 267.077 40.678 265.489 40.678C263.725 40.8544 261.961 41.0308 260.374 41.56C260.021 41.7364 259.668 41.7364 259.139 41.9128C257.904 42.6184 256.493 42.9712 255.434 44.2061C255.081 44.3825 254.905 44.7353 255.081 45.2645C253.847 47.205 253.317 49.1454 254.552 51.2623C254.905 51.9679 255.258 52.6735 255.611 53.3791C256.845 55.8488 257.904 58.4949 259.315 60.9646C260.903 64.6691 262.667 68.1972 264.431 71.7253C265.842 74.9006 267.43 78.0759 269.017 81.2512C269.017 81.7804 269.194 82.1332 269.723 82.486C269.723 82.3096 269.899 82.1332 269.899 81.9568C269.899 72.7837 269.899 63.6106 269.899 54.2612C270.958 55.8488 271.663 57.6129 272.369 59.2005C272.898 60.2589 273.251 61.3174 273.78 62.1994C275.544 65.7275 277.132 69.432 279.072 72.9601C279.778 75.2534 281.189 77.1938 282.071 79.4871C284.012 84.0736 287.363 86.7197 292.126 87.7782C293.361 87.7782 294.596 88.3074 296.007 88.3074C297.419 88.3074 298.653 88.3074 300.065 88.3074C300.241 88.3074 300.241 88.3074 300.417 88.3074C301.829 88.131 303.064 88.131 304.475 87.6018C306.062 87.4253 307.474 86.7197 308.708 86.0141C310.12 85.4849 311.178 84.6029 312.237 83.368C312.589 83.0152 312.942 82.6624 313.119 82.1332C313.824 81.0748 313.824 79.8399 313.824 78.6051C313.824 66.4331 313.824 54.4376 313.824 42.2656C313.648 41.56 313.824 41.0308 313.295 40.678Z" fill="#1465FA"/>
</svg>
